<svg xmlns="http://www.w3.org/2000/svg" xmlns:xlink="http://www.w3.org/1999/xlink" width="207" height="252" viewBox="0 0 207 252">
    <defs>
        <path id="shlpkgf6qa" d="M194.442 27.727v132.04c0 6.318-2.497 15.447-6.924 19.412-7.549 6.818-14.897 13.17-21.913 18.972-28.67 23.662-51.956 41.345-62.126 41.345-10.17 0-33.447-17.683-62.117-41.345-7.024-5.82-14.364-12.138-21.93-18.972-4.385-3.965-6.948-13.094-6.948-19.412V27.727c-.01-1.978 1.167-3.77 2.987-4.548 9.371-3.99 33.29-10.667 87.983-10.667 54.694 0 78.62 6.651 87.992 10.667 1.826.772 3.008 2.566 2.996 4.548z"/>
    </defs>
    <g fill="none" fill-rule="evenodd">
        <g>
            <g>
                <g transform="translate(-722.000000, -395.000000) translate(434.000000, 244.000000) translate(288.000000, 151.000000)">
                    <path fill="#5F9825" fill-rule="nonzero" d="M196.206 12.055C183.723 6.743 157.49.415 103.479.415c-54.011 0-80.235 6.328-92.726 11.64C4.467 14.729.396 20.902.416 27.727v132.031c0 9.736.067 17.559 10.911 28.392 23.727 23.71 69.965 63.434 92.152 63.434 22.187 0 68.426-39.723 92.153-63.434 10.977-10.966 10.91-18.656 10.91-28.392V27.727c.017-6.824-4.054-12.995-10.336-15.672z"/>
                    <path fill="#231F20" fill-rule="nonzero" d="M103.48 252c-9.987 0-25.359-7.707-45.773-22.913-16.47-12.475-32.074-26.052-46.705-40.638C0 177.425 0 169.244 0 159.76V27.726c-.032-7.002 4.14-13.341 10.586-16.088C23.111 6.343 49.393 0 103.48 0c54.087 0 80.368 6.343 92.927 11.64 6.437 2.74 10.61 9.062 10.594 16.053v132.19c0 9.769 0 17.459-11.027 28.5-14.63 14.585-30.234 28.163-46.705 40.638C128.838 244.293 113.441 252 103.48 252zm0-251.169c-53.946 0-80.11 6.31-92.56 11.64C4.8 15.077.83 21.08.832 27.727v132.031c0 9.678 0 17.326 10.819 28.134 21.92 21.899 69.332 63.31 91.86 63.31 22.529 0 69.908-41.411 91.862-63.31 10.819-10.808 10.819-18.332 10.819-27.91V27.794c.018-6.685-3.986-12.727-10.154-15.322C183.59 7.14 157.424.83 103.48.83z"/>
                    <mask id="wfaifwtm4b" fill="#fff">
                        <use xlink:href="#shlpkgf6qa"/>
                    </mask>
                    <use fill="#05325A" fill-rule="nonzero" xlink:href="#shlpkgf6qa"/>
                    <g mask="url(#wfaifwtm4b)">
                        <g>
                            <path fill="#064075" fill-rule="nonzero" d="M87.367 193.7c9.155-16.535 4.919-26.761 4.919-26.761s-9.247-17.808 5.5-31.593c14.748-13.784 18.6-32.89 18.6-32.89s1.915-13.975-5.417-24.725c-7.332-10.75 4.42-45.318 4.42-45.318s4.685-14.558-4.287-32.216H27.164c.5 10.317 3.97 31.376 22.711 47.854 25.8 22.697 30.793 34.27 21.33 53.508-9.462 19.238 1.498 29.156 1.498 29.156s12.542 19.122-5.226 24.65c-17.768 5.53-34.263 19.846-34.263 19.846s-17.993 12.928-12.167 36.971c1.481 6.111 1.473 10.426.624 13.477h69.325c-4.37-7.931-9.563-21.192-3.629-31.958zM200.658 88.323s-2.713 6.917-9.03 9.22c-6.316 2.303-17.302 7.416-12.192 19.238 5.11 11.823-12.483 28.359-12.483 28.359s-30.793 26.754-13.765 49.883c10.161 13.817 23.627 24.36 32.831 30.62h39.672v-31.526c-4.86-9.074-11.3-17.21-19.016-24.027-29.794-26.904-10.386-42.4-10.386-42.4s7.673-4.058 2.938-16.687c-3.33-8.87 15.163-16.029 26.464-19.512V66.799c-1.529.712-3.109 1.31-4.727 1.787-15.346 4.506-20.306 19.737-20.306 19.737z" transform="translate(-3.203692, 13.512617)"/>
                            <path fill="#064075" fill-rule="nonzero" d="M16.52 132.952c19.973-7.483 20.722-20.444 13.165-30.811-7.556-10.367 2.456-20.876 2.456-20.876 22.411-30.28-10.453-37.296-10.453-37.296s-10.82-3.2-10.82-13.028c0-4.988-5.492-9.644-10.818-12.944V143.9c2.688-3.508 7.606-7.599 16.47-10.95zM225.691 56.398s-25.166 2.295-31.125 16.553c-5.959 14.258-19.241 28.076-26.024 26.53-6.782-1.547-14.539 26.121-25.882 26.363-16.029.332-19.34-26.239-6.758-49.318 12.584-23.08 45.573-24.8 50.974-51.321C192.793-3.827 225.691.189 225.691.189v17.459s-26.215 3.757-31.774 14.1c-5.56 10.342-.79 16.57-20.348 27.992-19.557 11.424-30.41 21.142-19.973 36.124 5.426 7.782-2.763 4.814 9.304-4.78 12.067-9.595 24.243-29.93 36.942-39.35 7.406-5.612 16.57-8.406 25.85-7.881v12.545z" transform="translate(-3.203692, 13.512617)"/>
                            <path fill="#073A77" fill-rule="nonzero" d="M13.865 115.351c11.834-8.263 0-17.883 0-17.883S5.31 90.102 9.088 73.566C11.052 64.978 5.634 60.48 0 58.078v64.465c3.204-1.372 7.79-2.918 13.865-7.192zM69.732 37.127c3.892 2.014 8.226 3.029 12.608 2.951 7.674 0 13.516-8.072 13.516-8.072s10.877-13.735.416-31.81H50.499c.575 6.851 3.604 27.777 19.233 36.93zM76.365 187.332C81.009 159.273 61.06 169.3 61.06 169.3c-25.174 14.832-25.566 27.652-22.27 41.885 1.664 7.324 1.415 11.822.74 14.474h39.59c-2.38-5.603-6.076-18.282-2.755-38.327zM191.437 179.759s-17.751-11.823-19.557 6.65c-1.349 13.735 15.063 31.244 23.518 39.283h23.17c.416-30.096-27.131-45.933-27.131-45.933z" transform="translate(-3.203692, 13.512617)"/>
                            <g fill-rule="nonzero">
                                <g fill="#A8A6A6" opacity=".31">
                                    <path d="M73.236 5.038c-.778-.456-1.4-1.137-1.781-1.954.183.25.374.49.582.732.38.448.794.865 1.24 1.247M70.34.906c.058.164.124.325.2.482-.049-.049-.102-.093-.159-.133l-.208-.083c-.125-.39-.241-.756-.333-1.105L69.99 0l.35.906M1.947 28.4C.99 29.032.341 29.472 0 29.714c.25-.266.516-.54.832-.832 1.165-1.097 2.647-2.336 4.428-3.733.724-.499 1.606-1.089 2.638-1.762 2.317-1.525 4.497-3.246 6.516-5.146l.899-.707.657-.466c-.06.175-.135.345-.224.507-.24.466-.578.875-.99 1.198-.39.344-.804.658-1.24.94-1.182.814-3.102 2.283-5.76 4.405-2.44 1.896-4.377 3.323-5.809 4.282z" transform="translate(-3.203692, 13.512617) translate(55.924465, 79.635349) translate(4.095664, 4.597539)"/>
                                </g>
                                <path fill="#A8A6A6" d="M7.541 52.128c-.324-1.833-.435-3.696-.333-5.554.123-1.446.325-2.883.608-4.307.241-1.313.45-2.228.599-2.743.091-.208.183-.408.275-.574 1.836-1.751 3.778-3.52 5.825-5.304.486-.412.927-.875 1.315-1.38.083-.125.15-.25.216-.374.292-.166.6-.366.924-.582 2.053-1.347 4.827-3.32 8.322-5.92.643-.431 1.183-.999 1.582-1.662.203-.454.28-.953.224-1.447l.134-.291c.166-.437.226-.907.174-1.372-.11-1.879-.302-3.735-.574-5.57-.008-.171-.033-.341-.075-.507 0-.274-.075-.54-.125-.79-.034-.148-.056-.298-.066-.449l-.458-2.186c-.042-.246-.111-.486-.208-.715-.061-.17-.171-.317-.316-.424-.023-.015-.049-.026-.075-.034-.164-.1-.345-.17-.533-.208h-.066c.458-.183.935-.315 1.423-.39 1.928-.342 3.872-.587 5.825-.732 2.83-.266 4.777-.474 5.826-.632 1.049-.158 2.58-.44 4.627-.831l9.537-1.954c2.971-.615 5.169-1.139 6.608-1.571.882-.266 2.178-.699 3.887-1.297 1.29-.43 2.607-.77 3.945-1.014.199-.044.403-.064.607-.059.12-.098.263-.163.416-.19.255-.039.515.024.724.174.063.063.12.13.175.2.123.215.205.452.241.698.133.623.283 1.588.466 2.876.298 1.825.73 3.626 1.29 5.388.322 1.026.77 2.009 1.332 2.926.91.939 1.978 1.712 3.154 2.286.074-.013.15-.013.225 0 2.709 1.31 5.51 2.422 8.38 3.326 3.137.94 6.134 2.294 8.913 4.024 2.582 1.772 4.646 4.196 5.984 7.025.677 1.51 1.26 3.058 1.748 4.639 3.129 9.977 5.756 19.485 7.88 28.525.2.897.576 1.745 1.108 2.494.245.327.572.585.948.748l5.069 22.905c.03.159.083.313.158.457.06.724.272 1.426.624 2.062.032.02.06.045.083.075l.65 3.1c.798 3.625 1.411 6.674 1.839 9.146-.131.58-.105 1.186.075 1.754.091.324.216.715.374 1.164.58 4.297.738 8.641.474 12.97-.09 2.436-.593 4.84-1.49 7.108-.132.316-.274.615-.432.906l-.175.108c-.498.335-.955.726-1.365 1.164-4.534 4.758-10.088 8.427-16.245 10.733-4.752 1.752-9.597 3.24-14.514 4.456-3.784.854-7.809 1.832-12.075 2.935-4.06 1.048-8.19 1.798-12.359 2.245-2.59.26-5.088.421-7.49.482-.331-.045-.664-.073-.999-.083-3.388-.14-6.766-.466-10.12-.973-1.838-.273-3.66-.645-5.459-1.114-1.436-.57-2.792-1.32-4.036-2.236-2.94-2.156-5.282-5.437-7.024-9.844-.734-1.902-1.356-3.845-1.864-5.82-.05-.232-.53-2.214-1.44-5.944-.195-1.006-.597-1.96-1.182-2.802-.139-.154-.29-.299-.45-.432-.042-.28-.103-.559-.182-.831l-6.309-29.348c-.324-1.563-.649-2.852-.965-3.85.046-.221.074-.446.083-.673-.018-.695-.127-1.386-.324-2.053-.537-2.31-.948-4.647-1.232-7-.375-3.168-.666-5.537-.832-7.109-.613-4.836-1.48-9.637-2.597-14.383-.123-.551-.322-1.083-.59-1.58-.042-.19-.142-.839-.317-1.961z" opacity=".5" transform="translate(-3.203692, 13.512617) translate(55.924465, 79.635349)"/>
                                <path fill="#D4CFCF" d="M1.699 37.263c.69-1.068 1.493-2.057 2.397-2.952.34-.241.99-.682 1.947-1.313 1.443-.954 3.384-2.381 5.826-4.282 2.663-2.128 4.582-3.597 5.759-4.406.43-.282.84-.597 1.223-.94.402-.32.731-.723.965-1.18.09-.163.165-.332.225-.508.358-.29.658-.565.907-.831.627-.555 1.017-1.328 1.09-2.162.007-.344-.033-.688-.116-1.022-.142-.599-.225-.931-.233-.99 0-.83-.058-1.48-.108-1.912-.104-.675-.265-1.34-.483-1.987-.043-.122-.08-.247-.108-.374v-.582c-.026-.228.005-.46.091-.673.046-.093.123-.166.217-.208-.005-.5.242-.968.657-1.247.325-.178.696-.256 1.065-.225l1.182.15c.232.041.465.069.7.083h.066c.193.048.376.13.54.241.045.015.085.04.117.075.145.107.255.255.317.424.096.23.166.47.208.715l.457 2.187c.01.15.033.301.067.449.05.249.091.515.125.79.042.166.067.335.075.507.277 1.84.469 3.696.574 5.57.052.464-.008.935-.175 1.372l-.133.29c.056.494-.022.994-.225 1.447-.398.664-.938 1.231-1.58 1.663-3.496 2.6-6.27 4.573-8.323 5.92-.325.216-.633.415-.924.581-.067.125-.133.25-.216.374-.389.506-.83.968-1.315 1.38-2.053 1.78-3.995 3.548-5.826 5.305-.091.166-.183.366-.274.573-.15.516-.358 1.43-.6 2.744-.282 1.423-.485 2.86-.607 4.307-.103 1.857.009 3.72.333 5.553.174 1.123.274 1.771.316 1.962.269.497.468 1.029.59 1.58 1.109 4.74 1.967 9.536 2.572 14.366.192 1.571.483 3.94.833 7.108.284 2.354.695 4.691 1.231 7 .198.668.307 1.358.325 2.054-.01.227-.037.452-.083.674.316.997.64 2.286.965 3.849l6.308 29.348c.08.272.141.55.183.831.16.133.31.278.45.432.592.86.995 1.834 1.182 2.86.91 3.736 1.39 5.717 1.44 5.945.508 1.974 1.13 3.917 1.864 5.82 1.747 4.406 4.089 7.687 7.023 9.843 1.244.915 2.6 1.667 4.037 2.236 1.798.47 3.62.841 5.46 1.114 3.352.508 6.73.832 10.12.973.333.01.667.038.998.083 2.402-.066 4.899-.227 7.49-.482 4.168-.447 8.299-1.197 12.358-2.245 4.261-1.108 8.287-2.086 12.076-2.934 4.917-1.217 9.762-2.705 14.514-4.457 6.157-2.306 11.711-5.975 16.245-10.733.41-.438.867-.829 1.365-1.164l.175-.108c.158-.29.3-.59.432-.906.896-2.268 1.4-4.672 1.49-7.108.264-4.329.105-8.672-.474-12.97-.158-.449-.283-.831-.375-1.164-.18-.568-.206-1.173-.075-1.754-.427-2.478-1.04-5.526-1.839-9.145l-.65-3.101c-.023-.03-.05-.055-.082-.075-.375-.658-.6-1.39-.658-2.145-.075-.144-.128-.298-.158-.457l-5.068-22.905c-.376-.163-.703-.42-.949-.748-.533-.79-.896-1.682-1.065-2.619-2.12-9.034-4.747-18.543-7.881-28.525-.488-1.58-1.071-3.13-1.748-4.639-1.338-2.829-3.402-5.253-5.984-7.025-2.78-1.73-5.776-3.083-8.913-4.024-2.87-.904-5.671-2.015-8.38-3.325-.075-.013-.15-.013-.225 0-1.176-.574-2.243-1.348-3.154-2.287-.562-.917-1.01-1.9-1.332-2.926-.56-1.762-.992-3.563-1.29-5.387-.183-1.29-.333-2.254-.466-2.877-.036-.246-.118-.483-.241-.698-.054-.07-.113-.137-.175-.2.122-.372.445-.642.832-.698.044-.009.09-.009.134 0h.19c.217 0 .427.07.6.2l.35-.2c.301-.151.616-.274.94-.366l.416-.05c.154.008.306.042.45.1.08.007.157.023.233.05.282 1.015.62 2.015 1.015 2.993.056.467.153.93.291 1.38.092.349.208.715.333 1.105l.208.084c.057.039.11.084.158.133.302.33.539.713.7 1.13.083.225.174.433.257.632.382.817 1.003 1.498 1.781 1.954.673.294 1.385.488 2.114.574l5.376.83c7.524 1.896 13.152 5.203 16.886 9.92 1.23 1.595 2.29 3.314 3.163 5.129.69 1.397 1.464 3.267 2.347 5.587 3.423 9 6.987 20.405 10.694 34.211 3.983 14.932 7.498 29.542 10.544 43.83.906 3.822 1.464 7.718 1.664 11.64.163 3.03-.29 6.062-1.331 8.912l-.4.441c-.414.723-.884 1.412-1.406 2.062-.54.706-1.147 1.358-1.814 1.945-.317.283-1.282.984-2.896 2.104-2.67 2.061-4.728 3.547-6.176 4.456-1.82 1.23-3.855 2.108-6 2.585-2.02.987-4.15 1.91-6.391 2.769-5.903 2.145-11.948 3.873-18.093 5.171-5.193 1.164-11.08 2.322-17.66 3.475-4.21.732-7.593 1.253-10.145 1.563-3.388.432-6.803.627-10.22.582-7.628-.083-14.22-1.63-19.773-4.639-.485-.261-.95-.559-1.39-.89-.852-.56-1.599-1.266-2.205-2.086-3.532-4.384-5.86-9.61-6.758-15.165-.137-.707-.157-1.431-.058-2.145-.007-.024-.007-.05 0-.074-2.43-7.945-4.307-16.048-5.618-24.252-.16-.146-.295-.317-.4-.507-.315-.707-.507-1.464-.565-2.236-.888-6.784-2.275-14.943-4.161-24.476-.924-4.556-1.748-8.63-2.447-12.23-.226-.244-.41-.525-.541-.831-.168-.475-.301-.961-.4-1.455-.116-.674-.208-1.172-.282-1.505-.178-.803-.397-1.597-.658-2.378-.225-.781-.408-1.396-.55-1.854-.274-1.33-.507-2.494-.69-3.483-.116-.649-.225-1.389-.333-2.212-.26-2.217-.435-3.738-.524-4.564-.135-1.512-.18-3.03-.133-4.548.058-1.188.166-2.303.316-3.325-.01-1.071.084-2.14.283-3.193.301-.708.663-1.39 1.082-2.036z" transform="translate(-3.203692, 13.512617) translate(55.924465, 79.635349)"/>
                            </g>
                            <g fill-rule="nonzero">
                                <g fill="#000" opacity=".15">
                                    <path d="M71.771.257c.115-.11.26-.186.416-.216.137-.055.288-.055.425 0 .02-.01.045-.01.066 0l-.907.19M1.664 14.84L0 15.18v-.175c.106-.315.367-.554.69-.631.118-.034.242-.034.359 0 .058-.25.124-.483.183-.69.084.052.165.11.241.174.09.137.145.294.158.457-.006.15-.03.298-.075.441.012.05.057.085.108.083z" transform="translate(-3.203692, 13.512617) translate(64.056424, 59.044763) translate(0.000000, 3.223987)"/>
                                </g>
                                <path fill="#AAA9A9" d="M67.136 4.478l.083.4c.008.085.008.171 0 .257.35.516.333.54-.05.075l-.275-.366c-.258-.316-.241-.457 0-.432l.242.066z" transform="translate(-3.203692, 13.512617) translate(64.056424, 59.044763)"/>
                                <path fill="#878585" d="M5.676 17.232c.13-.508.423-.96.832-1.289.604-.416 1.266-.74 1.964-.964l3.445-1.172 1.548-.458c6.725-1.945 11.702-3.284 14.93-4.015 3.446-.804 7.33-1.69 11.652-2.66L50.39 4.81c7.213-1.258 11.577-1.937 13.091-2.037.843-.043 1.676.2 2.364.69.444.29.862.618 1.248.981h-.133c-.283 0-.3.117 0 .432l.275.366c-.037.294-.133.577-.283.832-.408.576-.992 1.005-1.665 1.222-.508.234-1.056.37-1.614.399-.208.092-.422.17-.641.233-5.371 1.954-10.851 3.598-16.412 4.921-1.903.46-4.76 1.087-8.572 1.88l-9.986 2.078c-3.928.82-6.886 1.374-8.872 1.663-2.97.504-5.975.782-8.988.83-1.664 0-2.688-.39-3.038-1.23-.138-.378-.138-.793 0-1.172l-1.49.333z" opacity=".31" transform="translate(-3.203692, 13.512617) translate(64.056424, 59.044763)"/>
                                <path fill="#D4CFCF" d="M1.69 17.564c-.014-.163-.068-.32-.159-.457.362-.8.832-1.548 1.398-2.22.688-.881 5.008-2.605 12.958-5.17 5.93-2.026 11.957-3.752 18.06-5.172 4.077-.848 6.926-1.364 8.546-1.546 1.249-.15 3.163-.308 5.718-.474 1.24-.142 3.87-.64 7.906-1.48C58.733.449 61.4.103 64.081.014c1.58-.075 3.158.151 4.653.665 1.391.483 2.598 1.387 3.453 2.586-.156.03-.3.105-.416.216l-4.644.964c-.386-.363-.803-.692-1.248-.98-.687-.49-1.52-.734-2.364-.69-1.53.099-5.894.778-13.09 2.036L40.08 6.673c-4.339.965-8.222 1.851-11.651 2.66-3.23.732-8.206 2.07-14.93 4.016l-1.548.458-3.446 1.172c-.692.225-1.348.55-1.947.964-.41.329-.702.78-.832 1.289l-4.012.831c-.023-.012-.04-.033-.05-.058.028-.145.036-.293.025-.44z" transform="translate(-3.203692, 13.512617) translate(64.056424, 59.044763)"/>
                            </g>
                            <g>
                                <path fill="#434141" fill-rule="nonzero" d="M3.038 13.41c1.786-1.048 6.067-2.491 12.841-4.331 6.164-1.696 10.63-2.866 13.399-3.509l9.246-1.954.69-.15c2.708-.515 7.532-1.269 14.473-2.26C60.627.212 65.13-.167 67.194.065c2.056.25 3.454.973 4.161 2.17.318.565.596 1.151.832 1.754l-1.939.4c-.39-1.555-1.739-2.37-4.053-2.495-2.313-.124-11.243 1.223-27.23 3.858-1.307.208-2.613.44-3.911.715-1.792.388-3.568.812-5.327 1.272-14.786 3.752-23.141 6.088-25.066 7.009-2.08 1.006-2.996 2.294-2.73 3.874l-1.914.399c-.035-.65-.016-1.3.058-1.946.192-1.396 1.199-2.618 2.963-3.666z" transform="translate(-3.203692, 13.512617) translate(64.347489, 58.052840)"/>
                            </g>
                            <g fill-rule="nonzero">
                                <path fill="#2D7013" d="M4.694 114.722c.599-.349.94-.548 1.015-.607.425-.338.807-.726 1.14-1.155.433-.607.766-1.064.99-1.347.6-.947 1.605-1.562 2.722-1.663h.882c.37-.173.687-.443.916-.781.471-.585 1.01-1.113 1.606-1.572.283-.216.715-.523 1.306-.93.449-.31.845-.689 1.174-1.123.225-.296.41-.62.55-.965.19-.457.332-.83.415-1.006.217-.432.574-1.072 1.074-1.92.382-.627.727-1.277 1.032-1.945.34-.816.636-1.648.89-2.495.255-.83.592-1.631 1.007-2.394.391-.715.832-1.023 1.307-.931.416.065.731.411.757.831.082.387.082.786 0 1.173-.144 1.108-.277 1.94-.4 2.494-.181.808-.484 1.585-.898 2.303-.555.826-1.182 1.602-1.873 2.32-.761.903-1.4 1.904-1.897 2.975l-.483.982c-.15.34-.362.65-.624.914-.336.336-.724.617-1.148.831-.412.21-.81.447-1.19.707-.639.575-1.199 1.232-1.665 1.954-.51.73-1.389 1.112-2.272.99-.267-.091-.551-.122-.832-.092-.176.08-.321.214-.416.382-1.185 1.55-2.532 2.97-4.02 4.232-.832.723-1.515.94-1.997.648-.324-.204-.502-.576-.458-.956-.001-.397.154-.78.433-1.064.27-.317.594-.584.957-.79z" transform="translate(-3.203692, 13.512617) translate(128.770306, 85.854082)"/>
                                <path fill="#000" d="M1.049.108C.733.365.379.573 0 .723L1.049.108z" opacity=".15" transform="translate(-3.203692, 13.512617) translate(128.770306, 85.854082)"/>
                            </g>
                            <g fill-rule="nonzero">
                                <path fill="#5F9825" d="M64.28 31.19c-.075-.042-.142-.095-.2-.158-.044.063-.098.12-.159.166.12.013.24.013.358 0m8.838-2.327c-.06-.012-.119-.032-.174-.059-.084.1-.158.2-.233.308l.94-.524c-.158.092-.333.183-.533.275M.273 26.435v.956c0 .366.224.98.333 1.463.024.093.043.188.058.283.091.424.183.831.291 1.222-.046.14-.046.292 0 .432.012-.02.03-.038.05-.05.024-.012.051-.012.075 0 0 0 .042 0 .075.05.028.02.046.05.05.083V31c.15.316.316.632.49.948.057.134.127.262.209.382.336.52.703 1.02 1.098 1.497.01.024.027.045.05.058.243.329.567.59.94.756.302.07.615.07.916 0l.832-.174c.22-.056.447-.08.675-.075.297-.004.588.086.832.258v.05c.07.055.129.123.175.2.527.202 1.066.374 1.614.515h.058c.647.175 1.242.5 1.74.947.108.108.715.774 1.822 2.004 1.29 1.189 2.43 1.663 3.404 1.447 1.156-.204 2.277-.57 3.329-1.09.105.133.228.25.366.35.485.32 1.114.32 1.598 0 .058 0 .291-.216.699-.54.095-.111.21-.202.341-.267.221-.08.45-.139.683-.174.063-.015.125-.037.183-.067.488.25 1.001.449 1.531.59.536.065 1.076.084 1.615.059.066.012.133.012.2 0 .39 0 .757 0 1.098-.067.23.215.52.357.832.407.541.066 1.09-.014 1.59-.232.165-.082.348-.119.532-.108l.325.124c.31.15.672.15.982 0 .332-.108.601-.353.74-.673.041-.078.07-.162.084-.25l.358-.166c.746-.478 1.567-.826 2.43-1.03.724-.051 1.45.054 2.13.307.71.236 1.436.422 2.172.557 1.101.075 2.205-.086 3.238-.474 1.055-.353 2.134-.631 3.229-.831.83-.085 1.666-.085 2.496 0 .83.077 1.664.11 2.497.1.365-.01.729-.041 1.09-.092.89-.129 1.767-.335 2.622-.615.3-.106.632-.239.998-.4.491-.19 1.05-.423 1.665-.706.034-.008.066-.025.091-.05-.075-.018-.148-.046-.216-.083-.158-.09-.288-.222-.374-.382.287-.055.566-.144.832-.266 0 .091.075.166.108.24.033.075-.083.358-.316.491h.141c.14-.057.29-.088.441-.091h.325c.105-.028.206-.07.3-.125.434-.272.817-.618 1.131-1.023.342-.432.662-.881.957-1.346-.136-.155-.307-.274-.499-.35l.3-.158c.431-.222.899-.366 1.381-.424.789-.115 1.584-.181 2.38-.2l.924.042.3-.29c.551-.4 1.06-.857 1.514-1.364.099-.117.183-.245.25-.382-.026.063-.056.124-.092.182l.325-.166 1.182-.598c.4-.199.777-.442 1.123-.724.204-.165.362-.38.458-.623l.416-.05c.167 0 .325-.05.474-.067.042-.107.098-.207.167-.299.14-.16.299-.303.474-.424l.541-.374c.326-.351.606-.742.832-1.164.234-.431.575-.795.99-1.056.381-.162.796-.225 1.208-.183l1.256.067c.215-.001.43-.024.641-.067-.003-.377-.07-.75-.2-1.106-.183-.313-.347-.638-.49-.972-.284-.636-.256-1.367.074-1.979.335-.604.88-1.065 1.531-1.297l.833-.3c.287-.087.566-.2.832-.34l.54-.374 1.932-1.571c-.263-.513-.381-1.088-.342-1.663.039-.597.24-1.172.583-1.663.132-.218.225-.457.275-.707 0-.133-.167-.332-.491-.615-.393-.386-.71-.843-.933-1.347-.449-.881-.699-1.38-.765-1.471-.435-.553-.83-1.137-1.182-1.746L74.091 4.76c-.685-.195-1.383-.342-2.089-.441-1.183-.106-2.374-.09-3.553.05.062-.135.062-.29 0-.424-.091-.126-.215-.224-.358-.283-.273-.07-.56-.07-.832 0l-.833.175c-.015-.063-.038-.125-.066-.183-.172-.36-.284-.744-.333-1.14.007-.07.024-.14.05-.207-.783 0-1.448.1-1.99.183h-.066c-.334-.164-.69-.279-1.057-.341-.282-.023-.565.014-.832.108-.111-.167-.275-.293-.466-.357-.242-.101-.51-.125-.766-.067-.347.078-.663.257-.907.516-.191-.02-.382.044-.524.174-.159-.058-.333-.058-.491 0h-.058c-.11.013-.214.056-.3.125-.183.124-.308.315-.35.532-.505-.216-1.041-.348-1.589-.39-1.033-.055-2.067.06-3.063.34-2.014.424-3.503.748-4.477.998-1.087.322-2.201.542-3.329.657-.661.02-1.323-.006-1.98-.075L41.8 4.544c-2.207-.1-4.406.325-6.417 1.24h.325-.092c-.5.095-.986.252-1.448.465l-.133-.042h-.1c-.396.006-.782.13-1.107.358-.483.282-.94.608-1.364.972-.413.159-.787.403-1.099.715-.133.117-.266.225-.391.316l-.083-.083c.008-.033.008-.067 0-.1-.023-.225-.149-.428-.342-.548-.208-.133-.452-.197-.699-.183-.224-.001-.447.024-.665.075-.508.138-1.04.16-1.557.066-.23-.015-.46-.015-.69 0L23.99 9.458c-.148.194-.335.356-.55.474-.14.06-.296.08-.449.058-.495.276-1.02.497-1.564.657-.194.204-.422.373-.674.499-.692-.03-1.381.1-2.014.382-.036.007-.073.007-.108 0-.32.129-.628.282-.924.457-.406.317-.84.595-1.298.832l-.184.074-.083.05c-.24.093-.492.154-.749.183h-.166c-.233.216-.574.482-1.007.832l-.832.557c-.257.215-.536.401-.833.557-.257.154-.538.267-.832.332-.169.017-.339-.003-.5-.058l-.257.35c-.228.26-.513.465-.832.598-.053.008-.106.008-.159 0-.079-.009-.157-.026-.233-.05H9.61v.075c-.208 0-.466.05-.774.066-1.12.188-2.162.7-2.996 1.472-1.505 1.241-2.897 2.613-4.16 4.099-.54.56-1.006 1.186-1.39 1.862-.233.414-.33.891-.275 1.363.021.119.067.232.133.333v.366c.007.11.007.221 0 .332l.175.225m79.569-12.696c.004.064.004.128 0 .192-.02.012-.046.012-.067 0 .003-.014.003-.028 0-.042.01-.05.016-.1.017-.15h.05z" transform="translate(-3.203692, 13.512617) translate(76.416924, 167.191369)"/>
                                <path fill="#2D7013" d="M65.769 30.974l-.924-.042c-.797.018-1.592.085-2.38.2-.482.058-.95.201-1.382.424l-.3.158c.193.075.364.195.5.35.07-.079.128-.165.175-.259l.216.084c.442.106.906.056 1.315-.142.339-.11.647-.298.899-.549.061-.046.114-.103.158-.166.058.063.126.116.2.158.094.068.202.114.316.133.283.043.572.003.832-.116l.175-.075.333-.133c-.055.008-.111.008-.166 0m-6.875 3.583h-.324c-.152.004-.3.035-.441.092.258.048.525.016.765-.092m-.732-.698c-.266.122-.545.211-.832.266.086.16.216.292.374.382.068.037.141.065.217.083.233-.133.34-.299.316-.49-.025-.191.025-.175-.008-.266l-.067.025z" transform="translate(-3.203692, 13.512617) translate(76.416924, 167.191369)"/>
                                <path fill="#4F3623" d="M57.147 35.912l-.058.042c-.455.28-.927.53-1.415.748h-.058c-1.59.657-3.754.773-6.508.341-.496-.08-.996-.13-1.498-.15-.222-.014-.444-.014-.666 0-.425.043-.845.12-1.257.233-.64.175-1.032.283-1.182.308-1.036.059-2.064.217-3.07.474l-.833.266c-.249.073-.506.115-.765.124-.53-.052-1.045-.199-1.523-.432-.73-.373-1.546-.543-2.364-.49-.448.083-.878.249-1.265.49-.175.117-.333.233-.49.324-.25.158-.442.291-.575.383h-.067c-.617.342-1.282.591-1.972.74-.491.124-1.24.258-2.239.399l-2.064.3c-.678.118-1.366.174-2.055.165-.216-.016-.43-.047-.641-.091-.05 0-.075-.017-.075-.05h-.066c-.622-.34-1.264-.643-1.923-.906h-.066c-1.034.22-2.041.548-3.005.98-.604.289-1.23.528-1.872.716-.603.107-1.212.179-1.823.216-.732.067-1.19.1-1.39.1h-.066c-.613-.652-1.275-1.255-1.981-1.804-.513-.32-1.005-.673-1.473-1.056v-.058c-.799-1.109-1.481-1.707-2.047-1.796-.563-.052-1.12-.155-1.665-.308h-.075c-.004-.016-.004-.033 0-.05-.09-.226-.243-.423-.44-.565h-.042c-.208-.094-.448-.078-.641.042-.576.189-1.185.26-1.79.207h-.066c-.621-.211-1.164-.605-1.556-1.13-.194-.211-.372-.436-.533-.674-.091-.108-.166-.216-.233-.307-.067-.092 0-.067 0-.092-.238-.325-.434-.68-.583-1.056.117.722.29 1.434.516 2.129l.15.424c.092.24.225.673.4 1.288.1.375.191.699.266.965.043.208.098.414.166.615l.516 2.345c.658 3.026 1.24 5.736 1.765 8.13 1.137 2 2.41 3.92 3.811 5.745.494.687 1.034 1.34 1.615 1.954l.666.516c2.168 1.714 4.689 2.93 7.382 3.558 1.486.312 2.994.512 4.51.598 4.957.337 9.932.337 14.889 0 .464-.245.942-.464 1.431-.656.636-.301 1.296-.549 1.973-.74.67-.194 1.374-.24 2.063-.133.328-.521.8-.937 1.357-1.198.535-.287 1.156-.37 1.748-.232l.923.166c.127.022.257.022.383 0l.641-.723v-.2c.003-.28.042-.56.117-.831.22-.529.75-.862 1.323-.832h.582l.833-.698c-.464-.258-.871-.606-1.199-1.023l-.175-.224c-.246-.198-.445-.448-.582-.732-.265-.512-.33-1.105-.183-1.662.058-.125.133-.283.233-.466v-.108l.283-.516c.24-.348.52-.669.832-.956.336-.24.706-.428 1.099-.557l.274-.091c.949-.362 1.984-.428 2.971-.191.337.062.655.198.932.399.273.19.496.444.65.74.32.33.566.723.723 1.155.074.214.11.44.109.665.832-.29 1.664-.573 2.58-.831l.832-.233c-.288-.549-.436-1.16-.433-1.779-.01-.323.044-.645.158-.948.2-.394.485-.74.832-1.014.28-.245.606-.435.957-.557.45-.117.924-.09 1.357.075.194.056.38.14.55.25.78-1.963 1.796-3.822 3.029-5.538.205-.255.379-.534.516-.831.025-.123.042-.249.05-.374.032-.131.032-.268 0-.4-.034-.06-.125-.193-.275-.398-.292-.35-.464-.784-.491-1.24-.056-.445.035-.897.258-1.288-.224-.183-.467-.342-.724-.474-.265-.108-.495-.286-.666-.515-.044-.194-.126-.378-.241-.54-.148-.146-.327-.254-.525-.316-.212-.034-.421-.087-.624-.158-.177-.139-.386-.23-.607-.266-.255.043-.503.115-.741.216-.467.191-1.004.068-1.34-.308l-.125-.141c-.059.142-.131.279-.216.407-.025.004-.046.02-.058.042-.245.266-.546.473-.883.607-.754.249-1.309.44-1.664.573-.532.222-1.046.484-1.54.782M41.318 53.804c.228.733.105 1.53-.333 2.161-.381.524-.921.912-1.54 1.106-.485.197-1.016.251-1.53.158-.621-.117-1.163-.491-1.49-1.03-.393-.512-.564-1.159-.475-1.797.033-.439.195-.858.466-1.205.44-.615 1.103-1.036 1.848-1.172.641-.17 1.323-.078 1.896.256.574.334.99.882 1.158 1.523z" transform="translate(-3.203692, 13.512617) translate(76.416924, 167.191369)"/>
                                <path fill="#412A19" d="M41.043 55.957c.439-.63.561-1.428.333-2.162-.168-.64-.584-1.188-1.157-1.522-.573-.334-1.256-.426-1.897-.257-.745.137-1.407.557-1.847 1.173-.272.347-.434.766-.467 1.205-.089.638.082 1.285.475 1.796.327.54.869.914 1.49 1.03.515.094 1.046.04 1.53-.157.62-.195 1.159-.582 1.54-1.106m45.432-30.17c-.163.214-.353.407-.566.573-.02-.007-.04-.007-.059 0-.337.237-.7.435-1.081.59-1.561.522-3.198.783-4.844.773-1.683.007-3.36.213-4.993.616h-.059c-.22.053-.413.186-.54.374-.656.61-1.36 1.167-2.106 1.662-.557.376-1.093.78-1.606 1.214h-.1l-7.573.4c-.371-.031-.738.092-1.016.34-.127.265-.222.544-.283.832l.125.14c.336.377.873.5 1.34.308.238-.1.486-.173.74-.216.222.037.431.128.608.266.203.072.412.125.624.158.198.063.377.171.525.316.115.163.197.346.241.54.171.23.401.408.666.516.257.132.5.29.724.474-.223.39-.314.843-.258 1.289.027.454.199.889.49 1.238.15.211.242.344.276.4.032.13.032.267 0 .399-.008.125-.024.25-.05.374-.137.297-.31.576-.516.831-1.232 1.715-2.25 3.575-3.03 5.537-.17-.11-.355-.194-.549-.25-.433-.165-.907-.19-1.356-.074-.352.122-.677.311-.958.557-.347.274-.631.62-.832 1.014-.113.303-.167.625-.158.948-.003.62.146 1.23.433 1.779l-.832.233c-.907.25-1.765.532-2.58.831.002-.226-.035-.45-.108-.665-.158-.432-.404-.826-.724-1.156-.154-.295-.377-.549-.65-.74-.277-.2-.595-.336-.932-.399-.987-.236-2.022-.17-2.97.192l-.275.091c-.393.13-.763.317-1.099.557-.312.287-.591.608-.832.956l-.283.516v.108c-.1.183-.175.34-.233.465-.147.558-.082 1.15.183 1.663.137.284.336.534.583.732l.174.224c.328.417.735.764 1.199 1.023l-.833.698h-.582c-.573-.03-1.102.303-1.323.832-.075.27-.114.55-.117.831v.2l-.64.723c-.127.022-.257.022-.383 0l-.924-.166c-.592-.138-1.213-.055-1.748.232-.558.261-1.028.677-1.356 1.197-.69-.105-1.394-.06-2.064.134-.677.191-1.337.439-1.973.74-.489.192-.967.41-1.431.656.074.013.15.013.225 0l5.276-.44h.191l2.14-.25c.632-.075 1.264-.166 1.88-.258l.982-.14h.225c1.914-.284 3.836-.608 5.825-.974 3.546-.67 7.152-1.485 10.82-2.444h.124l.408-.083 2.904-.831c.217.097.466.097.683 0l.241-.117.283-.224c.832-.233 1.664-.482 2.497-.74 3.5-1.064 6.522-2.11 9.063-3.134 1.42-.555 2.776-1.162 4.07-1.821.305-.119.602-.258.89-.416 3.72-1.935 7.165-4.356 10.244-7.2.776-.691 1.446-1.492 1.99-2.377.369-.798.648-1.635.832-2.495.333-1.213.589-2.445.765-3.69.195-1.23.178-2.485-.05-3.709-.374-1.28-.632-2.236-.765-2.885-.045-.23-.103-.458-.175-.681-.1-1.156-.275-2.495-.541-4.008-.375-2.32-.766-4.58-1.157-6.784-.019-.086-.047-.17-.083-.25l-.067-.34c-.019-.107-.053-.21-.1-.308l-.15.225c-.498.817-.897 1.69-1.19 2.602-.108.324-.2.648-.29.973-.064.2-.109.406-.134.615-.085.435-.24.853-.458 1.239-.045.079-.108.147-.183.2v.04c-.277.125-.578.188-.882.184-.35.012-.7.062-1.04.15-.34.117-.648.314-.899.573-.013.023-.033.04-.058.05-.366.332-.591.532-.69.598-.117.067-.25.142-.409.217-.333.108-.749.232-1.273.357-.095.02-.187.051-.275.092-.54.095-1.043.337-1.456.698-.202.164-.359.375-.458.615-.126.227-.23.467-.308.715V24c-.16.43-.346.849-.557 1.255v.075s-.4.432-.416.457z" transform="translate(-3.203692, 13.512617) translate(76.416924, 167.191369)"/>
                                <path fill="#392D24" d="M64.421 39.429L64.462 39.429 64.462 39.429z" transform="translate(-3.203692, 13.512617) translate(76.416924, 167.191369)"/>
                                <path fill="#71AF33" d="M35.592 5.783h.092-.325l-.241.083-1.049.316h-.058l.133.042c.463-.205.95-.353 1.448-.44z" transform="translate(-3.203692, 13.512617) translate(76.416924, 167.191369)"/>
                                <path fill="#508718" d="M79.85 13.93c.004-.063.004-.127 0-.19.004.044.004.088 0 .133.003.013.003.027 0 .041v.017z" transform="translate(-3.203692, 13.512617) translate(76.416924, 167.191369)"/>
                                <path fill="#4D8315" d="M95.321 5.45c.065-.134.112-.277.142-.423.063-.358.063-.724 0-1.081-.18-.617-.302-1.249-.366-1.887.009-.386-.027-.77-.109-1.148-.15-.499-.424-.731-.832-.715-.26.026-.489.187-.6.424-.476-.128-.972-.17-1.464-.124-.746.068-1.488.18-2.222.332-.574.125-.999.2-1.265.233h-.108c-.03-.007-.061-.007-.092 0l-.058.041c-.398-.025-.79-.11-1.165-.249l-1.14-.449c-1.339-.47-2.788-.532-4.161-.174h-.158c-.147.036-.29.09-.425.157-.025.025-.057.042-.091.05-.406.165-.831.277-1.265.333-.387-.07-.768-.167-1.14-.291-.715-.175-1.457-.198-2.18-.067-.459.075-1.2.25-2.215.524-1.015.275-1.739.49-2.255.607-.899.191-1.814.35-2.755.474h-.149c-.425.058-.833.108-1.282.141-.183-.296-.487-.497-.832-.548-.267-.034-.535.044-.741.216-.156.117-.272.28-.333.465-.025.067-.042.137-.05.208.049.395.161.78.333 1.14.029.058.05.119.067.182l.832-.174c.273-.07.56-.07.832 0 .143.059.267.157.358.282.062.135.062.29 0 .424 1.18-.139 2.37-.156 3.554-.05.705.1 1.403.247 2.088.44l5.95 1.547c.352.61.747 1.193 1.183 1.746.066.092.316.59.765 1.472.224.503.54.96.932 1.347.325.282.483.482.491.615-.05.25-.142.489-.274.706-.343.491-.544 1.066-.583 1.663-.04.575.078 1.15.341 1.663l-1.93 1.571-.541.374c-.266.14-.545.254-.833.341l-.832.3c-.651.231-1.196.692-1.531 1.297-.33.612-.358 1.343-.075 1.978.143.334.307.66.491.973.129.355.196.728.2 1.106-.211.043-.426.065-.641.066l-1.257-.066c-.41-.042-.826.02-1.206.183-.416.26-.757.624-.99 1.055-.228.422-.507.813-.833 1.164l-.54.375c-.176.12-.336.263-.475.424-.07.091-.125.192-.167.299-.15 0-.308 0-.474.066l-.416.05c-.096.244-.254.459-.458.624-.346.282-.723.525-1.123.723l-1.182.599-.325.166c.036-.058.066-.12.092-.183-.068.137-.151.266-.25.382-.455.507-.963.964-1.515 1.364l-.3.29c.056.009.112.009.167 0l-.333.134c.152-.005.302-.024.45-.058h.649c.03.01.062.01.092 0h.066c.379.003.757-.022 1.132-.075h.674c.06.008.122.008.183 0 .089 0 .176-.017.258-.05.27.003.537-.063.774-.191.66-.325 1.29-.709 1.88-1.148.292-.14.608-.307.95-.49.075-.108.15-.208.233-.308.055.027.114.047.174.059.2-.092.375-.183.533-.275l1.157-.565c.671-.296 1.36-.549 2.064-.757.191-.05.383-.116.582-.183l.591-.124 1.007-.208.375-.075c.047.049.1.09.158.125.391.25.932.158 1.664-.275l.2-.141c.54-.066 1.082-.141 1.615-.241.27-.019.535-.095.773-.225.423-.1.829-.26 1.207-.473.838-.614 1.567-1.365 2.156-2.22.56-.863 1.302-1.595 2.172-2.145.254-.125.516-.236.782-.333.253-.102.5-.219.74-.349.56-.213.903-.778.833-1.372.246.215.58.3.899.233.201-.015.398-.066.582-.15.137.142.32.23.516.25.228.06.47.02.666-.108.263-.178.432-.465.458-.782v-.507c-.03-.223-.154-.423-.341-.549.014-.062.034-.123.058-.182.1-.267.183-.533.258-.832.354.336.826.521 1.315.516.292-.912.691-1.785 1.19-2.603l.15-.224v-.092l-.1-.307c.073-.518.03-1.047-.125-1.547.05-.076.086-.16.108-.249.093-.27.093-.562 0-.831-.018-.095-.045-.186-.083-.275-.073-.307-.3-.556-.6-.656L95.322 5.45z" transform="translate(-3.203692, 13.512617) translate(76.416924, 167.191369)"/>
                            </g>
                            <g>
                                <path fill="#296213" fill-rule="nonzero" d="M95.73 1.926c-.419-.68-1.227-1.015-2.005-.831-2.022.332-3.096.29-3.229-.117.003-.141-.038-.28-.116-.399-.106-.105-.422-.105-.949 0-.6.15-1.09.258-1.465.341-.463.133-.941.208-1.423.225-.826-.115-1.624-.38-2.355-.782-.426-.283-.94-.407-1.448-.35-.632.106-1.229.363-1.74.75-.294.268-.648.464-1.031.573C78.612.978 77.207.84 75.807.928c-.452.143-.87.375-1.231.682-.51.373-1.095.629-1.715.748-.154.044-.314.067-.474.067-.408-.2-.757-.358-1.04-.474-.37-.19-.785-.274-1.199-.241-.428.094-.862.163-1.298.208-.341 0-.924.116-1.748.266-.658.06-1.321.031-1.972-.083-.562-.11-1.133-.166-1.706-.167-.54.164-1.067.36-1.581.59-.511.231-1.037.428-1.573.59-.94.052-1.882.052-2.821 0H54.61l-2.43.766c-1.175.57-2.38 1.073-3.612 1.505-1.237.115-2.484.054-3.704-.183-1.428-.276-2.88-.41-4.336-.4-.449.136-.883.314-1.298.533-.418.202-.852.369-1.298.499-.486.054-.976.068-1.465.041-.487-.04-.977-.04-1.465 0-.785.295-1.514.723-2.155 1.264-.728.62-1.579 1.078-2.497 1.347-.496.082-1.005.006-1.456-.217-.48-.232-1.023-.305-1.548-.207-.649.107-1.215.501-1.54 1.072-.268.53-.744.924-1.315 1.09h-.74c-.438.03-.86.177-1.224.423-.434.271-.827.605-1.165.99-.193.214-.405.412-.632.59-.553.062-1.109.087-1.665.075-.555-.023-1.111-.006-1.664.05-.888.29-1.636.9-2.097 1.712-.612.93-1.57 1.578-2.663 1.796-.443.007-.885.043-1.324.108-.728.057-1.424.33-1.997.782-.51.387-1.103.654-1.731.781-.625.112-1.222.347-1.756.69-.448.41-.778.933-.957 1.513-.178.579-.615 1.043-1.182 1.256-.569.179-1.088.49-1.515.906-.238.31-.965 1.474-2.18 3.492l.957 3.807c.516-3.159 1.207-5.254 2.056-6.277.386-.373.833-.677 1.323-.897.348-.148.682-.326.999-.533.5-.618.966-1.261 1.398-1.928.162-.297.434-.518.757-.616.142 0 .441-.066.89-.116.238-.005.473-.056.691-.15.391-.199.732-.483.999-.831.16-.222.336-.433.524-.632.709-.127 1.433-.147 2.147-.058.844-.068 1.63-.455 2.197-1.08.75-.832 1.249-1.34 1.507-1.589.337-.38.785-.645 1.281-.756 1.091-.258 2.208-.387 3.33-.383.812-.324 1.555-.8 2.188-1.405.483-.216.988-.378 1.506-.482.457-.081.9-.227 1.315-.432l1.723-1.763c.44.05.87.156 1.282.316.753.197 1.54.223 2.305.075.834-.235 1.597-.672 2.222-1.272.436-.423.916-.8 1.431-1.122.553-.056 1.11-.073 1.665-.05.54.01 1.078-.015 1.614-.075.458-.141.903-.32 1.332-.532.417-.236.858-.429 1.315-.574 1.376-.071 2.755.015 4.111.258 1.387.238 2.799.308 4.203.208.208-.05 1.123-.391 2.763-1.04 1.64-.648 2.546-1.014 2.754-1.055.875-.112 1.762-.09 2.63.066 1.06.139 2.135.114 3.188-.075.469-.142.925-.323 1.365-.54.419-.232.859-.425 1.314-.574.434.08.863.188 1.282.324.508.177 1.045.253 1.581.225.361-.066.711-.18 1.04-.34.34-.012.68.027 1.008.115.323.095.663.124.998.084.375-.089.744-.197 1.107-.325.233-.09.491-.09.724 0 .627.277 1.316.383 1.997.308.059 0 1.09-.499 3.096-1.463.743-.08 1.495.022 2.19.299.717.265 1.485.362 2.246.283.314-.22.614-.46.899-.715.367-.357.799-.64 1.273-.832.042 0 .832.233 2.339.724 1.213.377 2.486.52 3.753.424.344-.096.7-.138 1.057-.125l.433.208c.833.075 1.671.044 2.497-.092.924-.112 1.856.141 2.596.707.282-.16.486-.427.566-.74l-.233-.424z" transform="translate(-3.203692, 13.512617) translate(75.482885, 166.151637)"/>
                            </g>
                            <g>
                                <path fill="#311B09" fill-rule="nonzero" d="M88.67 7.996c-.391.1-.666.183-.832.233-1.348.425-2.425 1.446-2.921 2.768-.129.219-.235.45-.317.69-.011.02-.011.046 0 .067-.081.198-.187.385-.316.557-.403.481-.947.824-1.556.98-.747.24-1.522.38-2.305.416l-2.272.075c-1.211.06-2.416.213-3.604.457-.822.13-1.597.47-2.247.99l-.05.075c-.324.332-.832.831-1.44 1.413-.312.299-.669.548-1.056.74-.042 0-.059 0-.059.05l-.266.158h-.092c-.349.1-.705.174-1.065.224l-6.075.35c-1.298.074-2.122.398-2.497.972 0 .067-.091.258-.183.557v.042c-.052.191-.133.374-.241.54-.027.046-.064.086-.108.116-.22.24-.512.404-.833.466l-.882.183c-.467.147-.906.372-1.298.665-.036.004-.069.022-.092.05l-.715.474c-.333.2-.566.34-.708.407h-.058c-.754.315-1.556.503-2.372.557-.341 0-.69.05-1.032.05-.899.018-1.797-.035-2.688-.158-.474-.075-.89-.133-1.24-.166-.516-.042-.932-.067-1.257-.067-.803.056-1.597.21-2.363.458l-2.705.665c-.693.209-1.415.304-2.139.282-.083 0-.507-.108-1.273-.324-1.147-.443-2.414-.47-3.578-.075h-.092l-1.548.907c-.973.521-2.029.872-3.12 1.039-1.083.171-2.176.269-3.271.29-.066.013-.134.013-.2 0-.558.066-1.12.083-1.681.05-.547-.141-1.075-.348-1.573-.615-.268-.194-.585-.31-.916-.332-.953.176-1.866.522-2.696 1.022h-.067c-1.09.55-2.258.933-3.462 1.14-.973.224-2.114-.258-3.404-1.447-1.106-1.23-1.714-1.896-1.822-2.004-.528-.49-1.173-.84-1.873-1.014h-.058c-.548-.14-1.087-.313-1.614-.516-.046-.076-.105-.144-.175-.2v-.049c-.243-.171-.535-.261-.832-.258-.227-.005-.454.02-.674.075l-.833.175c-.3.07-.614.07-.915 0-.373-.168-.697-.428-.94-.757-.024-.012-.042-.033-.05-.058-.396-.477-.763-.976-1.099-1.497-.082-.12-.152-.248-.208-.382-.175-.316-.341-.632-.491-.948v-.124c-.004-.034-.022-.064-.05-.084-.033-.044-.058-.06-.075-.05-.023-.011-.051-.011-.075 0-.02.013-.038.03-.05.05l-.058.042c-.017.11-.017.222 0 .333.02.32.088.637.2.939.019.106.05.209.091.308.149.375.344.73.583 1.055v.092c0 .042.141.2.233.308.13.222.274.436.433.64.399.48.927.834 1.523 1.022h.066c.587.05 1.178-.014 1.74-.19.193-.12.433-.136.64-.042h.042c.198.142.351.338.441.565-.004.016-.004.033 0 .05h.075c.544.153 1.101.256 1.664.307.555.083 1.238.682 2.048 1.796v.058c.413.395.849.764 1.306 1.106.753.574 1.457 1.208 2.106 1.896h.066c.2 0 .658 0 1.39-.1.611-.037 1.22-.11 1.823-.216.642-.188 1.268-.428 1.872-.715.964-.433 1.971-.762 3.005-.981h.066c.659.263 1.3.565 1.923.906h.066l.075.05c.211.044.426.075.64.091.69.009 1.378-.047 2.056-.166l2.064-.3c1-.14 1.748-.274 2.24-.398.69-.149 1.354-.398 1.971-.74h.067c.133-.092.325-.225.574-.383.158-.091.317-.208.491-.324.388-.241.817-.408 1.265-.49.818-.053 1.635.117 2.364.49.478.233.993.38 1.523.432.26-.01.516-.051.765-.124l.833-.266c1.006-.257 2.034-.415 3.07-.474.15 0 .542-.133 1.182-.308.412-.112.832-.19 1.257-.233.222-.015.444-.015.666 0 .502.02 1.002.07 1.498.15 2.754.432 4.918.316 6.508-.341h.058c.488-.217.96-.467 1.415-.748 0 0 0-.042.058-.042.493-.298 1.008-.56 1.54-.781.344-.133.898-.325 1.664-.574.336-.133.638-.34.882-.607.012-.022.034-.037.059-.041.085-.129.157-.265.216-.408.007-.021.007-.045 0-.066.061-.288.156-.567.283-.832.277-.248.644-.37 1.015-.34l7.573-.4h.1c.513-.433 1.05-.838 1.607-1.213.746-.496 1.45-1.052 2.105-1.663.128-.188.32-.32.541-.374h.058c1.634-.403 3.31-.61 4.994-.616 1.646.01 3.282-.25 4.843-.773.382-.155.745-.353 1.082-.59.019-.007.04-.007.058 0 .213-.166.404-.358.566-.574 0 0 0-.041.058-.041v-.075c.212-.407.398-.826.558-1.255v-.042c.078-.248.181-.488.308-.715.099-.24.256-.451.458-.615.412-.361.916-.603 1.456-.699.088-.04.18-.07.275-.091.524-.125.94-.25 1.273-.357.158-.075.291-.15.408-.217.1-.066.324-.266.69-.598.025-.01.046-.027.059-.05.25-.26.558-.456.899-.574.34-.087.689-.137 1.04-.15.304.004.605-.058.882-.182v-.042c.075-.052.138-.12.183-.2.218-.385.372-.804.458-1.238.025-.209.07-.415.133-.615.092-.325.183-.649.291-.973.282-.925.68-1.81 1.182-2.636l.15-.224c.007-.033.007-.067 0-.1 0 0-.042-.066 0-.091-.133-.433-.25-.832-.366-1.297V.314c-.037-.077-.065-.158-.083-.241V.014c-.034-.019-.075-.019-.109 0-.033.004-.064.022-.083.05-.017.002-.033.012-.043.026-.01.014-.012.033-.007.05 0 .074-.066.165-.108.282-.075.15-.175.316-.283.515-.108.2-.275.516-.45.832l-.05.075c-.653 1.082-1.15 2.252-1.472 3.475-.05.166-.1.34-.15.523v.059c-.07.214-.122.434-.158.656-.015.045-.04.085-.075.117h-.1c-.324-.03-.65-.03-.974 0-.14.005-.277.033-.408.083-.368.064-.717.215-1.015.44-.306.248-.584.527-.832.832-.19.01-.38 0-.566-.033z" transform="translate(-3.203692, 13.512617) translate(77.384023, 179.752439)"/>
                            </g>
                            <g>
                                <path fill="#412A19" fill-rule="nonzero" d="M3.163.725C2.972.411 2.678.173 2.33.052c-.305-.07-.62-.07-.924 0C.983.145.603.376.325.708c-.26.398-.37.876-.308 1.347-.05.497.145.988.524 1.314.29.224.66.32 1.024.266.338.006.672-.08.965-.25.277-.152.505-.38.658-.656.163-.284.252-.604.258-.931.007-.377-.091-.749-.283-1.073z" transform="translate(-3.203692, 13.512617) translate(130.159848, 208.514316)"/>
                            </g>
                            <g opacity=".35">
                                <g fill="#FFF" fill-rule="nonzero">
                                    <path d="M6.109 1.048C6.693.804 7.305.634 7.93.54c.272-.127.55-.26.832-.399.114-.066.238-.114.367-.141.69 1.691 1.49 3.335 2.396 4.922.318.526.665 1.034 1.04 1.521.096.283.207.56.334.832l.183.124.649.416c.511.505 1.068.962 1.664 1.363 1.433.828 2.944 1.513 4.51 2.046l11.17 3.982c1.562.495 3.058 1.182 4.452 2.045.562.455 1.098.94 1.606 1.455.175.208.341.416.49.624 1.14 1.607 2 3.395 2.548 5.287.39 1.264.932 3.184 1.614 5.737l1.473 4.24c.76 2.217 1.845 6.055 3.254 11.514 1.576 6.097 4.1 15.07 7.573 26.92l1.74 5.978c1.459 6.369 2.876 12.85 4.252 19.446.134.973.25 1.929.333 2.868.245.632.456 1.276.633 1.93.274 1.338.549 2.676.832 4.015l.458 3.01c.11.632.188 1.27.233 1.912-.042 1.013-.193 2.02-.45 3-.44 1.899-1.137 3.728-2.072 5.438-.787 1.447-1.967 2.643-3.404 3.45l-.108.092c-.22.204-.428.42-.624.648-2.07-15.619-8.833-42.885-20.29-81.8-2.13-8.114-4.757-13.34-7.88-15.68-2.77-2.115-5.665-4.059-8.673-5.819-2.901-1.64-5.885-3.134-8.938-4.473-3.273-1.452-5.273-2.519-6-3.2-.838-.782-1.687-2.6-2.547-5.454C.807 5.288.275 3.326 0 2.51c.33-.053.648-.162.94-.324h.1c.129-.034.263-.034.391 0l4.678-1.14z" transform="translate(-3.203692, 13.512617) translate(115.205025, 85.837454)"/>
                                </g>
                            </g>
                            <g fill-rule="nonzero">
                                <path fill="#000" d="M10.511 27.851c.364-.376.84-.624 1.357-.706.954-.228 2.027-.419 3.22-.574.716-.108 1.473-.208 2.256-.308.965-.091 2.313-.208 4.053-.349.466-.06.957-.11 1.473-.15 13.11-1.241 26.022-4.058 38.457-8.388.536-.27 1.153-.329 1.73-.166.6.249.974.956 1.133 2.12l.058.282c.404-.007.755.277.832.674.133.523-.2.98-.982 1.388-1.707.843-3.47 1.568-5.276 2.17-15.896 5.443-30.221 8.214-42.976 8.314-1.163.033-2.327-.03-3.48-.191-.427-.057-.833-.22-1.18-.474-.306-.202-.468-.561-.417-.923-.148-.36-.26-.733-.333-1.114-.17-.526-.144-1.097.075-1.605z" opacity=".15" transform="translate(-3.203692, 13.512617) translate(65.346374, 62.118144)"/>
                                <path fill="#D4CFCF" d="M.807 15.065c-.008-.151-.027-.301-.058-.45l3.795-.623c.2.2.45.474.766.832.633.413 1.36.665 2.113.731 1.513.172 3.04.172 4.553 0 1.07-.094 2.577-.296 4.519-.607 1.514-.26 3.218-.562 5.11-.906l26.39-5.096 1.49-.374c4.47-1.125 8.784-2.8 12.84-4.989.772-.412 1.517-.873 2.23-1.38.322-.194.572-.485.716-.831v-.183l4.91-1.023c-.083.366-.174.94-.299 1.73-.222 1.33-1.531 2.79-3.928 4.38-2.397 1.592-6.528 3.224-12.392 4.898-5.881 1.701-12.8 3.303-20.756 4.805-6.508 1.323-13.112 2.118-19.748 2.378-5.193.1-8.3-.158-9.321-.773-.812-.438-1.55-.999-2.19-1.663-.229-.3-.476-.586-.74-.856z" transform="translate(-3.203692, 13.512617) translate(65.346374, 62.118144)"/>
                                <path fill="#A8A6A6" d="M0 14.774l.749-.158c.03.148.05.298.058.449.271.262.527.54.766.831.639.664 1.377 1.225 2.189 1.663 1.015.615 4.122.873 9.32.773 6.637-.26 13.241-1.055 19.75-2.378 7.955-1.496 14.874-3.098 20.755-4.805 5.881-1.707 10.026-3.331 12.433-4.872 2.397-1.585 3.707-3.046 3.929-4.381.124-.832.216-1.364.3-1.73L71.08 0l.525 1.912c.281.953.506 1.922.674 2.902l.083 1.662c0 1.38 0 2.337-.058 2.894-.009.044-.009.089 0 .133-1.23 1.61-2.844 2.887-4.694 3.716-.576.275-1.132.589-1.664.94-.535.343-.976.815-1.282 1.371l-.125.358-11.002 3.5c-1.939.64-3.703 1.205-5.276 1.663-1.315.29-2.672.59-4.07.88-4.21.849-10.12 1.902-17.726 3.16-2.003.333-3.693.61-5.068.831-1.74.142-3.088.258-4.053.35-.783.1-1.54.2-2.256.307-1.19.075-2.305.1-3.329.075-.532-.033-1.065-.033-1.598 0h-.19c-.755-.074-1.503-.202-2.24-.382h-.166c-.774-.075-1.542-.205-2.297-.391-1.046-.352-1.99-.95-2.755-1.746-.71-1.94-1.288-3.926-1.73-5.944L0 14.774z" opacity=".31" transform="translate(-3.203692, 13.512617) translate(65.346374, 62.118144)"/>
                            </g>
                            <g>
                                <path fill="#434141" fill-rule="nonzero" d="M64.231 2.735c-.516.74-2.189 1.663-4.993 2.835C55.206 7.06 51.07 8.25 46.863 9.13c-2.442.554-4.483 1.011-6.126 1.371l-9.254 1.896c-1.354.277-2.915.58-4.685.906-4.212.88-8.486 1.436-12.783 1.663-3.03.091-4.935-.108-5.71-.574-.207-.075-.299-.366-.282-.89 0-.222.02-.445.058-.664.141-.99.042-1.397-.291-1.223-.516.261-.985.604-1.39 1.015-.452.343-.768.835-.89 1.388-.06.274-.06.558 0 .831.443 2.101 3.6 2.969 9.47 2.603 5.703-.52 11.37-1.381 16.97-2.578l9.254-1.895c6.108-1.21 12.136-2.793 18.05-4.739 5.549-2 8.098-4.057 7.649-6.169-.04-.27-.139-.53-.292-.756-.31-.454-.764-.788-1.29-.948-.53-.213-1.093-.337-1.664-.366-.383 0-.308.374.225 1.23.116.189.221.383.316.582.225.474.258.782.091.932m6.026-1.98c.31 1.697.677 3.36 1.098 4.99.46 1.361.385 2.846-.208 4.156-.108.216-.216.424-.333.624-1.664 2.139-6.402 4.508-14.214 7.108-4.583 1.524-9.127 2.807-13.632 3.85l-9.254 1.886c-4.078.704-8.262 1.259-12.55 1.663-8.178.726-13.471.45-15.88-.831l-.548-.44c-1.084-.983-1.759-2.336-1.89-3.792-.233-1.663-.546-3.325-.94-4.988 0-.075 0-.15-.05-.216L0 15.173c.09 1.529.275 3.05.558 4.556.554 2.982 1.326 4.955 2.313 5.92 1.17 1.035 2.571 1.776 4.086 2.16 1.665.483 5.285.7 10.861.65 5.58-.176 11.14-.732 16.644-1.664 1.665-.255 3.33-.532 4.994-.831.302-.014.6-.065.89-.15l3.412-.906c5.911-1.422 11.713-3.264 17.36-5.512 5.133-2.178 8.378-3.821 9.738-4.93 1.234-.945 2.212-2.182 2.846-3.6.566-1.297.49-3.4-.2-6.335-.34-1.505-.783-2.986-1.323-4.431l-1.906.399c.042.116.042.191.042.266z" transform="translate(-3.203692, 13.512617) translate(64.380992, 61.901985)"/>
                            </g>
                            <g>
                                <path fill="#434141" fill-rule="nonzero" d="M112.298 75.68c.158.616.316 1.231.483 1.863 7.54 29.065 10.314 45.524 8.322 49.376-1.14 1.981-2.606 3.758-4.336 5.254-6.264 5.094-17.934 9.788-35.012 14.084-3.012.626-5.836 1.158-8.472 1.596-15.224 2.422-26.137 2.588-32.74.499-2.972-.786-5.657-2.404-7.74-4.664-1.504-1.762-2.733-3.74-3.644-5.87-1.526-3.126-4.505-15.32-8.938-36.58-4.506-20.98-7.238-33.625-8.198-37.937-.96-4.312-1.734-8.857-2.322-13.634-.758-4.51 1.077-9.063 4.752-11.79 1.447-1.279 2.985-2.452 4.602-3.508 6.048-4.03 9.626-6.859 10.736-8.488.511-.84.798-1.795.832-2.777-.075-.549-.283-1.663-.616-3.434-.593-2.926-1.226-5.844-1.897-8.754l-2.006.416c.35 1.973.735 3.982 1.157 6.027 1.215 4.434 1.182 7.352-.1 8.755-1.51 1.406-3.136 2.682-4.86 3.816-1.268.829-2.49 1.725-3.662 2.685-2.222 1.58-4.36 3.118-6.424 4.64-1.913 1.672-3.35 3.82-4.162 6.226-1.07 2.6-.896 6.845.525 12.737 1.265 5.836 2.857 13.685 4.777 23.545 2.507 13.357 4.033 21.2 4.577 23.528.078.443 2.092 9.361 6.042 26.754 2.596 9.245 6 15.214 10.211 17.908 3.512 2.122 8.27 3.552 14.273 4.29 5.914.665 13.87.074 23.868-1.771.458-.083.949-.192 1.473-.3 2.08-.482 4.872-1.075 8.372-1.779l6.492-1.48c9.831-2.355 17.321-5.046 22.47-8.072 5.149-3.027 8.907-6.183 11.277-9.47.565-.831 1.165-3.001 1.797-6.418.633-3.417-2.555-18.773-9.304-46.241-.125-.5-.258-.998-.383-1.489-5.504-21.704-9.046-34.671-10.627-38.9-.342-.94-.708-1.829-1.074-2.652-.7-2.608-2.033-5.003-3.878-6.975-1.168-1.211-2.456-2.3-3.845-3.251-1.61-.885-3.298-1.617-5.043-2.187-2.38-.859-4.261-1.468-5.643-1.829-1.381-.36-2.805-.795-4.27-1.305-1.335-.438-2.637-.975-3.894-1.604-1.149-.566-2.28-2.328-3.396-5.313-.995-2.546-1.763-5.175-2.296-7.857-.084-.54-.167-1.022-.233-1.454-.81.26-1.626.485-2.447.673l.041.224c.682 3.493 1.682 6.916 2.988 10.226.472 1.177 1.058 2.304 1.748 3.368.682.964 2.605 2.028 5.767 3.175 1.606.599 3.27 1.164 4.993 1.663.242.108 1.424.466 3.562 1.09 1.574.453 3.1 1.055 4.561 1.795 3.923 2.062 6.744 5.44 8.464 10.135.482 1.08.957 2.253 1.423 3.533 1.143 3.187 2.655 8.145 4.535 14.873 1.166 4.113 3.29 11.787 6.375 23.021m-1.955-43.58c-1.332-3.206-2.826-6.342-4.478-9.395-.915-1.58-3.09-3.437-6.524-5.57-3.943-2.334-8.311-3.86-12.85-4.49-5.132-.848-8.259-2.932-9.38-6.252-.698-2.771-1.253-4.9-1.664-6.385-.898.407-1.822.773-2.78 1.097.067.516.142.99.234 1.422.887 4.279 2.305 7.308 4.252 9.087 1.848 1.663 4.877 2.807 9.088 3.434 10.353 1.552 17.352 7.449 20.997 17.691 3.64 8.364 8 22.12 13.083 41.27 3.928 14.655 6.647 25.92 8.156 33.796 1.62 8.397 2.524 14.192 2.713 17.384-.644 3.11-2.37 6.452-5.177 10.027-3.329 4.206-9.6 8.017-18.816 11.431-2.27.826-7.593 2.325-15.97 4.498-7.768 1.945-11.849 2.937-12.243 2.976-1.492.266-2.893.557-4.202.873-8.356 1.624-14.9 2.505-19.633 2.644-10.663.233-19.474-1.965-26.431-6.593-2.602-1.724-4.7-5.34-6.292-10.85-.87-2.649-3.334-13.476-7.39-32.482-4.144-18.744-6.888-31.379-8.23-37.902-1.144-6.097-1.762-9.334-1.857-9.71-.282-1.88-.649-3.709-1.081-5.496-.233-1.43-.483-2.877-.741-4.323-.194-1.336-.222-2.69-.083-4.033.048-1.692.328-3.37.832-4.988.793-1.651 1.847-3.164 3.12-4.481.506-.493 1.693-1.447 3.563-2.86.849-.726 2.749-2.112 5.7-4.157 2.952-2.045 4.66-3.209 5.127-3.492 1.05-.657 2.031-1.417 2.93-2.27.935-.98 1.321-2.36 1.031-3.682-.25-1.497-.45-2.736-.616-3.733-.166-.998-.516-2.893-1.165-5.57.084.399-.233.731-.965 1.014-.471.144-.957.236-1.448.274.266 1.586.638 3.153 1.115 4.69.138.438.233.889.283 1.346.176.82.265 1.656.266 2.494-.038.464-.13.921-.274 1.364-.208.473-1.99 1.795-5.36 3.957-1.49 1.09-3.204 2.236-5.143 3.417-2.996 1.791-5.697 4.035-8.006 6.651-.724.742-1.34 1.582-1.83 2.494-.794.934-1.349 2.047-1.615 3.243-.306 1.207-.499 2.44-.575 3.683-.112 1.943-.025 3.893.258 5.82.283 1.986.658 3.957 1.107 5.91.316 1.663.652 3.326 1.007 4.989.358 1.604.7 3.375 1.04 5.304.805 3.691 1.712 7.848 2.722 12.47 2.602 11.873 6.183 28.58 10.744 50.125l-.058.041c.575 1.763 1 3.57 1.273 5.404.61 2.915 1.165 5.224 1.664 6.925 1.665 6.047 4.364 10.207 8.098 12.48 5.482 3.497 12.092 5.5 19.832 6.01 7.418.5 16.703-.268 27.855-2.303 1.473-.349 3.095-.648 4.851-.906 4.794-1.369 9.67-2.71 14.63-4.024 10.354-2.96 17.095-5.257 20.224-6.892 6.824-3.575 12.053-8.04 15.687-13.393 1.699-2.739 2.675-5.862 2.838-9.079-.426-5.697-1.33-11.348-2.704-16.894-1.365-5.592-2.98-12.401-4.844-20.427-1.11-4.5-2.28-9.062-3.512-13.684-2.314-10.555-5.226-20.97-8.722-31.194-1.348-3.974-2.58-7.38-3.695-10.217l.034-.009z" transform="translate(-3.203692, 13.512617) translate(54.138863, 77.473758)"/>
                            </g>
                            <g>
                                <path fill="#FFF" fill-rule="nonzero" d="M5.617 1.147c1.107.05 2.713 0 4.835-.058 1.556-.066 2.555-.125 3.004-.166.658 0 .999.34 1.016.931.016.59-1.016 1.014-2.98 1.405-2.332.374-4.707.405-7.049.091C1.705 3.001.233 2.295.008 1.23-.022.968.039.704.182.482.295.243.51.066.765 0l1.598.582c1.057.322 2.15.512 3.254.565z" transform="translate(-3.203692, 13.512617) translate(69.882820, 78.014156)"/>
                            </g>
                            <g>
                                <path fill="#FFF" fill-rule="nonzero" d="M.416 1.494c-.594 1.158-.552 2.64.125 4.448.266.688.747 1.271 1.373 1.662.582.41 1.305.569 2.006.441 2.158-.449 2.59-2.422 1.298-5.92C4.602.464 3.601-.224 2.214.065 1.43.247.77.772.416 1.494z" transform="translate(-3.203692, 13.512617) translate(67.959599, 120.176149)"/>
                            </g>
                            <g>
                                <path fill="#FFF" fill-rule="nonzero" d="M3.812 18.275c.468.92 1.476 1.434 2.497 1.272 1.664-.341 2.205-2.129 1.664-5.346-.94-5.645-1.415-8.53-1.448-8.655-.38-1.605-1.05-3.127-1.98-4.49C3.914.284 2.927-.107 1.94.027.933.15.275 1.065.059 2.769-.158 4.474.225 7.242 1.19 11c.965 3.758 1.872 6.21 2.621 7.275z" transform="translate(-3.203692, 13.512617) translate(69.140879, 130.407014)"/>
                            </g>
                            <path fill="#FFF" fill-rule="nonzero" d="M125.017 159.914c.35.571.427 1.27.208 1.903-.185.47-.308.962-.366 1.464.023.065.063.122.116.166 5.66 4.6 9.055 6.961 10.187 7.083 1.035.268 2.128-.137 2.738-1.014.522-.597.751-1.396.624-2.178-.226-.803-.804-1.46-1.573-1.788-.843-.465-2.23-1.16-4.161-2.086l-7.357-4c-.058-.024-.125-.024-.183 0-.058.008-.114.025-.166.05-.04.055-.065.117-.075.183-.027.07-.024.149.008.217z" transform="translate(-3.203692, 13.512617)"/>
                            <path fill="#000" fill-rule="nonzero" d="M125.957 158.234c-.457-.108-.732-.083-.832.083-.1.167-.175.3-.191.682-.014.178.03.356.125.507.052-.025.108-.042.166-.05.058-.025.125-.025.183 0l7.357 4c1.947.925 3.334 1.62 4.161 2.086.769.327 1.347.984 1.573 1.787.127.783-.102 1.582-.624 2.179-.61.877-1.703 1.282-2.738 1.014-1.11-.122-4.505-2.483-10.187-7.083-.053-.044-.093-.102-.116-.167-.299.071-.517.327-.541.632 0 .527 2.117 2.42 6.35 5.678 2.58 1.708 4.341 2.592 5.284 2.653 1.14-.021 2.206-.567 2.888-1.48.893-.792 1.366-1.953 1.282-3.143-.047-.78-.3-1.535-.732-2.186-.86-.752-1.842-1.351-2.905-1.771-1.581-.748-3.146-1.513-4.702-2.278l-5.8-3.143z" transform="translate(-3.203692, 13.512617)"/>
                            <path fill="#FFF" fill-rule="nonzero" d="M105.926 165.01c-.027.672.248 1.321.749 1.77.395.315.743.684 1.032 1.098.02.065.02.135 0 .2-2.686 6.778-4.494 10.495-5.426 11.149-.773.741-1.927.92-2.888.448-.745-.264-1.334-.846-1.606-1.587-.194-.815-.01-1.672.499-2.337.51-.814 1.387-2.1 2.63-3.857l4.469-7.075c.03-.06.08-.108.141-.133.055-.01.112-.01.167 0 .06.03.114.072.158.124.054.052.082.125.075.2z" transform="translate(-3.203692, 13.512617)"/>
                            <path fill="#000" fill-rule="nonzero" d="M104.278 164.004c.35-.316.6-.432.766-.333.166.1.3.183.499.5.103.15.152.332.141.515-.055-.01-.11-.01-.166 0-.062.025-.112.073-.142.133l-4.469 7.066c-1.248 1.757-2.125 3.043-2.63 3.858-.509.664-.692 1.522-.499 2.336.273.741.862 1.323 1.606 1.588.962.472 2.116.293 2.888-.449.927-.66 2.735-4.376 5.426-11.149.02-.065.02-.134 0-.2.297-.085.615.033.783.292.283.443-.641 3.126-2.772 8.048-1.423 2.743-2.496 4.373-3.329 4.896-1.007.533-2.202.576-3.245.117-1.167-.262-2.147-1.047-2.655-2.129-.344-.701-.493-1.482-.433-2.26.384-1.074.947-2.075 1.665-2.96 1.015-1.43 2.014-2.852 2.996-4.282l3.57-5.587z" transform="translate(-3.203692, 13.512617)"/>
                            <path fill="#000" fill-rule="nonzero" d="M101.831 152.971l.624 2.952c.555 3.641 1.188 7.521 1.898 11.64 1.57 7.903 3.273 12.863 5.11 14.881 2.091 2.217 5.917 2.771 11.476 1.663 7.973-1.58 11.396-5.277 10.27-11.09-.427-2.113-1.778-6.638-4.053-13.577-.2-.632-.416-1.272-.641-1.93-.067-.24-.15-.49-.241-.756-.02-.114-.053-.226-.1-.332-.133-.444-.275-.884-.425-1.322-.258-.748-.516-1.488-.832-2.22l-.674-1.796c-.257-.632-.551-1.248-.882-1.845-.26-.489-.598-.932-.999-1.314-.555-.47-1.193-.834-1.88-1.072-.749-.27-1.513-.493-2.29-.666-.474-.124-.94-.224-1.406-.299-.466-.075-.907-.066-1.34-.091l-1.39-.042c-.404 0-.796.025-1.173.075-.836.035-1.669.112-2.497.233-1.404.242-2.78.632-4.102 1.164-2.13.876-3.776 2.632-4.511 4.813-.017.322-.017.644 0 .965m6.192-4.922c.872-.313 1.764-.566 2.671-.757l.94-.124c.591-.075 1.182-.142 1.798-.192.832 0 1.615-.05 2.43 0 .798.06 1.593.16 2.38.3.599.092 1.187.243 1.756.449.664.24 1.229.693 1.607 1.288.121.172.225.356.308.55.066.157.15.323.224.498l2.43 6.393.084.266c0 .092.083.175.116.266.541 1.439 1.357 3.766 2.497 7 1.044 2.908 1.911 5.876 2.596 8.888.5 2.516.167 4.498-.998 5.944-1.332 1.763-3.992 3.04-7.981 3.833-5.549 1.109-9.227.554-11.036-1.663-1.348-1.596-2.777-6.193-4.286-13.792l-1.032-6.02-1.331-7.831v-.44c-.039-.254-.059-.51-.059-.766.013-.085.013-.172 0-.257 1.18-1.812 2.936-3.174 4.986-3.866l-.1.033z" transform="translate(-3.203692, 13.512617)"/>
                            <path fill="#FFF" fill-rule="nonzero" d="M124.767 156.92c0-.09-.075-.174-.116-.265l-.083-.267-1.282.54c-1.465.587-2.96 1.097-4.477 1.53-2.22.666-5.055 1.336-8.506 2.013-2.946.307-4.885.515-5.825.64l1.032 6.019c1.514 7.599 2.943 12.196 4.286 13.793 1.814 2.217 5.492 2.77 11.035 1.662 3.995-.787 6.655-2.064 7.98-3.832 1.166-1.447 1.499-3.428 1-5.945-.69-3-1.56-5.958-2.605-8.854-1.082-3.234-1.898-5.562-2.439-7.033z" transform="translate(-3.203692, 13.512617)"/>
                            <path fill="#96A3A7" fill-rule="nonzero" d="M110.694 147.293c-.906.191-1.799.444-2.671.757-2.028.681-3.77 2.018-4.952 3.8.013.085.013.171 0 .257 0 .256.02.512.058.765v.44l1.332 7.832c.932-.125 2.871-.333 5.826-.64 3.423-.682 6.258-1.353 8.505-2.012 1.518-.433 3.012-.944 4.477-1.53l1.282-.54-2.43-6.394c-.075-.174-.158-.34-.225-.498-.083-.194-.186-.378-.308-.55-.378-.594-.943-1.048-1.606-1.288-.57-.206-1.158-.356-1.756-.449-.788-.14-1.582-.24-2.38-.299h-2.43c-.616.05-1.207.116-1.798.191l-.924.158z" transform="translate(-3.203692, 13.512617)"/>
                            <path fill="#561813" fill-rule="nonzero" d="M131.367 141.033c-.8-4.013-2.38-7.061-4.744-9.145-3.506-3.07-8.555-3.952-15.146-2.644-4.994.998-9.36 3.769-13.1 8.314-4.1 5.082-5.562 10.553-4.385 16.411.212 1.362.992 2.57 2.147 3.326 1.004.596 2.161.886 3.329.831 3.568-.087 7.12-.505 10.61-1.247 8.523-1.663 14.226-3.425 17.111-5.288 3.723-2.344 5.11-5.883 4.161-10.616m-7.157-9.013l-.042-.05.442.292c2.541 1.556 4.277 4.143 4.752 7.083.003.02.003.039 0 .058.666 2.113.803 4.357.399 6.535-.416 2.112-1.357 3.467-2.821 4.065l-.083.05c-3.446 2.095-8.198 3.744-14.256 4.947-.6.116-2.123.363-4.57.74-2.973.465-5.192.781-6.657.948h-.258c-1.324.075-2.651-.051-3.937-.375-.949-.348-1.683-1.115-1.989-2.078-.34-1.603-.451-3.246-.333-4.88.017-.043.017-.09 0-.133.154-1.737.587-3.439 1.282-5.038.059-.124.109-.252.15-.383.627-1.684 1.49-3.271 2.563-4.714 1.452-1.765 3.131-3.33 4.993-4.656v-.041c.04-.035.077-.074.109-.116.782-.611 1.618-1.15 2.496-1.613 1.104-.654 2.262-1.21 3.462-1.663 1.97-.458 3.974-.758 5.992-.898 1.504-.01 3.004.154 4.47.49 1.97.472 3.245.968 3.828 1.489l.008-.059z" transform="translate(-3.203692, 13.512617)"/>
                            <path fill="#E2B7B5" fill-rule="nonzero" d="M101.606 154.06c-.245-1.42-.865-2.748-1.797-3.849-.807-1.075-2.16-1.592-3.479-1.33-.361.079-.717.182-1.065.308l-.508.2c-.119 1.634-.007 3.276.333 4.88.306.962 1.04 1.73 1.99 2.078 1.285.323 2.612.45 3.936.374.447-.809.643-1.732.565-2.652m2.322-19.729c-.031.043-.068.082-.108.117v.041c-1.862 1.326-3.541 2.891-4.993 4.656-1.073 1.443-1.936 3.03-2.563 4.714-.042.13-.092.258-.15.382.642.915 1.62 1.54 2.721 1.738.561.153 1.15.182 1.723.083 1.465-.294 3.323-1.402 5.576-3.325 2.663-2.218 3.811-4.254 3.445-6.111-.227-.865-.815-1.592-1.614-1.995-1.223-.661-2.67-.77-3.978-.3m25.39 5.122c-1.173.376-2.244 1.02-3.128 1.878-1.501 1.426-2.121 3.546-1.623 5.554.114 1.116.676 2.139 1.556 2.835.233.163.496.276.774.333 1.465-.599 2.405-1.954 2.821-4.066.405-2.178.268-4.422-.4-6.534m-8.246 8.122c-.287-1.348-1.075-2.537-2.206-3.325-1.537-1.12-3.453-1.591-5.334-1.314-2.529.2-4.717 1.833-5.626 4.199-.722 1.485-.97 3.157-.708 4.788.216 1.165 1.048 2.12 2.172 2.494 1.437.446 2.97.486 4.428.117 2.137-.36 4.112-1.368 5.659-2.885 1.376-1.386 1.93-2.771 1.664-4.157m2.988-15.522l.042.05c-.583-.527-1.873-.987-3.87-1.38-1.466-.336-2.965-.5-4.47-.49-.944.753-1.69 1.727-2.171 2.834-.593 1.14-.794 2.443-.575 3.708.66 3.326 2.628 4.659 5.901 4 1.805-.29 3.445-1.22 4.619-2.62 1.161-1.333 1.616-3.14 1.223-4.863l-.258-.948-.44-.29z" transform="translate(-3.203692, 13.512617)"/>
                            <path fill="#D23229" fill-rule="nonzero" d="M124.584 132.262l.258.948c.393 1.723-.062 3.53-1.223 4.863-1.174 1.4-2.814 2.33-4.619 2.619-3.279.648-5.246-.685-5.9-3.999-.22-1.265-.019-2.568.574-3.708.482-1.108 1.227-2.081 2.172-2.835-2.018.14-4.022.44-5.992.898-1.2.452-2.359 1.009-3.462 1.663-.879.462-1.714 1.002-2.497 1.613 1.308-.47 2.755-.362 3.978.299.8.404 1.387 1.13 1.615 1.995.366 1.83-.783 3.866-3.446 6.11-2.252 1.908-4.111 3.016-5.576 3.326-.573.1-1.161.07-1.722-.083-1.101-.198-2.08-.822-2.722-1.737-.695 1.6-1.128 3.3-1.281 5.038.016.043.016.09 0 .133l.507-.2c.348-.126.704-.229 1.065-.307 1.32-.262 2.672.255 3.48 1.33.93 1.1 1.552 2.43 1.797 3.85.078.92-.12 1.843-.566 2.651h.258c1.492-.166 3.712-.482 6.658-.947 2.446-.377 3.97-.624 4.569-.74 6.058-1.203 10.81-2.852 14.256-4.947l.083-.05c-.278-.057-.542-.17-.774-.333-.88-.696-1.442-1.718-1.556-2.835-.498-2.008.121-4.128 1.622-5.553.884-.86 1.955-1.502 3.13-1.88.003-.018.003-.038 0-.057-.475-2.94-2.21-5.527-4.752-7.084m-5.635 11.939c1.131.789 1.92 1.978 2.206 3.326.266 1.363-.289 2.749-1.665 4.156-1.546 1.518-3.521 2.525-5.659 2.885-1.458.37-2.99.33-4.427-.116-1.125-.374-1.957-1.33-2.172-2.494-.253-1.64.009-3.32.749-4.806.909-2.365 3.097-3.998 5.626-4.198 1.875-.299 3.793.149 5.342 1.247z" transform="translate(-3.203692, 13.512617)"/>
                            <path fill="#000" fill-rule="nonzero" d="M121.572 167.986c-.57-.336-1.268-.376-1.873-.108-.736.388-1.34.987-1.731 1.721-.427.876-1.443 1.295-2.364.973-.697-.304-1.49-.304-2.188 0-.6.191-.683.831-.25 1.929.409 1.063 1.232 1.914 2.28 2.36 1.227.472 2.585.472 3.812 0 1.287-.392 2.358-1.293 2.963-2.493.497-.858.626-1.88.358-2.835-.172-.597-.523-1.125-1.007-1.513m-1.482 1.188c.416-.114.861.01 1.157.325.253.82.095 1.71-.424 2.394-.482.845-1.244 1.496-2.156 1.837-.911.3-1.896.282-2.796-.05-.82-.27-1.446-.937-1.665-1.77-.083-.483.458-.557 1.623-.241 1.01.376 2.144-.01 2.713-.923.608-.981 1.174-1.505 1.548-1.605v.033z" transform="translate(-3.203692, 13.512617)"/>
                            <path fill="#AA2821" fill-rule="nonzero" d="M121.247 169.5c-.296-.314-.74-.44-1.157-.325-.408.1-.94.624-1.581 1.571-.57.914-1.704 1.3-2.713.923-1.165-.316-1.665-.24-1.623.241.219.834.845 1.5 1.665 1.771.9.331 1.885.349 2.796.05.911-.342 1.674-.992 2.155-1.837.531-.678.702-1.57.458-2.395z" transform="translate(-3.203692, 13.512617)"/>
                            <path fill="#000" fill-rule="nonzero" d="M114.373 161.909c-.188-1.038-.667-2-1.382-2.777-.897-.989-2.264-1.407-3.562-1.09-1.14.23-2.093 1.009-2.546 2.08-.51 1.095-.648 2.327-.391 3.508.172 1.338.804 2.576 1.789 3.5.835.708 1.94 1.012 3.02.831 1.128-.177 2.1-.886 2.614-1.904.677-1.276.841-2.763.458-4.156m-2.147-1.888c.631.865 1 1.892 1.065 2.96.15 1.297 0 2.187-.425 2.685-.531.569-1.242.939-2.014 1.048-.813.129-1.633-.189-2.147-.831-.566-.55-.955-1.257-1.115-2.029-.24-1.03-.137-2.11.291-3.076.291-.715.912-1.242 1.665-1.413 1.232-.228 2.125-.009 2.68.656z" transform="translate(-3.203692, 13.512617)"/>
                            <path fill="#FFF" fill-rule="nonzero" d="M113.308 162.973c-.064-1.068-.434-2.095-1.066-2.96-.555-.665-1.453-.873-2.696-.623-.753.171-1.374.699-1.665 1.413-.428.967-.53 2.046-.29 3.076.16.773.548 1.48 1.114 2.029.514.643 1.334.96 2.147.831.772-.11 1.483-.479 2.014-1.047.45-.532.591-1.422.442-2.719z" transform="translate(-3.203692, 13.512617)"/>
                            <path fill="#000" fill-rule="nonzero" d="M122.337 156.63c-.924-.909-2.252-1.277-3.512-.973-1.11.207-2.022 1-2.38 2.07-.413 1.17-.485 2.432-.208 3.641.204 1.213.753 2.342 1.581 3.251.709.86 1.839 1.255 2.93 1.023.943-.172 1.8-.659 2.43-1.38.926-1.065 1.204-2.522.832-4.373-.196-1.235-.78-2.376-1.664-3.26m-3.055.183c.713-.096 1.435.096 2.006.533.69.542 1.153 1.321 1.298 2.186.29 1.07.235 2.205-.158 3.242-.354.779-1.083 1.322-1.93 1.439-.61.126-1.243-.03-1.723-.424-.785-.713-1.287-1.684-1.415-2.735-.516-2.561.125-3.966 1.914-4.24h.008z" transform="translate(-3.203692, 13.512617)"/>
                            <path fill="#FFF" fill-rule="nonzero" d="M121.289 157.345c-.572-.437-1.293-.629-2.006-.533-1.79.275-2.43 1.663-1.923 4.24.129 1.052.631 2.023 1.415 2.736.48.394 1.114.55 1.723.424.848-.117 1.576-.66 1.93-1.439.394-1.037.45-2.171.159-3.242-.146-.865-.608-1.644-1.298-2.186z" transform="translate(-3.203692, 13.512617)"/>
                            <path fill="#000" fill-rule="nonzero" d="M120.598 158.816c-.348-.64-1.062-.99-1.781-.873-.957.092-1.498.832-1.598 2.228-.1 1.397.158 2.262.832 2.669.622.389 1.416.366 2.014-.058.832-.516 1.115-1.43.99-2.735-.053-.44-.21-.862-.457-1.23zM110.894 161.41c-.337-.655-1.065-1.01-1.79-.873-.956.092-1.48.831-1.589 2.228-.108 1.397.158 2.262.832 2.669.622.389 1.417.366 2.014-.058.833-.516 1.132-1.43 1-2.736-.054-.441-.214-.864-.467-1.23z" transform="translate(-3.203692, 13.512617)"/>
                            <path fill="#428A25" fill-rule="nonzero" d="M109.013 182.195c.226-.097.436-.225.624-.383.042-.033.079-.072.109-.116l-1.049.532c.107.005.213-.006.316-.033z" transform="translate(-3.203692, 13.512617)"/>
                            <path fill="#537C2B" fill-rule="nonzero" d="M117.36 180.382L117.485 180.382 117.485 180.324z" transform="translate(-3.203692, 13.512617)"/>
                            <path fill="#5F9825" fill-rule="nonzero" d="M133.672 178.536l-.316.059-.624-.067c-.38-.013-.76.02-1.132.1l-.69.1c-.066-.07-.125-.145-.176-.225-.066 0-.108-.058-.116-.1-.158-.166-.266-.282-.325-.357-.168-.152-.366-.265-.582-.333-.068-.048-.152-.066-.233-.05-.225-.017-.45.03-.65.134h-.158c-.994.39-1.928.922-2.77 1.58-.337.278-.713.505-1.116.673-.223.033-.45.033-.674 0l-.716-.05c-.471.067-.922.234-1.323.49-.404.279-.824.534-1.257.765-.11.094-.242.163-.383.2-.165.097-.345.167-.532.207-.232.078-.472.125-.716.142h-.091c-.467.059-.94.059-1.407 0-.537-.11-1.063-.266-1.573-.466l-1.523-.565c-.637-.242-1.316-.358-1.997-.341-.392-.007-.782.06-1.149.2-.372.156-.72.366-1.032.623l-.191.166-.441.217c-.03.044-.066.083-.108.116-.188.157-.399.286-.624.382-.105.016-.212.016-.317 0l-.141.092h-.624c-.826-.06-1.654.1-2.397.465l-.475.358c-.521.384-1.016.804-1.48 1.255-.097-.164-.115-.362-.05-.54-.492.507-.966 1.04-1.416 1.596-.133.407-.29.831-.457 1.405l-.1.474-.067 1.621.067.5c.876 4.378 4.083 6.706 9.62 6.983h1.29c.485.25 1.047.31 1.573.166 1.455-.163 2.923-.163 4.378 0 1.458.17 2.93.2 4.394.091.64-.134 1.3-.156 1.947-.066l.55.183c.178.063.368.088.557.075.42-.139.767-.438.966-.832l1.772-2.727c1.44.482 2.497.474 3.08 0 .336-.297.601-.666.773-1.08l.833-1.613c.168-.378.418-.713.732-.981.394-.243.844-.378 1.307-.391.473-.028.942-.109 1.398-.241.89-.391 1.414-1.405 1.58-3.043.125-1.402.145-2.81.06-4.215-.014-.638-.15-1.267-.4-1.854-.223-.483-.645-.844-1.157-.99l-.075-.05c-.08-.043-.163-.079-.25-.108-.091 0-.39-.058-.915-.108l-1.93-.025z" transform="translate(-3.203692, 13.512617)"/>
                            <path fill="#255811" fill-rule="nonzero" d="M133.864 177.755c-.391.061-.788.075-1.182.042-.366.023-.73-.06-1.049-.242-.239-.313-.519-.592-.832-.83-.566-.508-1.423-.566-2.572-.167-.122.024-.242.06-.357.108-.811.365-1.59.796-2.33 1.289-.372.322-.801.57-1.266.731h-1.065c-.653.09-1.278.323-1.83.682-.566.381-1.168.704-1.798.964-.684.192-1.406.192-2.09 0h-.124l-1.124-.324c-.515-.238-1.05-.433-1.598-.582-.554-.196-1.13-.33-1.714-.399-.95-.046-1.89.207-2.688.723-.52.514-1.114.946-1.764 1.28-.301.133-.617.228-.94.283l-.958.192c-.345.099-.684.218-1.015.357-.07.11-.16.206-.266.283-.634.516-1.234 1.071-1.798 1.662-.064.18-.046.377.05.54.464-.45.96-.87 1.481-1.255l.533-.399c.74-.336 1.554-.473 2.363-.399h.625l.141-.091 1.049-.532.44-.216.192-.167c.312-.256.66-.467 1.032-.623.367-.14.756-.207 1.149-.2.681-.017 1.36.1 1.997.341l1.523.565c.51.2 1.036.356 1.573.466.467.059.94.059 1.406 0h.092c.243-.016.484-.064.715-.141.188-.04.368-.11.533-.208.141-.037.272-.105.383-.2.433-.23.853-.486 1.257-.765.4-.256.852-.423 1.323-.49l.716.05c.223.034.45.034.674 0 .403-.168.779-.395 1.115-.674.843-.656 1.776-1.188 2.771-1.58h.158c.2-.103.425-.15.65-.132.08-.016.165.002.232.05.216.067.415.18.583.332.058.075.166.191.325.358 0 0 .05.075.116.1.051.08.11.155.175.224l.69-.1c.372-.08.752-.113 1.132-.1l.625.067.316-.058h1.872c.525.05.833.083.916.108.086.028.17.065.25.108.023-.016.04-.04.05-.067 0-.432-.375-.698-1.124-.831-.574-.099-1.157-.143-1.74-.133z" transform="translate(-3.203692, 13.512617)"/>
                        </g>
                    </g>
                    <path fill="#FFF" fill-rule="nonzero" d="M50.134 181.158c-.407-.432-.407-1.106 0-1.538 1.423-1.488 2.355-2.719 2.18-2.893-.175-.175-1.398.765-2.896 2.178-.433.406-1.107.406-1.54 0-1.498-1.413-2.73-2.353-2.896-2.178-.166.174.758 1.405 2.18 2.893.408.432.408 1.106 0 1.538-1.422 1.496-2.355 2.727-2.18 2.902.175.174 1.398-.765 2.896-2.187.433-.407 1.107-.407 1.54 0 1.498 1.422 2.721 2.361 2.896 2.187.175-.175-.716-1.406-2.18-2.902zM43.884 101.113c-1.368-.065-2.455-1.17-2.497-2.536-.125-4.78-.6-8.314-1.173-8.314-.575 0-1.057 3.567-1.182 8.314-.034 1.37-1.126 2.48-2.497 2.536-4.794.124-8.322.598-8.322 1.172s3.562 1.056 8.322 1.18c1.357.052 2.446 1.139 2.497 2.495.125 4.788.607 8.313 1.182 8.313.574 0 1.048-3.558 1.173-8.313.055-1.354 1.141-2.44 2.497-2.495 4.793-.124 8.322-.606 8.322-1.18s-3.529-1.048-8.322-1.172zM166.529 44.37c-1.985-.056-3.58-1.65-3.637-3.632-.183-6.876-.832-11.989-1.665-11.989-.832 0-1.506 5.113-1.664 11.989-.057 1.982-1.652 3.576-3.637 3.633-6.874.174-12 .831-12 1.663 0 .831 5.126 1.513 12 1.662 1.985.057 3.58 1.65 3.637 3.633.183 6.876.874 11.989 1.664 11.989.791 0 1.515-5.113 1.665-11.989.056-1.982 1.652-3.576 3.637-3.633 6.874-.174 11.992-.831 11.992-1.662 0-.832-5.118-1.489-11.992-1.663zM177.764 111.887c-.948-.03-1.71-.79-1.74-1.737-.083-3.326-.407-5.729-.832-5.729-.424 0-.715 2.445-.832 5.729-.03.947-.792 1.707-1.74 1.737-3.287.083-5.733.408-5.733.832s2.446.723 5.734.831c.95.026 1.713.789 1.739 1.738.092 3.284.416 5.728.832 5.728s.724-2.444.832-5.728c.03-.947.792-1.708 1.74-1.738 3.329-.083 5.734-.416 5.734-.831 0-.416-2.447-.749-5.734-.832z" mask="url(#wfaifwtm4b)"/>
                    <path fill="#231F20" fill-rule="nonzero" d="M103.388 239.912c-10.103 0-32.249-16.57-62.417-41.445-7.024-5.82-14.406-12.171-21.938-18.98-4.419-3.99-7.057-13.16-7.057-19.72V27.727c-.016-2.146 1.26-4.091 3.237-4.93 9.371-4 33.29-10.7 88.15-10.7 54.86 0 78.77 6.7 88.15 10.7 1.973.841 3.246 2.786 3.228 4.93v132.04c0 6.567-2.638 15.738-7.057 19.72-7.49 6.726-14.83 13.12-21.93 18.98-30.1 24.875-52.263 41.445-62.366 41.445zm0-226.967c-54.71 0-78.512 6.65-87.825 10.633-1.665.71-2.74 2.348-2.73 4.157v132.032c0 6.376 2.497 15.264 6.783 19.121 7.49 6.793 14.897 13.178 21.912 18.956 25.966 21.425 51.424 41.253 61.86 41.253s35.894-19.828 61.86-41.253c7.081-5.82 14.447-12.238 21.895-18.956 4.244-3.824 6.783-12.711 6.783-19.121V27.727c.014-1.805-1.055-3.442-2.713-4.157-9.321-3.983-33.09-10.642-87.825-10.642v.017z" mask="url(#wfaifwtm4b)"/>
                </g>
            </g>
        </g>
    </g>
</svg>
