<svg width="180" height="219" viewBox="0 0 180 219" xmlns="http://www.w3.org/2000/svg" xmlns:xlink="http://www.w3.org/1999/xlink">
    <defs>
        <path d="M169.08 24.096v114.749c0 5.49-2.171 13.424-6.021 16.87a581.838 581.838 0 0 1-19.055 16.488c-24.93 20.563-45.179 35.93-54.022 35.93-8.843 0-29.084-15.367-54.015-35.93a589.448 589.448 0 0 1-19.069-16.488c-3.814-3.446-6.043-11.38-6.043-16.87V24.095a4.277 4.277 0 0 1 2.598-3.951c8.149-3.476 28.947-9.27 76.507-9.27s68.366 5.78 76.514 9.27a4.263 4.263 0 0 1 2.606 3.952z" id="a"/>
    </defs>
    <g fill="none" fill-rule="evenodd">
        <path d="M170.614 10.476C159.759 5.86 136.949.361 89.982.361 43.016.361 20.212 5.86 9.35 10.476a14.753 14.753 0 0 0-8.988 13.62v114.742c0 8.46.058 15.259 9.488 24.673 20.632 20.606 60.839 55.128 80.132 55.128 19.293 0 59.5-34.522 80.133-55.128 9.545-9.53 9.487-16.213 9.487-24.673V24.096a14.768 14.768 0 0 0-8.988-13.62z" fill="#4E729E" fill-rule="nonzero"/>
        <path d="M89.982 219c-8.684 0-22.05-6.698-39.802-19.912a397.167 397.167 0 0 1-40.613-35.324C0 154.191 0 147.081 0 138.838V24.096a15.122 15.122 0 0 1 9.205-13.98C20.097 5.512 42.95 0 89.982 0c47.032 0 69.885 5.513 80.806 10.115A15.129 15.129 0 0 1 180 24.067v114.879c0 8.482 0 15.173-9.589 24.76A397.167 397.167 0 0 1 129.8 199.03C112.032 212.302 98.644 219 89.982 219zm0-218.277c-46.909 0-69.66 5.483-80.487 10.115A14.406 14.406 0 0 0 .724 24.096v114.742c0 8.41 0 15.057 9.408 24.45 19.061 19.03 60.282 55.018 79.879 55.018 19.597 0 60.789-35.988 79.88-55.019 9.407-9.392 9.407-15.938 9.407-24.254V24.153a14.407 14.407 0 0 0-8.829-13.315C159.643 6.206 136.891.723 89.982.723z" fill="#231F20" fill-rule="nonzero"/>
        <mask id="b" fill="#fff">
            <use xlink:href="#a"/>
        </mask>
        <use fill="#05325A" fill-rule="nonzero" xlink:href="#a"/>
        <g mask="url(#b)">
            <path d="M72.462 178.633c7.96-14.37 4.277-23.257 4.277-23.257s-8.04-15.476 4.783-27.456c12.824-11.979 16.174-28.582 16.174-28.582s1.665-12.145-4.71-21.488c-6.376-9.342 3.842-39.384 3.842-39.384s4.074-12.65-3.727-27.997h-72.99c.434 8.967 3.452 27.268 19.75 41.588 22.433 19.724 26.775 29.782 18.547 46.5-8.228 16.72 1.303 25.339 1.303 25.339s10.906 16.618-4.545 21.422c-15.45 4.805-29.794 17.247-29.794 17.247s-15.645 11.235-10.58 32.13c1.288 5.31 1.281 9.06.543 11.712h60.282c-3.8-6.893-8.315-18.417-3.155-27.774zM170.976 87.055s-2.36 6.012-7.852 8.013c-5.493 2.001-15.045 6.445-10.602 16.719 4.443 10.274-10.855 24.645-10.855 24.645s-26.776 23.25-11.97 43.35c8.836 12.008 20.545 21.17 28.55 26.61h34.497v-27.397a75.32 75.32 0 0 0-16.536-20.88c-25.908-23.381-9.032-36.849-9.032-36.849s6.673-3.526 2.555-14.5c-2.895-7.71 13.185-13.93 23.013-16.958V68.349a28.686 28.686 0 0 1-4.11 1.547c-13.345 3.923-17.658 17.16-17.658 17.16z" fill="#064075" fill-rule="nonzero"/>
            <path d="M10.855 125.84c17.369-6.503 18.02-17.767 11.449-26.777-6.571-9.01 2.135-18.142 2.135-18.142 19.488-26.314-9.09-32.412-9.09-32.412s-9.407-2.781-9.407-11.321c0-4.335-4.784-8.382-9.408-11.25v109.417c2.337-3.049 6.614-6.604 14.321-9.515zM192.744 59.31s-21.884 1.995-27.066 14.386c-5.181 12.391-16.731 24.4-22.629 23.055-5.898-1.344-12.642 22.702-22.506 22.911-13.938.29-16.818-22.802-5.876-42.86 10.942-20.056 39.628-21.552 44.325-44.6 5.145-25.23 33.752-21.74 33.752-21.74v15.173s-22.796 3.265-27.63 12.253-.688 14.4-17.694 24.327c-17.006 9.928-26.443 18.374-17.368 31.393 4.718 6.763-2.403 4.184 8.09-4.154 10.494-8.338 21.081-26.01 32.125-34.196a34.05 34.05 0 0 1 22.477-6.85v10.903z" fill="#064075" fill-rule="nonzero"/>
            <path d="M8.547 110.544c10.29-7.182 0-15.541 0-15.541S1.107 88.6 4.393 74.23c1.708-7.464-3.003-11.373-7.902-13.46v56.023c2.786-1.192 6.773-2.536 12.056-6.25zM57.127 42.563a22.978 22.978 0 0 0 10.964 2.565c6.672 0 11.752-7.016 11.752-7.016s9.459-11.935.362-27.643H40.403c.5 5.954 3.134 24.14 16.724 32.094zM62.895 173.099c4.038-24.385-13.308-15.671-13.308-15.671-21.892 12.89-22.232 24.03-19.366 36.4 1.447 6.365 1.23 10.274.644 12.579H65.29c-2.07-4.87-5.283-15.888-2.395-33.308zM162.957 166.517s-15.436-10.274-17.006 5.78c-1.172 11.936 13.099 27.152 20.451 34.139h20.147c.362-26.155-23.592-39.92-23.592-39.92z" fill="#073A77" fill-rule="nonzero"/>
            <path d="M15.299 146.157a315.301 315.301 0 0 1 8.684 8.54 37.97 37.97 0 0 1 6.672 9.313c2.258 4.465 1.549 8.441-2.127 11.928a38.36 38.36 0 0 1-11.58 7.55 16.952 16.952 0 0 1-11.028.868 20.266 20.266 0 0 1-10.674-6.98 126.525 126.525 0 0 1-8.156-11.257 70.838 70.838 0 0 1-6.585-13.41c-1.901-5.115-1.901-9.11 0-11.986 1.9-2.875 5.335-5.546 10.305-8.012l6.39-3.129c1.96-.722 3.437-.686 4.443.224a10.329 10.329 0 0 1 2.272 2.695c.517.906 1.742 2.657 3.677 5.253a66.662 66.662 0 0 0 7.707 8.403z" fill="#997F68" fill-rule="nonzero"/>
            <path d="M10.182 185.497a18.048 18.048 0 0 1-4.392-.534 20.931 20.931 0 0 1-10.986-7.226 127.472 127.472 0 0 1-8.184-11.3 71.192 71.192 0 0 1-6.644-13.525c-1.96-5.274-1.932-9.48.08-12.507 2.012-3.027 5.521-5.707 10.537-8.186l6.39-3.128h.043c2.171-.845 3.857-.723 5.066.325a10.95 10.95 0 0 1 2.359 2.803c.5.875 1.722 2.623 3.618 5.188a66.076 66.076 0 0 0 7.635 8.352 312.464 312.464 0 0 1 8.684 8.555 38.576 38.576 0 0 1 6.803 9.457c2.373 4.697 1.62 8.938-2.25 12.608a39.085 39.085 0 0 1-11.76 7.666 17.799 17.799 0 0 1-6.999 1.452zM-8.9 133.245c-4.827 2.392-8.214 5.015-10.08 7.81-1.868 2.797-1.795 6.568.036 11.467a70.412 70.412 0 0 0 6.513 13.308 126.338 126.338 0 0 0 8.134 11.185 19.744 19.744 0 0 0 10.37 6.799c3.546.907 7.293.612 10.652-.838a38.057 38.057 0 0 0 11.413-7.406c3.502-3.316 4.16-7.001 2.012-11.25a37.456 37.456 0 0 0-6.6-9.175c-2.808-2.89-5.71-5.78-8.634-8.526a67.413 67.413 0 0 1-7.758-8.504c-1.968-2.644-3.176-4.378-3.712-5.318a9.715 9.715 0 0 0-2.171-2.543c-.84-.759-2.091-.795-3.828-.123l-6.347 3.114z" fill="#000" fill-rule="nonzero"/>
            <g fill-rule="nonzero">
                <path d="m128.974 137.075.492-.347c1.114-.747 2.036-.937 2.764-.571.564.239.99.72 1.158 1.308.036.099.065.2.087.303a8.694 8.694 0 0 1 1.889.629c1.254.534 1.638 1.373 1.15 2.514-.115.296-.231.556-.347.795.223.046.437.131.63.253.622.354 1.599.838 2.952 1.445 1.353.607 2.287 1.084 2.931 1.445a23.49 23.49 0 0 1 3.322 2.377c.694.602 1.698 1.52 3.01 2.753.973.877 1.86 1.845 2.649 2.89a11.109 11.109 0 0 1 1.715 4.48c.241 1.623.307 3.268.195 4.905a12.596 12.596 0 0 1-.477 3.251 8.669 8.669 0 0 1-2.316 3.613 11.074 11.074 0 0 1-3.69 2.348c-1.37.514-2.805.838-4.263.961-1.464.12-2.936.12-4.4 0a40.132 40.132 0 0 1-11.195-2.485c-.095 1.184-.478 1.9-1.144 2.167a.826.826 0 0 1-.18.043c-1.64.22-3.304.174-4.929-.137-1.838-.354-2.808-1.373-2.895-3.034v-.441a108.572 108.572 0 0 1-2.981-.354 42.233 42.233 0 0 1-8.033-1.857 26.182 26.182 0 0 1-7.36-3.96 18.069 18.069 0 0 1-5.275-6.408 23.466 23.466 0 0 1-2.099-8.338 76.283 76.283 0 0 1-.145-8.576 19.918 19.918 0 0 1 2.555-8.67c1.63-3.092 4.766-4.4 9.408-3.923a.138.138 0 0 1 .108 0 118.358 118.358 0 0 1 24.714 10.505m4.508 1.922c-.013.064-.03.126-.05.188a5.337 5.337 0 0 1-.724 1.322c-.094.13-.391.484-.869 1.055a22.947 22.947 0 0 0-4.342 7.145c-.39.564-.774 1.17-1.15 1.828-.37.484-.659.889-.876 1.207a.563.563 0 0 1-.05-.42 24.552 24.552 0 0 1 5.514-10.548c.456-.542.723-.874.818-1.004.232-.298.422-.626.564-.975.042-.151.064-.306.065-.463a.21.21 0 0 1 0-.094 1.66 1.66 0 0 0-.094-.397.94.94 0 0 0-.485-.593 2.029 2.029 0 0 0-1.62.477 8.664 8.664 0 0 0-.725.55 15.745 15.745 0 0 0-3.292 3.612 28.161 28.161 0 0 0-2.75 5.34 56.927 56.927 0 0 0-2.786 8.453 52.08 52.08 0 0 0-1.223 7.579c-.16 1.965-.232 3.569-.21 4.833a.916.916 0 0 1 0 .145c0 .31 0 .6.036.86a2.104 2.104 0 0 0 1.947 1.943c1.455.274 2.944.32 4.414.137.442-.346.543-1.445.304-3.222a.375.375 0 0 1 0-.123c.108-2.402.364-4.796.767-7.167a79.91 79.91 0 0 0 .724-4.126 27.58 27.58 0 0 1 1.7-6.192 25.998 25.998 0 0 1 3.127-5.65c.355-.45.736-.88 1.143-1.286.492-.534.883-.968 1.165-1.3.355-.47.633-.99.825-1.546.16-.441 0-.723-.506-.968a9.375 9.375 0 0 0-1.448-.499m2.28 3.454a2.5 2.5 0 0 1-.253.332c-.29.356-.695.804-1.216 1.344-.368.374-.714.77-1.035 1.185a25.139 25.139 0 0 0-2.982 5.404 26.331 26.331 0 0 0-1.635 5.925 92.393 92.393 0 0 1-.76 4.169 56.131 56.131 0 0 0-.724 6.936c.06.382.093.769.102 1.156a37.88 37.88 0 0 0 12.845 2.55c2.505.1 5.003-.338 7.323-1.286a9.632 9.632 0 0 0 3.033-2.167c.87-.895 1.491-2 1.802-3.208.207-1.044.296-2.108.267-3.172 0-1.156-.036-2.06-.08-2.71-.064-.9-.219-1.79-.462-2.658a12.415 12.415 0 0 0-2.49-4.336 40.696 40.696 0 0 0-3.618-3.612c-.847-.759-1.498-1.315-1.954-1.655a23.234 23.234 0 0 0-3.937-2.167c-2.176-.997-3.539-1.652-4.089-1.965l-.101-.05m-16.196-4.242a1.68 1.68 0 0 1-.441.202.529.529 0 0 1-.449-.05 1.003 1.003 0 0 1-.253-.687 15.735 15.735 0 0 0-.413-2.565c-.144-.563-.369-1.394-.665-2.5a114.177 114.177 0 0 0-13.352-4.87c-4.024-.404-6.757.7-8.2 3.31a18.842 18.842 0 0 0-2.388 8.12 77.358 77.358 0 0 0 .145 8.44c.174 2.747.846 5.44 1.983 7.947a17.007 17.007 0 0 0 4.928 5.983 25.023 25.023 0 0 0 7.027 3.764 41.305 41.305 0 0 0 7.794 1.806c.782.101 1.715.21 2.793.318 0-1.185.073-2.63.203-4.335a55.124 55.124 0 0 1 1.18-7.673 58.341 58.341 0 0 1 2.83-8.67 29.96 29.96 0 0 1 2.894-5.549 17.211 17.211 0 0 1 2.895-3.323c-1.31-.723-2.642-1.445-3.973-2.168-1.448.723-2.895 1.553-4.422 2.45m-1.332-5.203c.477 1.436.802 2.918.97 4.422a83.44 83.44 0 0 1 2.895-1.582c.383-.21.724-.383 1.027-.535-1.693-.751-3.314-1.524-4.957-2.254l.065-.05z" fill="#000"/>
                <path d="M119.204 137.429a21.645 21.645 0 0 0-.97-4.422c1.643.722 3.264 1.503 4.863 2.305-.296.151-.644.325-1.027.534-.647.342-1.602.87-2.866 1.583z" fill="#F4C963"/>
                <path d="M119.124 138.411a1.68 1.68 0 0 0 .442-.202c1.541-.896 3.01-1.712 4.422-2.45a73.548 73.548 0 0 1 3.972 2.168 17.211 17.211 0 0 0-2.894 3.324 29.96 29.96 0 0 0-2.895 5.549 58.341 58.341 0 0 0-2.83 8.67 55.124 55.124 0 0 0-1.136 7.637c-.13 1.712-.202 3.157-.202 4.335a99.29 99.29 0 0 1-2.794-.318 41.305 41.305 0 0 1-7.794-1.806 25.023 25.023 0 0 1-7.027-3.765 17.007 17.007 0 0 1-4.928-5.982 22.737 22.737 0 0 1-1.983-7.948 77.358 77.358 0 0 1-.144-8.439c.175-2.857.999-5.636 2.41-8.128 1.447-2.61 4.18-3.714 8.199-3.309a114.177 114.177 0 0 1 13.352 4.87c.296 1.105.52 1.936.665 2.5.216.844.361 1.704.435 2.572-.005.252.085.497.253.686.134.083.299.102.448.05m14.308.774c.02-.062.038-.124.05-.188.495.126.98.293 1.448.498.492.21.665.528.506.969a5.596 5.596 0 0 1-.825 1.546c-.282.332-.673.766-1.165 1.3-.407.406-.789.835-1.143 1.286a25.998 25.998 0 0 0-3.127 5.65 27.58 27.58 0 0 0-1.7 6.192 131.691 131.691 0 0 1-.724 4.126 58.303 58.303 0 0 0-.767 7.167.375.375 0 0 0 0 .123c.239 1.799.137 2.89-.304 3.222-1.47.184-2.959.137-4.414-.137a2.104 2.104 0 0 1-1.947-1.943c0-.26 0-.55-.036-.86a.916.916 0 0 0 0-.145c0-1.264.05-2.89.21-4.833a52.08 52.08 0 0 1 1.107-7.464 56.927 56.927 0 0 1 2.786-8.453 28.161 28.161 0 0 1 2.75-5.34 15.745 15.745 0 0 1 3.293-3.612c.253-.195.499-.383.723-.55a2.029 2.029 0 0 1 1.621-.476.94.94 0 0 1 .485.592c.048.128.08.262.094.398a.21.21 0 0 0 0 .094c0 .156-.022.312-.065.462-.142.35-.332.678-.564.975-.094.13-.362.463-.818 1.005a24.552 24.552 0 0 0-5.515 10.548.563.563 0 0 0 .051.42c.217-.318.507-.723.876-1.207.376-.658.76-1.265 1.15-1.828a22.947 22.947 0 0 1 4.342-7.146c.478-.57.775-.925.869-1.055.303-.404.546-.85.724-1.322l.029-.014z" fill="#4E729E"/>
                <path d="M135.508 142.782a2.5 2.5 0 0 0 .254-.332l.101.05c.55.314 1.913.969 4.089 1.966 1.38.594 2.698 1.32 3.937 2.167.455.34 1.107.896 1.953 1.655a40.696 40.696 0 0 1 3.619 3.612 12.415 12.415 0 0 1 2.49 4.336c.243.868.398 1.759.462 2.658.044.65.073 1.554.08 2.71a14.305 14.305 0 0 1-.268 3.172 7.157 7.157 0 0 1-1.802 3.208 9.632 9.632 0 0 1-3.032 2.167 17.524 17.524 0 0 1-7.323 1.286 37.844 37.844 0 0 1-12.824-2.37c-.01-.435-.047-.87-.109-1.3.098-2.325.34-4.641.724-6.936.333-1.648.586-3.037.76-4.17.312-2.03.86-4.02 1.636-5.924a25.139 25.139 0 0 1 2.981-5.404c.322-.415.667-.81 1.035-1.185.535-.554.948-1.01 1.237-1.366z" fill="#997F68"/>
            </g>
            <g fill-rule="nonzero">
                <path d="M59.588 61.818a46.005 46.005 0 0 1 12.678-2.377 70.432 70.432 0 0 1 15.654.628 43.855 43.855 0 0 1 14.35 4.473c4.405 2.408 7.319 5.472 8.742 9.19.545 1.416 1.146 10.178 1.802 26.285.603 14.45.91 23.282.919 26.494 0 3.245-.724 5.817-2.214 7.739-1.491 1.921-4.712 4.132-9.676 6.625-4.964 2.493-13.026 3.764-24.214 3.8a53.628 53.628 0 0 1-18.816-3.453 78.92 78.92 0 0 1-18.178-9.855 27.908 27.908 0 0 1-6.332-5.94c-1.308-1.748-1.966-3.214-1.976-4.4 0-.577.786-2.675 2.36-6.292 2.078-4.769 3.745-9.078 5-12.926a219.976 219.976 0 0 0 3.886-13.352c.95-3.568 1.7-7.186 2.243-10.838.623-4.7 1.001-7.31 1.136-7.825a5.73 5.73 0 0 1 2.526-3.525c1.838-1.166 5.198-2.64 10.08-4.422m-6.802 7.261c-.516 2.52-1.015 5.455-1.498 8.807a196.646 196.646 0 0 0-2.127 26.27c.29.174 1.423.748 3.4 1.72 1.354.672 2.027 1.113 2.02 1.33 0 .47-.68 1.257-1.976 2.355-1.447 1.108-2.296 1.783-2.547 2.023a32.45 32.45 0 0 1 2.366 2.233c.941.968 1.397 1.597 1.375 1.871-.021.275-.499.658-1.404 1.127-.82.427-1.674.784-2.554 1.07 1.447 1.835 2.477 3.179 3.09 4.031 1.1 1.493 1.63 2.428 1.592 2.804-.05.433-1.136 1.141-3.264 2.11-2.127.967-3.184 1.553-3.191 1.733l1.824 3.663c1.22 2.486 1.867 3.83 1.939 4.032v.087c2.948 2.018 7.034 3.73 12.259 5.137a61.927 61.927 0 0 0 19.141 1.763c7.165-.347 12.874-1.525 17.13-3.533 4.255-2.009 7.203-3.695 8.843-5.058a9.135 9.135 0 0 0 2.996-5.946c.367-2.577.18-11.97-.557-28.178-.724-16.059-1.272-24.748-1.643-26.068-.873-3.117-3.327-5.87-7.36-8.259a42.134 42.134 0 0 0-14.242-4.963 61.371 61.371 0 0 0-17.549-.578 49.712 49.712 0 0 0-17.151 4.891c-.152.101-.456 1.265-.912 3.504m-2.424 7.312c.386-2.408.82-4.802 1.303-7.182.332-1.618.484-2.427.463-2.434a3.557 3.557 0 0 0-2.171.794 4.033 4.033 0 0 0-1.44 1.785 23.087 23.087 0 0 0-1.043 5.65 100.696 100.696 0 0 1-2.988 15.628 178.284 178.284 0 0 1-3.481 11.64c-1.12 3.371-2.755 7.516-4.907 12.434-1.65 3.8-2.458 5.92-2.424 6.358.101 1.363 1.066 3.068 2.895 5.115 2.894 3.18 7.328 6.267 13.3 9.263-.23-.51-.78-1.876-1.65-4.097-.875-2.268-1.316-3.453-1.316-3.569.86-.433 1.758-.903 2.714-1.394 1.91-1.005 3.104-1.677 3.618-2.002-.241-.385-1.17-1.657-2.786-3.815-1.5-2.003-2.248-3.034-2.244-3.092a35.071 35.071 0 0 0 2.128-.795c1.447-.556 2.171-.953 2.171-1.199 0-.246-.622-.889-1.954-2.023a12.2 12.2 0 0 1-2.033-1.907c0-.116.793-.778 2.38-1.987 1.588-1.21 2.381-1.89 2.381-2.045 0-.13-.868-.607-2.612-1.445-1.744-.838-2.613-1.351-2.62-1.604.145-9.393.919-18.765 2.316-28.055v-.022z" fill="#000"/>
                <path d="M51.635 69.238c-.483 2.36-.917 4.754-1.303 7.182a210.576 210.576 0 0 0-2.316 28.062c0 .253.883.788 2.62 1.604 1.737.817 2.612 1.308 2.612 1.445s-.803.838-2.38 2.045c-1.578 1.206-2.381 1.864-2.381 1.98a12.2 12.2 0 0 0 2.026 1.878c1.331 1.134 1.983 1.814 1.954 2.023-.03.21-.775.643-2.171 1.2-.724.281-1.448.549-2.128.794 0 .058.748 1.089 2.244 3.093 1.62 2.157 2.55 3.43 2.786 3.814-.478.326-1.672.997-3.619 2.002-.955.491-1.852.96-2.714 1.394 0 .116.442 1.3 1.318 3.57.875 2.268 1.447 3.612 1.65 4.096-5.992-2.991-10.426-6.079-13.302-9.263-1.833-2.042-2.798-3.747-2.894-5.115-.034-.443.774-2.562 2.424-6.358 2.147-4.937 3.782-9.082 4.907-12.434a167.65 167.65 0 0 0 3.48-11.64 100.696 100.696 0 0 0 2.99-15.628c.115-1.91.467-3.798 1.049-5.621.308-.701.81-1.3 1.447-1.727a3.557 3.557 0 0 1 2.17-.795s-.137.78-.47 2.4z" fill="#4D382E"/>
                <path d="M51.258 77.915c.483-3.347.982-6.283 1.498-8.807.456-2.24.724-3.403.912-3.504a49.712 49.712 0 0 1 17.151-4.913 61.371 61.371 0 0 1 17.528.563 42.134 42.134 0 0 1 14.241 4.964c4.034 2.408 6.487 5.161 7.36 8.258.367 1.315.914 10.005 1.643 26.068.738 16.185.924 25.577.557 28.178a9.135 9.135 0 0 1-2.996 5.947c-1.635 1.387-4.583 3.073-8.843 5.057-4.26 1.985-9.97 3.162-17.13 3.533a61.927 61.927 0 0 1-19.14-1.763c-5.23-1.41-9.317-3.123-12.26-5.137v-.086c-.072-.203-.719-1.547-1.94-4.032l-1.801-3.634c0-.178 1.064-.756 3.191-1.734 2.128-.968 3.213-1.676 3.264-2.11.05-.433-.492-1.308-1.592-2.803a314.643 314.643 0 0 0-3.09-4.032c.88-.285 1.734-.643 2.554-1.07.905-.469 1.375-.845 1.404-1.126.03-.282-.434-.903-1.375-1.872a32.45 32.45 0 0 0-2.366-2.232c.27-.246 1.12-.92 2.547-2.023 1.296-1.098 1.954-1.886 1.976-2.356 0-.216-.666-.657-2.02-1.329-1.972-.963-3.106-1.537-3.4-1.72.12-8.799.83-17.58 2.127-26.285z" fill="#997F68"/>
            </g>
            <g fill-rule="nonzero">
                <path d="M111.338 80.12c-3.527-.088-6.706-.181-9.538-.283-3.185-2.408-7.104-5.298-11.76-8.67l3.191.138a36.5 36.5 0 0 1 5.225.722c2.62 1.647 6.914 4.345 12.882 8.092z" fill="#484545"/>
                <path d="M121.05 79.96h-.044c-1.918.065-3.466.109-4.632.123-2.146.058-3.835.058-5.065 0a2396.498 2396.498 0 0 1-12.882-8.128c1.568.217 3.71.585 6.427 1.105l9.14 1.8c.723.48 2.17 1.365 4.342 2.65 1.814 1.138 2.713 1.877 2.699 2.219a.49.49 0 0 1 0 .195m-60.347-7.948a79.244 79.244 0 0 1 17.925-1.365c1.158.048 2.8.106 4.928.173 2.063.073 4.227.18 6.513.34 4.66 3.396 8.58 6.286 11.76 8.67-18.164-1.175-30.295-2.139-36.393-2.89-3.156-.376-5.81-.8-7.96-1.272-1.641-.327-3.55-.828-5.725-1.502 3.48-.954 6.462-1.662 8.966-2.132l-.014-.022z" fill="#070707"/>
                <path d="M60.832 46.053a40.369 40.369 0 0 1 3.308-4.212 28.515 28.515 0 0 1 9.154-6.937c3.763-1.685 8.322-2.437 13.678-2.254 12.698.439 21.447 4.877 26.247 13.316a29.685 29.685 0 0 1 3.619 15.411 18.762 18.762 0 0 1-2.106 7.731 23.553 23.553 0 0 1-1.296 2.168c-.383.585-.579.888-.579.903a7.128 7.128 0 0 1-.238 1.315c.11.187.243.36.398.513.298.33.642.617 1.02.852l-9.14-1.799c-2.711-.52-4.853-.888-6.426-1.105a36.5 36.5 0 0 0-5.225-.723l-3.192-.137a181.913 181.913 0 0 0-6.513-.34c-2.091-.072-3.77-.122-4.928-.173a79.244 79.244 0 0 0-17.925 1.366c-2.504.47-5.486 1.177-8.967 2.13 2.186.709 4.101 1.253 5.746 1.634 2.142.481 4.796.905 7.96 1.271 6.104.723 18.235 1.686 36.394 2.89 2.832.102 6.012.196 9.538.282 1.211.058 2.9.058 5.066 0 1.165 0 2.714-.058 4.632-.123a3.026 3.026 0 0 1-1.962 1.15 25.318 25.318 0 0 1-4.342.332c-3.133.05-5.898.057-8.286 0-2.894-.044-6.33-.179-10.305-.405-7.869-.42-13.9-.785-18.092-1.098-9.277-.723-16.123-1.558-20.538-2.507a34.779 34.779 0 0 1-6.136-1.807 7.082 7.082 0 0 1-1.52-.794c-.709.466-1.451.88-2.222 1.235a4.53 4.53 0 0 1-1.917.361c-1.853-.067-3.214-.597-4.082-1.59a3.342 3.342 0 0 1-.89-2.42c.048-1.363 1.117-3.246 3.206-5.65.723-.838 2.275-2.422 4.653-4.754a72.393 72.393 0 0 0 8.8-11.032c.8-1.17 1.937-2.838 3.408-5m3.409-2.486c-1.013 1.224-2.166 2.77-3.46 4.639a417.374 417.374 0 0 1-3.379 4.97 56.031 56.031 0 0 1-8.264 9.798 43.538 43.538 0 0 0-4.878 5.195c-1.568 1.994-2.369 3.405-2.402 4.234.003.32.12.627.333.867a3.504 3.504 0 0 0 1.657.99c2.61-1.503 4.21-2.414 4.798-2.732a66.18 66.18 0 0 1 6.65-3.049 54.42 54.42 0 0 1 12.954-3.106 79.18 79.18 0 0 1 15.147-.499c8.597.52 15.436 1.39 20.516 2.608 4.226 1.017 6.966 2.19 8.22 3.52a13.563 13.563 0 0 0 2.1-3.671 15.6 15.6 0 0 0 1.324-5.629c.159-7.706-1.937-14.014-6.289-18.922-4.916-5.559-12.122-8.5-21.616-8.822-5.717-.193-10.542.631-14.474 2.471a26.045 26.045 0 0 0-8.923 7.153m.876 26.408c4.53-.554 9.091-.829 13.656-.824 7.588.02 15.162.666 22.644 1.929 4.045.65 7.403 1.308 10.051 1.965.057-.237.086-.479.087-.722 0-.6-.86-1.257-2.554-1.966a40.032 40.032 0 0 0-6.745-1.95 114.517 114.517 0 0 0-21.052-2.435c-10.184-.275-19.035 1.03-26.551 3.916-2.3.873-4.52 1.941-6.636 3.193a73.633 73.633 0 0 0-2.975 1.85l.138.108c.185.08.385.119.586.116a5.071 5.071 0 0 0 2.265-.723 23.9 23.9 0 0 1 4.06-1.784A72.354 72.354 0 0 1 65.13 69.99z" fill="#000"/>
                <path d="M78.808 69.166c-4.571-.006-9.139.27-13.677.824a72.354 72.354 0 0 0-13.026 2.673 23.901 23.901 0 0 0-4.038 1.756 5.071 5.071 0 0 1-2.265.722 1.45 1.45 0 0 1-.586-.116l-.138-.108a73.633 73.633 0 0 1 2.974-1.85 42.995 42.995 0 0 1 6.636-3.193c7.522-2.89 16.372-4.195 26.552-3.916 7.078.16 14.125.974 21.052 2.435a40.032 40.032 0 0 1 6.744 1.95c1.694.723 2.54 1.366 2.555 1.966-.001.243-.03.486-.087.722-2.649-.657-6.006-1.315-10.052-1.965a138.352 138.352 0 0 0-22.644-1.9z" fill="#38577D"/>
                <path d="M60.789 48.206c1.298-1.874 2.45-3.42 3.46-4.639a26.045 26.045 0 0 1 8.922-7.152c3.947-1.84 8.771-2.664 14.474-2.471 9.494.332 16.7 3.28 21.616 8.843 4.342 4.928 6.438 11.235 6.288 18.923a15.6 15.6 0 0 1-1.324 5.628 13.563 13.563 0 0 1-2.099 3.67c-1.25-1.33-3.99-2.502-8.22-3.518-5.08-1.219-11.92-2.088-20.517-2.609a79.18 79.18 0 0 0-15.146.499 54.42 54.42 0 0 0-12.954 3.107 66.18 66.18 0 0 0-6.643 3.041c-.589.309-2.188 1.217-4.798 2.724a3.504 3.504 0 0 1-1.657-.99 1.328 1.328 0 0 1-.333-.867c.029-.828.83-2.24 2.402-4.233a43.538 43.538 0 0 1 4.878-5.195 56.031 56.031 0 0 0 8.264-9.79 462.451 462.451 0 0 0 3.387-4.971z" fill="#4E729E"/>
            </g>
            <g fill-rule="nonzero">
                <path d="M92.435 45.807c1.267.094 2.345 1.265 3.242 3.497a11.587 11.587 0 0 1 1.006 4.942 8.728 8.728 0 0 1-1.881 4.458c-1.375 1.878-2.823 2.753-4.342 2.623-1.4-.116-2.483-1.207-3.25-3.273a11.479 11.479 0 0 1-.781-4.682c.08-1.272.723-2.832 2.026-4.668 1.404-2.023 2.736-2.986 3.995-2.89m3.133 8.504a10.692 10.692 0 0 0-.723-4.075c-.642-1.864-1.455-2.86-2.44-2.99-1.056-.145-2.15.637-3.285 2.347a8.662 8.662 0 0 0-1.57 3.916 9.25 9.25 0 0 0 .724 3.859c.65 1.7 1.45 2.6 2.395 2.702.946.1 2.017-.622 3.213-2.168a7.133 7.133 0 0 0 1.672-3.598l.014.007z" fill="#000"/>
                <path d="M94.874 50.236c.504 1.299.75 2.683.724 4.075a7.133 7.133 0 0 1-1.686 3.613c-1.144 1.527-2.215 2.249-3.214 2.167-.998-.082-1.801-.987-2.41-2.716a9.25 9.25 0 0 1-.723-3.859c.2-1.42.75-2.767 1.6-3.923 1.138-1.715 2.233-2.497 3.285-2.348 1.052.15 1.86 1.146 2.424 2.991z" fill="#F4C963"/>
            </g>
            <path d="M74.539 115.06a14.49 14.49 0 0 1 2.554-.795c2.49-.538 5.03-.817 7.577-.83 1.331-.02 2.66.102 3.966.36 1.433.238 2.817.709 4.096 1.395-.339.719-.608 1.469-.803 2.24-.724 2.283-1.144 3.663-1.303 4.14-1.28 3.865-2.526 4.876-3.372 5.057-.847.18-3.04-.81-6.839-4.899a289.667 289.667 0 0 1-5.876-6.668z" fill="#652B15" fill-rule="nonzero"/>
            <path d="M78.693 121.071c.13-.425.468-.755.897-.874.37-.136.765-.192 1.158-.166a2.542 2.542 0 0 1 1.751.845 4.649 4.649 0 0 1 1.18 3.034c-.16-.057-.984-.52-2.497-1.38a84.313 84.313 0 0 1-2.49-1.459z" fill="#D65839" fill-rule="nonzero"/>
            <path d="M73.091 117.148a.724.724 0 0 1-.499-.239.722.722 0 0 1-.18-.657 1.79 1.79 0 0 1 .086-.239c.08-.147.185-.28.311-.39l.239-.166c.081-.058.168-.106.26-.144l.21-.08.203-.123a1.39 1.39 0 0 1 .34-.13 1.45 1.45 0 0 1 .37-.08.543.543 0 0 1 .354.073.462.462 0 0 1 .224.44v.189c.878 1.382 2.948 3.571 6.21 6.567 3.738 3.435 5.926 4.865 6.563 4.292a3.66 3.66 0 0 0 .724-1.445c.296-1.033.535-1.871.723-2.514a22.017 22.017 0 0 1 2.36-5.578.815.815 0 0 1-.073-.304.722.722 0 0 1 .123-.462.803.803 0 0 1 .377-.296c.15-.051.312-.051.463 0a.725.725 0 0 0 .231 0 .406.406 0 0 0 .16-.08.645.645 0 0 1 .303-.043c.222.004.442.028.659.072.185.027.36.097.514.202a.658.658 0 0 1 .333.427.52.52 0 0 1-.16.513.724.724 0 0 1-.354.115 9.17 9.17 0 0 0-1.05 2.168c-.217.621-.622 1.929-1.2 3.923-1.033 3.598-2.013 5.662-2.939 6.192-1.606.925-4.615-.65-9.024-4.725a64.438 64.438 0 0 1-4.632-4.762 30.558 30.558 0 0 1-2.229-2.716z" fill="#DFB34B" fill-rule="nonzero"/>
            <path d="M87.89 130.182c-1.91 0-4.63-1.676-8.38-5.144a64.279 64.279 0 0 1-4.682-4.805 23.126 23.126 0 0 1-2.583-3.295.592.592 0 0 1 .231-.795.58.58 0 0 1 .79.232 23.523 23.523 0 0 0 2.438 3.092 66.293 66.293 0 0 0 4.595 4.718c5.486 5.058 7.577 5.058 8.337 4.646.441-.253 1.368-1.344 2.67-5.853.58-1.986.985-3.323 1.209-3.952a7.114 7.114 0 0 1 1.606-2.84.587.587 0 0 1 .825.059.577.577 0 0 1-.057.816 6.052 6.052 0 0 0-1.274 2.363c-.217.6-.615 1.914-1.187 3.88-1.447 5.057-2.533 6.148-3.206 6.538a2.645 2.645 0 0 1-1.331.34zm-.499-3.006c-.998 0-2.808-1.09-6.607-4.58-3.618-3.31-5.731-5.614-6.513-7.023a.592.592 0 0 1 .673-.85.572.572 0 0 1 .347.279c.724 1.286 2.837 3.555 6.296 6.734 4.43 4.075 5.565 4.284 5.79 4.27.241-.36.418-.758.52-1.178.29-1.019.536-1.857.725-2.5a21.182 21.182 0 0 1 2.894-6.437.581.581 0 0 1 .941.679 20.027 20.027 0 0 0-2.735 6.09 160.39 160.39 0 0 0-.724 2.508 3.957 3.957 0 0 1-.883 1.726 1.05 1.05 0 0 1-.724.268v.014z" fill="#000" fill-rule="nonzero"/>
            <path d="M78.555 116.36c-1.406.057-2.798.3-4.14.723-1.514.265-2.296-.152-2.344-1.25-.043-.838.724-1.445 2.171-1.843l1.867-.411a6.064 6.064 0 0 0 1.52-.492c1.194-.896 2.17-1.604 3.025-2.167a7.969 7.969 0 0 1 4.277-1.496c1.1 0 2.46.569 4.081 1.705.442.304 1.057.723 1.846 1.359.488.38 1.012.714 1.563.997.815.332 1.665.574 2.533.722.89.31 1.28.853 1.187 1.633a.99.99 0 0 1-.768.91 4.885 4.885 0 0 1-1.548 0c-.941-.115-1.513-.166-1.73-.166a1.797 1.797 0 0 0-1.324.398 2.165 2.165 0 0 0-.427 1.51c0 .438.022 1.16.065 2.167 0 1.84-.574 2.775-1.722 2.804a3.49 3.49 0 0 1-1.947-1.077c-.268-.224-1.114-1.04-2.533-2.435-2.407-2.336-4.291-3.533-5.652-3.59z" fill="#DFB34B" fill-rule="nonzero"/>
            <path d="M88.708 124.113c-.615 0-1.353-.39-2.315-1.221-.275-.231-1.115-1.04-2.562-2.457-2.895-2.825-4.473-3.453-5.297-3.49a15.82 15.82 0 0 0-3.966.723h-.05a2.899 2.899 0 0 1-2.367-.347 1.87 1.87 0 0 1-.666-1.445c-.05-1.149.84-1.965 2.641-2.435l1.89-.419c.459-.08.906-.218 1.33-.412 1.188-.888 2.172-1.604 3.026-2.167a8.65 8.65 0 0 1 4.595-1.59c1.23 0 2.678.586 4.422 1.814.434.303 1.063.766 1.86 1.373.452.354.936.666 1.447.932.773.323 1.579.565 2.402.722h.073a2.009 2.009 0 0 1 1.577 2.254 1.576 1.576 0 0 1-1.194 1.402 5.153 5.153 0 0 1-1.765 0c-1.195-.144-1.55-.159-1.665-.159a1.348 1.348 0 0 0-.912.224c-.065.058-.239.29-.26 1.113 0 .419 0 1.134.065 2.124 0 1.264-.253 3.367-2.287 3.417l-.022.044zm-10.29-8.338h.159c1.527.058 3.517 1.308 6.072 3.822 1.75 1.712 2.33 2.254 2.503 2.399 1.02.881 1.448.946 1.564.94.318 0 1.172 0 1.143-2.212a36.832 36.832 0 0 1-.065-2.167c-.06-.696.159-1.387.608-1.922a2.347 2.347 0 0 1 1.73-.564c.151 0 .499 0 1.801.166.439.075.886.075 1.325 0a.412.412 0 0 0 .34-.419c.043-.36 0-.722-.767-.997-.9-.165-1.781-.424-2.627-.773a10.286 10.286 0 0 1-1.657-1.055 37.391 37.391 0 0 0-1.831-1.344c-1.513-1.069-2.765-1.61-3.735-1.61a7.526 7.526 0 0 0-3.973 1.444 53.84 53.84 0 0 0-2.981 2.11l-.065.043c-.533.264-1.101.45-1.686.557l-1.867.412c-.804.21-1.78.592-1.752 1.242 0 .427.181.55.232.593.436.214.938.255 1.404.115a17.683 17.683 0 0 1 4.125-.78z" fill="#000" fill-rule="nonzero"/>
            <path d="M108.219 91.137c.409 1.36.673 2.76.788 4.177a21.864 21.864 0 0 1-.043 4.674c-.434 3.497-1.775 6.146-4.024 7.948a9.162 9.162 0 0 1-4.139 1.813 11.111 11.111 0 0 1-4.422 0c-2.528-.51-4.378-1.59-5.55-3.237-.963-1.358-1.643-3.46-2.048-6.285a18.842 18.842 0 0 1-.16-3.403c0-.817.102-1.944.247-3.375.126-1.039.389-2.056.781-3.027.869-.607 3.339-1.505 7.41-2.695 4.386-1.296 7.04-1.741 7.961-1.336a8.075 8.075 0 0 1 1.773 2.008 10.614 10.614 0 0 1 1.397 2.753m-28.462-.614c.232.668.394 1.358.484 2.059.125.698.214 1.402.268 2.11.121 1.742.017 3.493-.311 5.209a15.157 15.157 0 0 1-1.628 4.66 9.185 9.185 0 0 1-4.255 3.894 11.385 11.385 0 0 1-5.233 1.055 14.073 14.073 0 0 1-5.37-1.2 11.372 11.372 0 0 1-4.616-3.85 11.627 11.627 0 0 1-1.824-5.412 25.58 25.58 0 0 1-.138-4.667 23.31 23.31 0 0 1 .724-4.501 11.069 11.069 0 0 1 1.896-3.822 8.232 8.232 0 0 1 2.837-2.442c.859-.203 3.102.411 6.73 1.842a72.671 72.671 0 0 1 10.465 5.05l-.03.015z" fill="#FFF" fill-rule="nonzero"/>
            <g fill-rule="nonzero">
                <path d="M70.696 101.151a4.416 4.416 0 0 1 1.578.89 6.945 6.945 0 0 1-1.6 2c-.738.541-1.639.816-2.554.78a3.622 3.622 0 0 1-2.555-.917 5.388 5.388 0 0 1-1.447-2.406 9.138 9.138 0 0 1 4.248-.809 7.877 7.877 0 0 1 2.33.462z" fill="#5A5A5A"/>
                <path d="M72.968 100.097a12.4 12.4 0 0 1-.723 1.958 4.416 4.416 0 0 0-1.549-.904 7.877 7.877 0 0 0-2.33-.476 9.138 9.138 0 0 0-4.248.809 13.83 13.83 0 0 1-.724-4.003 10.736 10.736 0 0 1 1.107-5.426 4.293 4.293 0 0 1 3.959-2.233 4.025 4.025 0 0 1 3.618 1.944c.883 1.378 1.305 3.44 1.267 6.185a9.797 9.797 0 0 1-.377 2.146z" fill="#000"/>
            </g>
            <g fill-rule="nonzero">
                <path d="M96.25 101.505c.691.251 1.358.568 1.99.947a4.936 4.936 0 0 1-1.63 2.11 4.348 4.348 0 0 1-2.785.664 3.454 3.454 0 0 1-2.425-1.105 5.964 5.964 0 0 1-1.288-2.543c.613-.204 1.243-.351 1.882-.441a8.814 8.814 0 0 1 2.272 0 7.559 7.559 0 0 1 1.983.368z" fill="#5A5A5A"/>
                <path d="M98.869 100.429a9.743 9.743 0 0 1-.659 2.059 11.413 11.413 0 0 0-1.99-.946 7.559 7.559 0 0 0-1.983-.398 8.814 8.814 0 0 0-2.272 0c-.64.09-1.27.238-1.882.44a14.27 14.27 0 0 1-.477-3.893 10.572 10.572 0 0 1 1.512-5.463 3.852 3.852 0 0 1 3.792-1.98 4.03 4.03 0 0 1 3.307 2.313c.753 1.445 1.07 3.424.948 5.939-.04.65-.14 1.296-.296 1.929z" fill="#000"/>
            </g>
            <path d="M94.498 110.76a8.854 8.854 0 0 1-2.171-1.892 11.24 11.24 0 0 1-1.23-1.944 12.38 12.38 0 0 0 1.91 1.445 8.692 8.692 0 0 0 3.358 1.308c1.746.259 3.529.103 5.203-.455a14.75 14.75 0 0 0 5.753-3.945 15.394 15.394 0 0 1-1.013 2.052 11.25 11.25 0 0 1-1.122 1.575 10.781 10.781 0 0 1-1.49 1.496 7.081 7.081 0 0 1-2.46 1.314 8.574 8.574 0 0 1-3.366.217 8.266 8.266 0 0 1-3.365-1.149m-35.402-6.285a8.28 8.28 0 0 0 1.6 1.582 15.827 15.827 0 0 0 8.401 3.193c3.186.239 6.312-.95 8.532-3.244a17.682 17.682 0 0 1-1.975 2.652 10.322 10.322 0 0 1-2.172 1.893 8.09 8.09 0 0 1-2.076.874 9.176 9.176 0 0 1-2.555.318 9.605 9.605 0 0 1-6.73-2.565 13.222 13.222 0 0 1-2.099-2.948 22.033 22.033 0 0 1-.933-1.777l.007.022z" fill="#4D382E" fill-rule="nonzero"/>
            <g fill-rule="nonzero">
                <path d="M52.438 80.423c.04-.105.088-.207.145-.304a.529.529 0 0 1 .477-.202c1.278.195 2.53.532 3.734 1.004 1.375.47 2.388.838 3.025 1.106-.094-1.445.24-2.016.999-1.814 1.323.43 2.618.938 3.879 1.525a48.382 48.382 0 0 1 4.733 2.283.823.823 0 0 1 0-.875.435.435 0 0 1 .586-.173 36.148 36.148 0 0 1 7.65 4.891c2.778 2.168 4.372 3.574 4.783 4.22.207.27.303.608.267.946-.058.342-.333.53-.825.564-2.229.1-4.461-.067-6.65-.499a69.188 69.188 0 0 1-13.026-3.85 21.714 21.714 0 0 1-7.483-4.834 12.192 12.192 0 0 1-1.903-2.406c-.391-.723-.521-1.236-.377-1.582m27.21 10.23a47.47 47.47 0 0 0-4.016-3.135c-3.199-2.283-4.887-3.362-5.066-3.237-.115.086-.094.31.058.672.085.177.182.348.29.513-.13.115-1.752-.561-4.863-2.03-3.112-1.47-4.77-2.12-4.972-1.951-.195.18-.224.52-.08 1.033.145.513.167.78.073.83a23.32 23.32 0 0 1-3.293-1.148c-2.229-.845-3.676-1.243-4.342-1.207.13.65.827 1.58 2.091 2.79a23.106 23.106 0 0 0 7.295 4.464 62.668 62.668 0 0 0 13.077 3.772c1.254.213 2.52.349 3.792.404.904 0 1.39 0 1.447-.144.058-.145-.434-.686-1.505-1.626h.014z" fill="#000"/>
                <path d="M75.632 87.518a47.47 47.47 0 0 1 4.016 3.135c1.071.94 1.563 1.445 1.447 1.626-.115.18-.55.166-1.447.144a30.608 30.608 0 0 1-3.792-.404 62.668 62.668 0 0 1-13.077-3.772 23.106 23.106 0 0 1-7.266-4.436c-1.264-1.204-1.96-2.134-2.091-2.789.666 0 2.113.362 4.342 1.207a23.32 23.32 0 0 0 3.293 1.149c.094-.05.072-.333-.073-.831-.144-.499-.115-.853.08-1.033.195-.181 1.853.49 4.972 1.95 3.119 1.46 4.732 2.168 4.863 2.03a4.449 4.449 0 0 1-.29-.512c-.152-.362-.173-.586-.058-.672.116-.087 1.882.946 5.08 3.208z" fill="#4D382E"/>
            </g>
            <g fill-rule="nonzero">
                <path d="M116.165 83.32a3.313 3.313 0 0 0-.116-.318.536.536 0 0 0-.449-.238 15.61 15.61 0 0 0-3.568.643c-1.324.34-2.294.62-2.894.83.152-1.394-.13-2.023-.854-1.885a29.88 29.88 0 0 0-3.742 1.17 44.019 44.019 0 0 0-4.573 1.85.873.873 0 0 0 .043-.86.42.42 0 0 0-.55-.224c-1.881.631-4.366 2.023-7.454 4.176-2.73 1.898-4.303 3.153-4.718 3.764a1.32 1.32 0 0 0-.297.91c.044.34.297.55.724.63 2.091.296 4.212.325 6.31.086a61.366 61.366 0 0 0 12.513-2.673 19.323 19.323 0 0 0 7.294-4.14 11.183 11.183 0 0 0 1.89-2.168c.349-.429.504-.984.426-1.531m-26.175 7.76a43.487 43.487 0 0 1 3.944-2.753c3.121-1.985 4.769-2.905 4.943-2.76.108.086.08.31-.087.657a5.352 5.352 0 0 1-.29.484c.116.125 1.68-.405 4.69-1.59 3.01-1.184 4.602-1.683 4.776-1.495.18.188.195.535 0 1.026-.196.491-.188.722-.101.816a21.173 21.173 0 0 0 3.162-.852c2.171-.636 3.532-.91 4.154-.817-.15.636-.852 1.496-2.106 2.58a20.534 20.534 0 0 1-7.092 3.786 55.7 55.7 0 0 1-12.534 2.6c-1.204.1-2.412.121-3.618.066-.854-.05-1.31-.145-1.368-.268-.058-.122.485-.664 1.541-1.502l-.014.021z" fill="#000"/>
                <path d="M93.933 88.327a43.487 43.487 0 0 0-3.944 2.753c-1.056.838-1.548 1.329-1.447 1.48.101.152.514.218 1.368.268 1.206.056 2.415.034 3.618-.065a55.7 55.7 0 0 0 12.534-2.601 20.534 20.534 0 0 0 7.092-3.786c1.254-1.084 1.956-1.943 2.106-2.58-.622-.093-2.012.181-4.154.817-1.03.366-2.088.65-3.162.853-.087-.058-.051-.333.101-.817.152-.484.152-.838 0-1.026-.152-.188-1.766.318-4.776 1.496s-4.574 1.712-4.69 1.59c.105-.157.202-.318.29-.485.166-.346.195-.57.087-.657-.109-.087-1.904.773-5.023 2.76z" fill="#4D382E"/>
            </g>
            <g fill-rule="nonzero">
                <path d="M34.78 176.213a131.486 131.486 0 0 1 17.368-.043c5.335.293 10.65.876 15.921 1.748a87.25 87.25 0 0 1 15.378 4.075 60.953 60.953 0 0 1 12.115 5.917 28.208 28.208 0 0 1 7.685 6.871c1.746 2.438 2.434 4.75 2.062 6.937-.371 2.186-1.703 4.373-3.994 6.56a29.796 29.796 0 0 1-9.126 5.498 50.152 50.152 0 0 1-13.178 3.215c-5.4.588-10.852.484-16.225-.31-18.7-2.717-32.15-7.367-40.352-13.952a23.271 23.271 0 0 1-7.106-8.872 16.052 16.052 0 0 1-1.216-8.519c.362-2.673 2.533-4.797 6.513-6.372 3.483-1.387 8.207-2.305 14.17-2.753m1.136 1.394c-5.968.405-10.708 1.219-14.22 2.442-4.005 1.388-6.142 3.225-6.412 5.513-.303 2.745.2 5.519 1.447 7.984a23.854 23.854 0 0 0 7.302 8.482c8.298 6.387 21.462 10.814 39.491 13.28 11.01 1.484 20.692.378 29.048-3.316a28.721 28.721 0 0 0 8.142-5.188c1.93-1.845 3.013-3.567 3.249-5.166.333-2.24-.567-4.593-2.7-7.059a33.456 33.456 0 0 0-8.532-6.604 71.793 71.793 0 0 0-11.882-5.411 77.974 77.974 0 0 0-12.78-3.447 124.455 124.455 0 0 0-15.06-1.59 139.96 139.96 0 0 0-17.108.08h.015z" fill="#000"/>
                <path d="M21.71 180.05c3.508-1.22 8.248-2.033 14.22-2.443a139.96 139.96 0 0 1 17.108-.065c5.048.224 10.077.755 15.06 1.59a77.974 77.974 0 0 1 12.78 3.446 71.793 71.793 0 0 1 11.883 5.412 33.456 33.456 0 0 1 8.554 6.604c2.127 2.47 3.027 4.824 2.7 7.059-.232 1.604-1.316 3.325-3.25 5.165a28.721 28.721 0 0 1-8.142 5.188c-8.38 3.695-18.075 4.795-29.084 3.302-18.024-2.476-31.198-6.907-39.52-13.294a23.854 23.854 0 0 1-7.302-8.468 14.228 14.228 0 0 1-1.447-7.984c.285-2.283 2.431-4.12 6.44-5.513z" fill="#4D382E"/>
            </g>
            <g fill-rule="nonzero">
                <path d="M100.403 136.966a42.46 42.46 0 0 1 7.816-.21c2.265.167 3.77.441 4.494.832a176.267 176.267 0 0 1 1.91 23.95c.169 9.297-.27 16.818-1.317 22.565a53.12 53.12 0 0 1-5.739 16.35 38.884 38.884 0 0 1-2.952 4.668 9.715 9.715 0 0 1-1.7 1.943c-7.194 1.778-16.12 2.401-26.777 1.871 1.062-2.437 2.178-5.327 3.35-8.67a92.115 92.115 0 0 0 4.459-17.47 217.52 217.52 0 0 0 1.447-22.839c.11-4.927.18-10.266.21-16.018 2.6-3.776 7.543-6.093 14.828-6.95m-68.64-17.34c.434-.395 1.488-.077 3.162.953.29.188 2.301 1.58 6.035 4.176 6.962 4.817 13.065 7.96 18.31 9.43a146.964 146.964 0 0 1 18.33 6.379c2.895 1.248 5.155 2.312 6.78 3.193a802.782 802.782 0 0 1-.296 15.34c-.309 10.88-.791 18.546-1.447 22.997a89.835 89.835 0 0 1-4.509 17.745 66.111 66.111 0 0 1-3.937 9.11 110.758 110.758 0 0 1-40.764-8.77 85.665 85.665 0 0 1-13.026-6.872 35.348 35.348 0 0 1-7.15-5.78c-.483-.54-.483-4.152 0-10.838.231-3.371.518-6.743.86-10.115a99.204 99.204 0 0 1 5.255-22.166c2.706-7.418 6.829-15.693 12.367-24.826l.03.044z" fill="#4E729E"/>
                <path d="M31.234 119.438c.239.21.42.267.528.166-5.533 9.152-9.656 17.427-12.367 24.826a99.204 99.204 0 0 0-5.203 22.16 340.314 340.314 0 0 0-.862 10.114c-.482 6.696-.482 10.308 0 10.838a35.348 35.348 0 0 0 7.15 5.78 85.665 85.665 0 0 0 13.026 6.871 110.758 110.758 0 0 0 40.765 8.771 66.11 66.11 0 0 0 3.886-9.103 89.834 89.834 0 0 0 4.494-17.788c.637-4.451 1.12-12.117 1.448-22.998a804.29 804.29 0 0 0 .296-15.339c.188-.013.377.019.55.094.204.085.426.115.644.087a920.425 920.425 0 0 1-.21 16.018 217.52 217.52 0 0 1-1.432 22.86 92.115 92.115 0 0 1-4.451 17.463c-1.172 3.372-2.29 6.262-3.35 8.67 10.676.53 19.601-.094 26.775-1.871a9.715 9.715 0 0 0 1.701-1.944 38.884 38.884 0 0 0 2.953-4.667 53.12 53.12 0 0 0 5.738-16.35c1.042-5.742 1.481-13.263 1.317-22.564-.09-8.018-.73-16.02-1.91-23.952l.6-.289c.406-.135.63-.055.674.239a174.962 174.962 0 0 1 1.794 21.516c.295 10.024-.089 18.431-1.15 25.223a51.303 51.303 0 0 1-4.408 14.067 44.481 44.481 0 0 1-6.172 9.884 70.475 70.475 0 0 1-13.164 2.03c-5.725.45-11.472.546-17.21.29a119.45 119.45 0 0 1-38.513-7.948 87.514 87.514 0 0 1-13.822-6.792 45.177 45.177 0 0 1-9.176-7.08c-.652-2.149-.763-6.356-.333-12.623.226-3.13.511-6.057.854-8.778a103.898 103.898 0 0 1 4.82-21.675c2.797-8.044 7.197-16.943 13.2-26.697.164.172.338.336.52.491z" fill="#000"/>
            </g>
            <g fill-rule="nonzero">
                <path d="m101.148 153.526 5.754-1.445c1.447-.318 2.351-.397 2.8-.231.666.25 1.255 1.611 1.766 4.082.482 2.35.613 4.005.39 4.964a.81.81 0 0 1-.347.484.985.985 0 0 1-.441.202 69.094 69.094 0 0 1-.905 10.115c-.554 3.728-1 5.8-1.338 6.214-.59.732-3.037 1.324-7.346 1.777a69.388 69.388 0 0 1-7.396.333c-2.566 0-4.03-.143-4.392-.427-.29-.202-.283-2.622 0-7.225.325-4.97.477-7.485.47-7.557a.81.81 0 0 1-.622-.492 7.735 7.735 0 0 1-.362-1.546 26.531 26.531 0 0 1-.13-3.757 12.71 12.71 0 0 1 .274-3.33c.095-.217 1.209-.427 3.337-.63 2.856-.27 5.69-.752 8.474-1.444m5.442-.282a251.174 251.174 0 0 1-5.609 1.33 69.88 69.88 0 0 1-7.048 1.134c-2.195.26-3.353.477-3.474.65-.217.29-.311 1.488-.29 3.613.022 2.124.174 3.287.428 3.482.253.195 1.541.195 3.915 0 2.007-.13 3.896-.31 5.666-.542a67.74 67.74 0 0 0 6.803-1.264c2.412-.578 3.693-1.038 3.842-1.38.242-.65.133-1.994-.325-4.032-.459-2.037-.898-3.167-1.317-3.388-.174-.101-1.042 0-2.591.39m-7.367 10.837c-2.21.246-4.834.448-7.874.607-.357 4.957-.552 7.767-.586 8.432-.217 3.533-.253 5.376-.108 5.513.144.137 1.353.202 3.56.159 1.91-.044 4.22-.145 6.926-.318a32.47 32.47 0 0 0 4.515-.614 7.782 7.782 0 0 0 2.106-.593c.362-.325.832-2.297 1.448-5.932a38.86 38.86 0 0 0 .622-9.392 78.623 78.623 0 0 1-10.573 2.131m-47.864-4.364a1.88 1.88 0 0 1-.919-.794 1.998 1.998 0 0 1 .036-.839c.35-1.775.852-3.518 1.498-5.209.893-2.442 1.573-3.764 2.041-3.966.246-.106 1.56.279 3.944 1.156a61.84 61.84 0 0 0 8.221 2.463c2.253.482 5.003.995 8.25 1.54 1.344.184 2.673.46 3.98.823.521.226.832 1.758.934 4.595.087 2.623 0 4.241-.188 4.855a1.266 1.266 0 0 1-.948.759c-.095 0-.398.072-.92.137a62.038 62.038 0 0 1-.528 6.416c-.434 4.039-.81 6.25-1.114 6.647-.304.398-1.68.665-4.046.723a48.81 48.81 0 0 1-6.382-.275 46.132 46.132 0 0 1-10.132-2.29c-3.264-1.106-5.109-2.023-5.521-2.753-.413-.73-.522-1.915-.391-3.714a53.608 53.608 0 0 1 2.17-10.28m1.369-5.665c-.797 2.434-1.13 3.786-1.014 4.06.414.403.907.715 1.448.918a39.495 39.495 0 0 0 3.618 1.582 52.174 52.174 0 0 0 12.237 3.006c1.694.202 3.532.34 5.515.411 2.17.087 3.394 0 3.56-.18.167-.18.26-1.525.188-3.916-.072-2.392-.195-3.714-.398-3.96-.202-.245-1.2-.433-3.184-.78-3.177-.542-5.673-1.011-7.468-1.445a80.427 80.427 0 0 1-8.43-2.45c-2.746-.924-4.215-1.336-4.408-1.235-.311.167-.861 1.481-1.664 3.952m4.29 7.948c-1.186-.426-2.698-1.033-4.53-1.842a36.898 36.898 0 0 0-1.946 8.75c-.224 2.405-.18 3.807.13 4.219.311.412 1.759 1.206 4.169 2.167a40.065 40.065 0 0 0 9.842 2.363 60.16 60.16 0 0 0 6.419.368c2.17 0 3.394-.115 3.618-.375.224-.26.441-1.922.774-5.145.463-4.335.724-6.712.796-7.225-.658 0-1.556 0-2.692-.094-2.25-.137-4.82-.44-7.721-.903a50.15 50.15 0 0 1-8.858-2.276v-.007z" fill="#000"/>
                <path d="M91.35 164.66c3.04-.159 5.664-.361 7.873-.607a78.623 78.623 0 0 0 10.573-2.131 38.86 38.86 0 0 1-.622 9.392c-.58 3.613-1.05 5.607-1.447 5.932-.67.296-1.38.495-2.106.593a32.47 32.47 0 0 1-4.516.614c-2.707.173-5.015.274-6.926.318-2.17.043-3.394 0-3.56-.16-.167-.158-.109-1.979.108-5.512.039-.665.234-3.475.587-8.432m-38.854-4.465c1.83.81 3.343 1.445 4.53 1.843a50.151 50.151 0 0 0 8.865 2.275c2.894.463 5.47.766 7.721.904 1.136.08 2.034.108 2.692.094-.072.484-.332 2.89-.796 7.225-.333 3.222-.593 4.942-.774 5.144-.18.202-1.447.383-3.618.376a60.16 60.16 0 0 1-6.42-.369 40.065 40.065 0 0 1-9.841-2.363c-2.413-.924-3.802-1.647-4.169-2.167-.31-.412-.354-1.814-.13-4.22.3-2.985.964-5.923 1.976-8.75l-.036.008z" fill="#4E729E"/>
                <path d="M100.982 154.574c1.476-.333 3.346-.776 5.608-1.33 1.549-.36 2.417-.49 2.591-.39.425.227.864 1.356 1.317 3.389.454 2.032.562 3.376.326 4.031-.13.342-1.411.802-3.843 1.38a67.74 67.74 0 0 1-6.802 1.265 88.278 88.278 0 0 1-5.667.542c-2.373.163-3.678.163-3.915 0-.253-.195-.398-1.359-.427-3.483-.029-2.124.073-3.302.29-3.612.12-.174 1.278-.39 3.473-.65a69.88 69.88 0 0 0 7.049-1.135m-49.26 3.613c-.116-.275.216-1.626 1.013-4.06.796-2.436 1.353-3.787 1.664-3.953.193-.101 1.662.31 4.407 1.235a80.426 80.426 0 0 0 8.43 2.479c1.796.397 4.292.867 7.47 1.445 1.982.346 3.039.607 3.183.78.145.173.333 1.568.398 3.96.066 2.39 0 3.691-.188 3.915-.188.224-1.353.268-3.56.18a67.322 67.322 0 0 1-5.515-.41 52.174 52.174 0 0 1-12.237-3.007 39.495 39.495 0 0 1-3.618-1.582 4.176 4.176 0 0 1-1.448-.99v.008z" fill="#2C4667"/>
            </g>
            <g fill-rule="nonzero">
                <path d="M28.376 120.905c.072-.617 1.22-2.22 3.444-4.812 2.171-2.522 3.373-3.772 3.619-3.743.11.492.258.975.441 1.445a14.444 14.444 0 0 0 2.171 3.786c3.329 4.23 9.176 8.242 17.542 12.037a79.833 79.833 0 0 0 18.743 6.055 65.97 65.97 0 0 0 5.269.722c.782.035 1.56.141 2.323.318.529.437.942.998 1.2 1.633.203.39.87 1.734 1.99 4.046l1.1-2.608c.821-1.768 1.424-2.712 1.81-2.832.386-.12 2.075-.361 5.066-.723a79.258 79.258 0 0 0 11.072-2.456 37.662 37.662 0 0 0 6.072-2.66c1.317-.678 2.504-1.314 3.56-1.907.376.044.837 1.407 1.382 4.09.546 2.683.72 4.239.521 4.667-.188.484-.948 1.25-2.272 2.312a60.7 60.7 0 0 1-6.028 4.111 64.453 64.453 0 0 1-10.001 4.755c-3.484 1.353-5.413 2.008-5.79 1.965-.275 0-.644-1.012-1.1-2.89a37.644 37.644 0 0 1-.962-6.597 29.024 29.024 0 0 1-3.257 3.273l-1.194.874a7.608 7.608 0 0 0-1.447-1.343c-1.006-.795-1.961-1.496-2.895-2.089-.854 2.32-1.52 4.003-1.983 5.058-.815 1.85-1.609 2.729-2.38 2.637a56.38 56.38 0 0 1-14.612-4.082 94.143 94.143 0 0 1-28.085-18.33 44.05 44.05 0 0 1-3.995-4.335c-.931-1.18-1.373-1.968-1.324-2.363m6.513-6.502c-3.633 3.853-5.399 6.04-5.298 6.56a7.42 7.42 0 0 0 1.296 1.922 49.885 49.885 0 0 0 3.69 3.96 79.672 79.672 0 0 0 14.778 11.14 110.063 110.063 0 0 0 13.83 7.168 50.498 50.498 0 0 0 13.026 3.381c.385 0 1.11-1.173 2.17-3.519a45.786 45.786 0 0 0 1.817-4.544c.615.347 2.019 1.315 4.212 2.89-.311-.52-.92-1.72-1.817-3.613-.651-1.336-1.092-2.066-1.338-2.167-.044 0-.652-.058-1.831-.116a36.435 36.435 0 0 1-4.777-.549c-5.702-.963-12.372-3.145-20.01-6.546a54.393 54.393 0 0 1-14.11-8.562c-3.055-2.673-4.939-5.134-5.653-7.384m54.471 23.467a2.675 2.675 0 0 0-1.447 1.445 139.79 139.79 0 0 1-2.04 4.213 23.93 23.93 0 0 0 2.698-2.544c.977-1.04 1.52-1.553 1.636-1.538.116.014.405 1.632.948 4.876.543 3.245.933 4.935 1.122 5.007.188.073 1.787-.44 4.71-1.582a91.002 91.002 0 0 0 9.191-4.147 39.028 39.028 0 0 0 5.877-3.8c1.577-1.25 2.402-2.038 2.467-2.377.198-.964-.159-3.19-1.07-6.676 0 0-1.036.47-3.084 1.488a42.494 42.494 0 0 1-6.086 2.608 68.74 68.74 0 0 1-10.377 2.428c-2.707.34-4.255.527-4.53.6h-.015z" fill="#000"/>
                <path d="M87.89 139.387a2.675 2.675 0 0 1 1.448-1.445c.275-.073 1.787-.26 4.523-.564a68.74 68.74 0 0 0 10.377-2.428 42.494 42.494 0 0 0 6.087-2.608c2.05-1.021 3.078-1.517 3.082-1.488.912 3.482 1.27 5.708 1.071 6.676-.065.34-.89 1.127-2.467 2.377a39.028 39.028 0 0 1-5.877 3.8 91.002 91.002 0 0 1-9.19 4.147c-2.924 1.142-4.494 1.67-4.711 1.583-.217-.087-.591-1.756-1.122-5.007-.54-3.242-.856-4.868-.948-4.877-.116 0-.659.498-1.636 1.539a23.93 23.93 0 0 1-2.699 2.543 139.79 139.79 0 0 0 2.04-4.212m-58.277-18.424c-.1-.54 1.665-2.727 5.298-6.56.719 2.254 2.602 4.715 5.652 7.383a54.393 54.393 0 0 0 14.09 8.57c7.642 3.371 14.311 5.553 20.01 6.545 1.577.288 3.173.472 4.775.55 1.18.057 1.788.093 1.831.115.246.13.724.86 1.34 2.168.896 1.864 1.504 3.063 1.816 3.612-2.172-1.604-3.619-2.572-4.212-2.89a45.786 45.786 0 0 1-1.817 4.545c-1.047 2.37-1.77 3.542-2.17 3.518a50.498 50.498 0 0 1-13.027-3.381 110.063 110.063 0 0 1-13.822-7.175 79.673 79.673 0 0 1-14.777-11.097 49.885 49.885 0 0 1-3.691-3.96A7.42 7.42 0 0 1 29.59 121z" fill="#4E729E"/>
            </g>
            <g fill-rule="nonzero">
                <path d="M160.765 119.937a8.453 8.453 0 0 1-.55-1.286 2.727 2.727 0 0 1-.123-.499.455.455 0 0 1 .094-.34.615.615 0 0 1 .441-.252l.224.108c.194.138.367.304.514.491a6.236 6.236 0 0 1 1.071 2.97 8.218 8.218 0 0 1-1.143 5.86 6.218 6.218 0 0 1-1.628 1.726 4.1 4.1 0 0 1-1.802.766 6.414 6.414 0 0 1-3.33-.52l-1.164-.528a1.739 1.739 0 0 0-.724-.202c-.127.04-.245.104-.347.188a1.76 1.76 0 0 1-.724.246 7.545 7.545 0 0 1-1.05-.058 10.444 10.444 0 0 1-1.092-.152 7.467 7.467 0 0 1-1.672-.759 2.427 2.427 0 0 0-1.353-.411 3.484 3.484 0 0 0-1.447.549 3.173 3.173 0 0 1-1.274.513 5.92 5.92 0 0 1-3.495-.629 7.456 7.456 0 0 1-3.25-3.013c-.188-.31-.47-.86-.84-1.647a10.477 10.477 0 0 0-.527-1.048c-.883-.614-2.33-.99-4.343-1.112a17.664 17.664 0 0 0-3.618.08c-2.453.353-4.233 1.076-5.326 2.167-.366.347-.65.772-.832 1.242-.121.27-.171.566-.145.86.08.74.427 1.426.977 1.93a4.49 4.49 0 0 0 1.968.888c.878.169 1.765.287 2.656.354 1.397.123 2.41.238 3.032.332a10.943 10.943 0 0 1 5.97 2.71c1.964 1.893 3.238 4.853 3.822 8.88.19 1.591.229 3.198.115 4.797a64.468 64.468 0 0 1-.354 4.169c-.483 4.075-1.06 6.457-1.73 7.145a43.793 43.793 0 0 0 0 4.964c.05.968.13 1.813.24 2.543a39.364 39.364 0 0 0 1.092 5.498c.333 1.077-1.209 1.8-.087 2.01.188.086 4.342.115 5.13.144.681 0 1.788-.051 3.315-.188a15.602 15.602 0 0 0 4.19-.932 22.716 22.716 0 0 0 3.858-1.944 20.968 20.968 0 0 0 5.427-5.621c1.86-2.724 2.7-5.26 3.865-8.237a54.343 54.343 0 0 0 1.867-5.715c.477-1.77.948-3.72 1.396-5.838a42.604 42.604 0 0 0 .275-15.23c-.81-5.424-2.56-9.472-5.246-12.145-.96-1-2.143-1.76-3.452-2.219a6.429 6.429 0 0 0-3.076-.332 6.515 6.515 0 0 0-4.574 2.652c-1.317 1.835-1.736 4.4-1.259 7.694a5.058 5.058 0 0 0 2.403 3.505 6.036 6.036 0 0 0 4.342 1.098 3.987 3.987 0 0 0 2.786-1.973 6.667 6.667 0 0 0 .876-4.725 4.914 4.914 0 0 0-.413-1.517m-16.152-8.23a7.248 7.248 0 0 0-3.35-.245c-2.128.31-3.62 1.243-4.48 2.796a7.842 7.842 0 0 0-.652 5.007 9.647 9.647 0 0 0 3.177 6.286 6.682 6.682 0 0 0 2.28 1.271 4.755 4.755 0 0 0 2.12.217 3.58 3.58 0 0 0 .854-.274c.34-.145.507-.253.5-.318a1.676 1.676 0 0 0-.45-.723c-.491-.549-.788-.889-.89-1.033a9.607 9.607 0 0 1-1.743-4.552 10.417 10.417 0 0 1 .615-5.643 6.424 6.424 0 0 1 2.019-2.781m7.743 1.792a5.873 5.873 0 0 1 2.092-1.063 4.843 4.843 0 0 0-2.67-1.553 6.958 6.958 0 0 0-3.735-.137c-1.172.294-2.352 1.276-3.539 2.948-1.187 1.676-1.585 3.865-1.187 6.589a7.894 7.894 0 0 0 3.098 5.491 8.049 8.049 0 0 0 4.979 1.568c-.45-.485-.873-.994-1.267-1.525a7.036 7.036 0 0 1-.68-2.492 11.955 11.955 0 0 1 1.129-7.594 7.494 7.494 0 0 1 1.824-2.312l-.044.08z" fill="#997F68"/>
                <path d="M154.042 110.689c-.711-.422-1.463-.77-2.244-1.04a5.276 5.276 0 0 0-2.764-.37 7.36 7.36 0 0 0-2.381.882c-.521.296-.847.477-.962.556a4.63 4.63 0 0 0-1.506-.513 9.169 9.169 0 0 0-3.965-.05 6.71 6.71 0 0 0-4.039 2.623 7.642 7.642 0 0 0-1.404 6.12l.355 1.502a17.762 17.762 0 0 0-3.46-.722 19.636 19.636 0 0 0-5.535.159 8.044 8.044 0 0 0-4.994 2.644 3.797 3.797 0 0 0-1.056 3.092 4.055 4.055 0 0 0 3.054 3.613c.874.226 1.769.369 2.67.426 1.846.166 2.895.26 3.025.29a10.56 10.56 0 0 1 5.927 2.398c1.93 1.772 3.194 4.662 3.792 8.67.175 1.08.22 2.176.13 3.266 0 .238-.05.462-.065.686-.166 1.676-.253 2.724-.268 3.136-.014.412-.13 1.531-.325 3.179a166.516 166.516 0 0 1-.724 5.267c.19.038.386.01.557-.08.685-.684 1.262-3.065 1.73-7.145.174-1.54.297-2.926.355-4.17a25.32 25.32 0 0 0-.116-4.797c-.589-4.031-1.863-6.991-3.821-8.88a10.943 10.943 0 0 0-5.97-2.709c-.623-.094-1.636-.21-3.033-.332a23.323 23.323 0 0 1-2.656-.354 4.49 4.49 0 0 1-1.968-.889 3.062 3.062 0 0 1-.977-1.929c-.026-.294.024-.59.145-.86.182-.47.466-.894.832-1.242 1.093-1.084 2.895-1.807 5.326-2.168 1.2-.15 2.413-.177 3.619-.08 2.011.124 3.459.5 4.342 1.113.195.34.372.69.528 1.048.369.788.651 1.337.84 1.647a7.456 7.456 0 0 0 3.249 3.013 5.92 5.92 0 0 0 3.495.629 3.173 3.173 0 0 0 1.274-.513c.435-.29.93-.477 1.447-.55.482 0 .953.144 1.353.413.524.32 1.086.575 1.672.758.33.077.663.137.999.18.329.042.66.061.991.059a1.76 1.76 0 0 0 .724-.246c.102-.084.22-.148.347-.188.253.014.5.083.724.202l1.165.528a6.414 6.414 0 0 0 3.329.52 4.1 4.1 0 0 0 1.802-.766 6.218 6.218 0 0 0 1.628-1.727 8.218 8.218 0 0 0 1.143-5.86 6.236 6.236 0 0 0-1.07-2.969 2.495 2.495 0 0 0-.514-.491l-.225-.108a.615.615 0 0 0-.441.252.455.455 0 0 0-.094.34c.025.17.066.337.123.499.147.443.331.873.55 1.286.218.48.357.992.412 1.517a6.667 6.667 0 0 1-.875 4.725 3.987 3.987 0 0 1-2.787 1.973 6.036 6.036 0 0 1-4.342-1.099 5.058 5.058 0 0 1-2.402-3.504c-.483-3.294-.063-5.86 1.259-7.695a6.515 6.515 0 0 1 4.574-2.651 6.429 6.429 0 0 1 3.075.332 8.845 8.845 0 0 1 3.452 2.218c2.692 2.674 4.441 6.722 5.247 12.146a42.604 42.604 0 0 1-.275 15.23c-.449 2.117-.92 4.068-1.397 5.838a54.343 54.343 0 0 1-1.867 5.715c-1.165 2.977-2.005 5.513-3.864 8.237a20.968 20.968 0 0 1-5.428 5.62 22.716 22.716 0 0 1-3.857 1.944 15.602 15.602 0 0 1-4.19.932c-1.527.138-2.634.203-3.315.188-.825 0-3.705-.094-4.24-.086.183.411.427.794.723 1.134.398 0 3.358.087 5.066 0a28.338 28.338 0 0 0 5.514-.838 20.195 20.195 0 0 0 5.66-2.89c1.975-1.308 3.618-3.447 5.92-7.045 2.568-4.053 4.725-11.791 4.862-12.282a185.97 185.97 0 0 0 1.773-7.088c.49-2.527.744-5.093.76-7.666a47.093 47.093 0 0 0-1.078-9.848c-.897-4.186-2.215-7.21-3.951-9.074a12.649 12.649 0 0 0-4.965-3.613 10.451 10.451 0 0 0-4.617-.513 21.085 21.085 0 0 0-1.512-1.134m.405 1.712a5.873 5.873 0 0 0-2.091 1.062 7.494 7.494 0 0 0-1.78 2.233 11.955 11.955 0 0 0-1.13 7.593c.071.866.302 1.71.68 2.493.394.531.817 1.04 1.267 1.524a8.049 8.049 0 0 1-4.979-1.567 7.894 7.894 0 0 1-3.097-5.492c-.398-2.723 0-4.913 1.187-6.589 1.187-1.676 2.366-2.651 3.538-2.948a6.958 6.958 0 0 1 3.735.138 4.843 4.843 0 0 1 2.67 1.553m-13.185-.975a7.248 7.248 0 0 1 3.35.245 6.424 6.424 0 0 0-2.019 2.782 10.417 10.417 0 0 0-.615 5.643c.18 1.641.78 3.209 1.744 4.552.101.144.398.484.89 1.033.21.198.364.447.449.722 0 .065-.16.174-.5.318a3.58 3.58 0 0 1-.853.275c-.714.089-1.44.015-2.12-.217a6.682 6.682 0 0 1-2.28-1.272 9.647 9.647 0 0 1-3.177-6.286 7.842 7.842 0 0 1 .651-5.007c.854-1.517 2.352-2.449 4.48-2.76v-.028z" fill="#000"/>
            </g>
            <g fill-rule="nonzero">
                <path d="M29.237 121.685a.42.42 0 0 1 .369.137.448.448 0 0 1 .166.354.851.851 0 0 1 0 .362c0 .036-.094.072-.31.108-.334.05-.942.108-1.832.166l-1.447.072c-3.444.268-6.87.732-10.262 1.388l-6.795 1.2c-1.107.18-2.265.39-3.467.62-1.288.56-1.886 2.17-1.794 4.834.11 2.962 1.047 8.114 2.808 15.455 1.683 7.051 3.461 10.818 5.333 11.3l5.732.383c.825.057.875.997-.167 1.033l-1.208-.08a5.97 5.97 0 0 1-1.028 1.243 6.906 6.906 0 0 1-2.685 1.553c-1.237.29-2.51.39-3.777.297a17.02 17.02 0 0 0-2.635 0 17.24 17.24 0 0 0-2.366.939l-.166.05a5.798 5.798 0 0 1-2.78-.383 5.296 5.296 0 0 1-2.17-1.77 11.894 11.894 0 0 1-1.317-2.355 62.444 62.444 0 0 1-3.691-10.484 55.336 55.336 0 0 1-1.802-9.819 38.275 38.275 0 0 1-.123-5.512 7.939 7.939 0 0 1 1.006-2.948 4.087 4.087 0 0 1 2.446-2.045c.582-.186 1.18-.32 1.787-.397a10.72 10.72 0 0 1 1.136-1.705 4.725 4.725 0 0 1 2.077-1.518c.91-.33 1.859-.546 2.823-.643a10.046 10.046 0 0 1 3.307.116c.92.177 1.819.456 2.677.83 8.974-1.589 15.69-2.494 20.148-2.716m-23.824 3.316c.521-.1 1.035-.202 1.549-.289-.239-.065-.492-.122-.724-.18a8.756 8.756 0 0 0-2.96-.109c-.88.095-1.748.291-2.583.586a3.9 3.9 0 0 0-1.643 1.228c-.46.53-.867 1.104-1.216 1.712a.245.245 0 0 1-.05.123c0 .072-.073.16-.116.246-.181.433-.326.766-.442.997-.115.231-.296.722-.564 1.445-.268.722-.434.99-.507.722a7.213 7.213 0 0 1-.159-.845 1.63 1.63 0 0 1 0-.6c.196-.65.37-1.199.514-1.64-.275.065-.608.152-.999.268a3.132 3.132 0 0 0-1.823 1.553 6.885 6.885 0 0 0-.869 2.558 36.977 36.977 0 0 0 .123 5.339 55.207 55.207 0 0 0 1.773 9.624A64.306 64.306 0 0 0-1.67 158.12c.322.759.717 1.485 1.18 2.168a4.34 4.34 0 0 0 1.707 1.445 4.979 4.979 0 0 0 2.171.303c.81-.408 1.655-.742 2.526-.997a18.665 18.665 0 0 1 2.894 0c1.16.097 2.327.012 3.46-.253a5.69 5.69 0 0 0 2.779-1.87l-3.243-.218h-.086c-2.263-.375-4.316-4.402-6.159-12.08-1.766-7.442-2.709-12.663-2.83-15.664-.115-3.314.724-5.267 2.519-5.86a.109.109 0 0 1 .087 0m-9.43 14.292c.044-.86.13-1.864.26-3.006l.044-.368c.184.905.425 1.895.724 2.969.171 2.21.471 4.407.897 6.582.038.835.125 1.668.26 2.493v.419a36.225 36.225 0 0 1-1.287-2.753v-.072a58.558 58.558 0 0 1-.898-6.264z" fill="#000"/>
                <path d="M6.955 124.777c-.514.087-1.028.188-1.549.29a.109.109 0 0 0-.087 0c-1.794.592-2.634 2.545-2.518 5.859.116 2.996 1.059 8.217 2.83 15.664 1.838 7.683 3.89 11.71 6.158 12.08h.087l3.242.217a5.69 5.69 0 0 1-2.779 1.871c-1.133.265-2.3.35-3.46.253a18.665 18.665 0 0 0-2.894 0c-.87.255-1.716.589-2.526.997a4.979 4.979 0 0 1-2.17-.303A4.34 4.34 0 0 1-.42 160.26a12.833 12.833 0 0 1-1.18-2.168 64.306 64.306 0 0 1-3.618-10.317 54.528 54.528 0 0 1-1.773-9.624 35.909 35.909 0 0 1-.123-5.34c.117-.9.412-1.77.868-2.557a3.132 3.132 0 0 1 1.824-1.553c.39-.116.723-.203.998-.268-.144.441-.318.99-.513 1.64a1.63 1.63 0 0 0 0 .6c0 .26.094.542.159.845.065.304.239.066.506-.722.268-.788.456-1.257.565-1.445.108-.188.26-.564.441-.997.044-.087.087-.174.116-.246a.245.245 0 0 0 .05-.123c.325-.615.708-1.198 1.144-1.74a3.9 3.9 0 0 1 1.643-1.23c.835-.294 1.702-.49 2.583-.584a8.756 8.756 0 0 1 2.96.108c.26.058.514.116.724.18m-10.79 11.662a50.017 50.017 0 0 0-.26 3.006c.178 2.102.47 4.193.875 6.264v.072c.333.816.767 1.734 1.288 2.753v-.42a21.367 21.367 0 0 1-.239-2.492 57.237 57.237 0 0 1-.904-6.582c-.3-1.079-.54-2.069-.724-2.97l-.043.369m35.916-7.052a22.848 22.848 0 0 1 1.063 6.344c0 .83-.058 1.727-.152 2.702a28.139 28.139 0 0 1-1.62 7.456 17.394 17.394 0 0 1-4.06 6.41c-.297.28-.782.722-1.448 1.314-.666.593-1.107.997-1.447 1.322-.203.21-.514.564-.94 1.062a.238.238 0 0 1 0 .101 2.89 2.89 0 0 1-.725.918 1.315 1.315 0 0 1-.332.448l-.312.26-.224.239-.398.252-.18.152-.334.188c-.065 0-.217.108-.456.246-.05 0-.13.05-.123.036a.548.548 0 0 0-.101-.347.485.485 0 0 0-.37-.188l-7.88-.527c-1.867-.482-3.645-4.249-5.333-11.3-1.766-7.341-2.702-12.493-2.808-15.455-.092-2.663.506-4.275 1.794-4.833 1.202-.232 2.36-.441 3.467-.622l6.766-1.235a91.322 91.322 0 0 1 10.313-1.373l1.447-.072c.89-.058 1.498-.116 1.83-.166.126.18.233.375.32.578a58.571 58.571 0 0 1 2.243 6.09z" fill="#4E729E"/>
            </g>
        </g>
        <path d="M30.778 100.342a.974.974 0 0 1 0-1.336c1.23-1.294 2.048-2.363 1.896-2.515-.152-.152-1.216.665-2.518 1.893a.978.978 0 0 1-1.339 0c-1.303-1.228-2.374-2.045-2.526-1.893-.152.152.666 1.221 1.904 2.515a.974.974 0 0 1 0 1.336c-1.238 1.3-2.048 2.37-1.904 2.522.145.151 1.223-.665 2.526-1.9a.978.978 0 0 1 1.339 0c1.302 1.235 2.366 2.051 2.518 1.9.152-.152-.666-1.221-1.896-2.522zM37.118 47.736a2.278 2.278 0 0 1-2.171-2.167c-.109-4.162-.521-7.225-1.02-7.225-.5 0-.92 3.092-1.028 7.225a2.263 2.263 0 0 1-2.171 2.167c-4.169.109-7.237.52-7.237 1.019 0 .499 3.097.918 7.237 1.026 1.18.044 2.126.99 2.17 2.167.11 4.162.529 7.226 1.028 7.226.5 0 .912-3.093 1.02-7.226a2.263 2.263 0 0 1 2.172-2.167c4.16-.108 7.236-.527 7.236-1.026s-3.104-.91-7.236-1.019zM156.531 45.778a3.247 3.247 0 0 1-3.162-3.15c-.16-5.975-.76-10.419-1.448-10.419-.687 0-1.317 4.444-1.447 10.42a3.247 3.247 0 0 1-3.162 3.15c-5.978.158-10.429.722-10.429 1.444 0 .723 4.451 1.308 10.429 1.445a3.254 3.254 0 0 1 3.162 3.158c.16 5.975.724 10.418 1.447 10.418.724 0 1.31-4.443 1.448-10.418a3.254 3.254 0 0 1 3.162-3.158c5.978-.159 10.436-.722 10.436-1.445 0-.722-4.458-1.286-10.436-1.445zM146.906 93.146a1.555 1.555 0 0 1-1.505-1.51c-.08-2.89-.362-4.978-.724-4.978-.361 0-.622 2.124-.723 4.978a1.555 1.555 0 0 1-1.513 1.51c-2.858.08-4.986.361-4.986.722 0 .362 2.128.63 4.986.723a1.555 1.555 0 0 1 1.57 1.503c.08 2.89.362 4.985.724 4.985s.63-2.124.724-4.985a1.555 1.555 0 0 1 1.505-1.503c2.895-.08 4.994-.361 4.994-.723 0-.36-2.157-.664-5.052-.722zM131.71 29.623a.933.933 0 0 1-.905-.896c-.044-1.698-.21-2.962-.413-2.962-.203 0-.376 1.264-.42 2.962a.933.933 0 0 1-.933.896c-1.7.043-2.967.217-2.967.419 0 .202 1.266.368 2.967.412.49.019.882.413.897.903.044 1.69.217 2.955.42 2.955.202 0 .369-1.264.412-2.955a.933.933 0 0 1 .941-.889c1.694-.043 2.96-.21 2.96-.412 0-.202-1.303-.375-2.96-.433zM75.69 23.67a.933.933 0 0 1-.905-.896c-.044-1.698-.21-2.963-.413-2.963-.202 0-.376 1.265-.42 2.963a.933.933 0 0 1-.86.895c-1.701.044-2.968.217-2.968.42 0 .202 1.267.368 2.967.411.49.02.883.414.898.903.043 1.691.217 2.956.42 2.956.202 0 .369-1.265.412-2.956a.933.933 0 0 1 .905-.903c1.693-.043 2.96-.21 2.96-.412 0-.202-1.303-.375-2.997-.419z" fill="#FFF" fill-rule="nonzero" mask="url(#b)"/>
        <path d="M89.99 208.184c-8.786 0-28.043-14.392-54.276-36.01a609.075 609.075 0 0 1-19.076-16.502c-3.843-3.468-6.137-11.437-6.137-17.13V23.791a4.61 4.61 0 0 1 2.837-4.284c8.148-3.476 28.947-9.306 76.651-9.306 47.705 0 68.496 5.83 76.652 9.306a4.61 4.61 0 0 1 2.8 4.284v114.75c0 5.707-2.294 13.676-6.136 17.13-6.513 5.867-12.918 11.423-19.07 16.502-26.203 21.618-45.46 36.01-54.246 36.01zm0-197.245c-47.575 0-68.272 5.78-76.37 9.248a3.894 3.894 0 0 0-2.374 3.612v114.742c0 5.542 2.171 13.266 5.898 16.618 6.557 5.917 12.961 11.459 19.055 16.48 22.57 18.62 44.715 35.844 53.79 35.844 9.075 0 31.212-17.224 53.791-35.844 6.137-5.057 12.541-10.62 19.04-16.48 3.69-3.324 5.898-11.047 5.898-16.618V23.792a3.894 3.894 0 0 0-2.36-3.612c-8.104-3.461-28.794-9.256-76.369-9.256v.015z" fill="#231F20" fill-rule="nonzero" mask="url(#b)"/>
    </g>
</svg>
