<svg xmlns="http://www.w3.org/2000/svg" xmlns:xlink="http://www.w3.org/1999/xlink" width="207" height="252" viewBox="0 0 207 252">
    <defs>
        <path id="3nyf349n7a" d="M194.442 27.727v132.04c0 6.318-2.497 15.447-6.924 19.412-7.549 6.818-14.897 13.17-21.913 18.972-28.67 23.662-51.956 41.345-62.126 41.345-10.17 0-33.447-17.683-62.117-41.345-7.024-5.82-14.364-12.138-21.93-18.972-4.385-3.965-6.948-13.094-6.948-19.412V27.727c-.01-1.978 1.167-3.77 2.987-4.548 9.371-3.999 33.29-10.667 87.983-10.667 54.694 0 78.62 6.651 87.992 10.667 1.826.772 3.008 2.566 2.996 4.548z"/>
    </defs>
    <g fill="none" fill-rule="evenodd">
        <g>
            <g>
                <g transform="translate(-722.000000, -1417.000000) translate(434.000000, 1266.000000) translate(288.000000, 151.000000)">
                    <path fill="#FDBD1B" fill-rule="nonzero" d="M195.79 11.64C183.306 6.326 157.074 0 103.063 0 49.05 0 22.828 6.327 10.336 11.64 4.051 14.312-.02 20.485 0 27.31v132.033c0 9.735.067 17.558 10.91 28.391 23.727 23.711 69.966 63.435 92.153 63.435 22.187 0 68.426-39.724 92.152-63.435 10.977-10.966 10.91-18.656 10.91-28.391V27.31c.017-6.823-4.053-12.995-10.335-15.672z"/>
                    <path fill="#231F20" fill-rule="nonzero" d="M103.48 252c-9.987 0-25.359-7.707-45.773-22.913-16.47-12.478-32.075-26.058-46.705-40.646C0 177.425 0 169.244 0 159.758V27.727c-.032-7.002 4.14-13.341 10.586-16.088C23.111 6.343 49.393 0 103.48 0c54.087 0 80.36 6.343 92.927 11.64 6.437 2.74 10.61 9.062 10.594 16.053v132.19c0 9.769 0 17.459-11.027 28.491-14.628 14.591-30.232 28.171-46.705 40.647C128.838 244.293 113.441 252 103.48 252zm0-251.169c-53.946 0-80.11 6.31-92.56 11.64C4.8 15.077.83 21.08.832 27.727v132.031c0 9.678 0 17.326 10.819 28.134 21.92 21.899 69.324 63.31 91.86 63.31 22.537 0 69.908-41.411 91.862-63.31 10.819-10.808 10.819-18.34 10.819-27.91V27.794c.018-6.685-3.986-12.727-10.154-15.322C183.59 7.14 157.424.83 103.48.83z"/>
                    <mask id="36c91mdofb" fill="#fff">
                        <use xlink:href="#3nyf349n7a"/>
                    </mask>
                    <use fill="#05325A" fill-rule="nonzero" xlink:href="#3nyf349n7a"/>
                    <g mask="url(#36c91mdofb)">
                        <g>
                            <path fill="#064075" fill-rule="nonzero" d="M87.367 193.7c9.155-16.535 4.919-26.761 4.919-26.761s-9.247-17.808 5.5-31.593c14.748-13.784 18.6-32.89 18.6-32.89s1.915-13.975-5.417-24.725c-7.332-10.75 4.42-45.318 4.42-45.318s4.685-14.558-4.287-32.216H27.164c.5 10.317 3.97 31.376 22.711 47.854 25.8 22.697 30.793 34.27 21.33 53.508-9.462 19.238 1.498 29.156 1.498 29.156s12.542 19.122-5.226 24.65c-17.768 5.53-34.263 19.846-34.263 19.846s-17.993 12.928-12.167 36.971c1.481 6.111 1.473 10.426.624 13.477h69.325c-4.37-7.931-9.563-21.192-3.629-31.958zM200.658 88.323s-2.713 6.917-9.03 9.22c-6.316 2.303-17.302 7.416-12.192 19.238 5.11 11.823-12.483 28.359-12.483 28.359s-30.793 26.754-13.765 49.883c10.161 13.817 23.627 24.36 32.831 30.62h39.672v-31.526c-4.86-9.074-11.3-17.21-19.016-24.027-29.794-26.904-10.386-42.4-10.386-42.4s7.673-4.058 2.938-16.687c-3.33-8.87 15.163-16.029 26.464-19.512V66.799c-1.527.713-3.108 1.308-4.727 1.779-15.346 4.514-20.306 19.745-20.306 19.745z" transform="translate(-3.203692, 13.512617)"/>
                            <path fill="#064075" fill-rule="nonzero" d="M16.52 132.952c19.973-7.483 20.722-20.444 13.165-30.811-7.556-10.367 2.456-20.876 2.456-20.876 22.411-30.28-10.453-37.296-10.453-37.296s-10.82-3.2-10.82-13.028c0-4.988-5.5-9.644-10.818-12.944V143.9c2.688-3.508 7.606-7.599 16.47-10.95zM225.691 56.398s-25.166 2.295-31.125 16.553c-5.959 14.258-19.241 28.076-26.024 26.53-6.782-1.547-14.539 26.121-25.882 26.363-16.029.332-19.34-26.239-6.758-49.318 12.584-23.08 45.573-24.8 50.974-51.321C192.793-3.827 225.691.189 225.691.189v17.459s-26.215 3.757-31.774 14.1c-5.56 10.342-.79 16.57-20.348 27.992-19.557 11.424-30.41 21.142-19.973 36.124 5.426 7.782-2.763 4.814 9.304-4.78 12.067-9.595 24.243-29.93 36.942-39.35 7.406-5.612 16.57-8.406 25.85-7.881v12.545z" transform="translate(-3.203692, 13.512617)"/>
                            <path fill="#073A77" fill-rule="nonzero" d="M13.865 115.351c11.834-8.263 0-17.883 0-17.883S5.31 90.102 9.088 73.566C11.052 64.978 5.634 60.48 0 58.078v64.465c3.204-1.372 7.79-2.918 13.865-7.192zM69.732 37.127c3.892 2.014 8.226 3.029 12.608 2.951 7.674 0 13.516-8.072 13.516-8.072s10.877-13.735.416-31.81H50.499c.575 6.851 3.604 27.777 19.233 36.93zM76.365 187.332C81.009 159.273 61.06 169.3 61.06 169.3c-25.174 14.832-25.566 27.652-22.27 41.885 1.664 7.324 1.415 11.822.74 14.474h39.59c-2.38-5.603-6.076-18.282-2.755-38.327zM191.437 179.759s-17.751-11.823-19.557 6.65c-1.349 13.735 15.063 31.244 23.518 39.283h23.17c.416-30.096-27.131-45.933-27.131-45.933z" transform="translate(-3.203692, 13.512617)"/>
                            <g fill-rule="nonzero">
                                <path fill="#F6711F" d="M7.515 7.339c-.566.399-.716.831-.441 1.297.285.462.767.768 1.306.831.65.133 1.573.291 2.772.466 1.198.174.982.374-.608.615-.913.154-1.837.238-2.763.25-.241 0-.674.457-1.315 1.363-.162.229-.31.467-.441.715v-.358c.079-.466.221-.92.424-1.346.126-.225.276-.434.45-.624.183-.233.266-.357.225-.366-.267-.108-.52-.245-.758-.407-.238-.15-.444-.345-.607-.574-.1-.172-.179-.357-.233-.549-.395.473-.96.772-1.573.832-.313.02-.628.02-.94 0 0 0 .09.507.249 1.421.158.915.325 1.721.441 2.179.225.956.5 2.037.832 3.242 1.715 6.502 3.512 13.189 5.393 20.061.375-.208.75-.432 1.115-.673l2.913-2.494.55-.433c-.428-1.662-.883-3.586-1.365-5.77-.491-2.17-1.024-4.738-1.615-7.715-.59-2.976-.89-4.597-.89-4.822l-.109-.083c-.133-.05-.217-.182-.208-.324 0-.15.092-.332.317-.549l1.298-.94c.62-.45 1.18-.977 1.664-1.57.45-.605.717-1.327.766-2.079.04-.374.01-.752-.092-1.114-.08-.307-.192-.605-.333-.89-.141-.176-.303-.335-.482-.473-.909-.439-1.95-.516-2.913-.217-1.081.174-2.113.574-3.03 1.173m-5.392-3.85c-.3.162-.553.4-.732.69-.282.515-.423 1.094-.408 1.68-.008.402.077.8.25 1.164l.424.673c.236.299.559.516.924.624.374.168.798.192 1.19.066.3-.075.583-.207.832-.39-.902-.564-1.545-1.46-1.79-2.495l-.108-.69c-.048-.514-.048-1.032 0-1.546-.198.026-.394.074-.582.141m4.103-.98c-.099-.067-.193-.14-.283-.217-.29-.282-.708-.39-1.099-.283-.37.041-.689.28-.832.624l-.067.05v.058c-.13.358-.203.734-.216 1.114-.054.711.057 1.426.325 2.087.213.426.523.797.907 1.08.105.046.205.101.3.167.09.034.191.034.282 0 .11-.037.208-.103.283-.191.466-.283.691-.44.674-.483-.407-.676-.634-1.446-.657-2.236.013-.322.055-.642.125-.956.073-.265.162-.526.266-.782m4.594-.34c-.187-.376-.476-.693-.832-.915-.29-.15-.615-.22-.94-.2-.193.005-.383.036-.567.092-.516.223-.918.646-1.115 1.172-.148.31-.254.636-.316.973-.122.626-.08 1.274.125 1.879.109.31.24.614.39.906.824-.457 1.698-.815 2.606-1.064 0-.416 0-.831.058-1.206 0-.781.1-1.155.158-1.139.108.11.188.244.233.391.202.563.309 1.156.316 1.754.258 0 .5-.058.708-.066-.046-.45-.13-.895-.25-1.33-.151-.444-.343-.873-.574-1.28v.033z" transform="translate(-3.203692, 13.512617) translate(56.899593, 51.220961)"/>
                                <path fill="#000" d="M8.422.114c-.5.071-.96.315-1.298.69-.172.213-.315.448-.425.699-.225-.205-.492-.358-.782-.45-.568-.203-1.189-.203-1.756 0-.293.103-.56.268-.782.483-.177.234-.325.488-.442.756-.562.005-1.111.173-1.58.483C.873 3.073.5 3.519.29 4.047c-.225.637-.32 1.312-.283 1.987.003.592.136 1.177.391 1.712.26.412.614.756 1.032 1.006.03.427.1.85.208 1.264.194.931.42 1.929.674 2.993.391 1.58.9 3.625 1.507 6.135 1.614 6.519 2.724 10.92 3.329 13.203.44 1.546.832 2.868 1.14 3.966-.006.024-.006.05 0 .074.055.245.125.487.208.724.49-.258.965-.524 1.44-.832C8.06 29.43 6.268 22.753 4.56 16.251c-.316-1.205-.59-2.286-.832-3.242-.116-.457-.266-1.189-.441-2.178-.175-.99-.241-1.38-.25-1.422.313.02.628.02.94 0 .614-.06 1.179-.359 1.574-.831.054.192.132.376.233.548.163.23.369.424.607.574.238.162.491.299.758.407 0 0-.042.133-.225.366-.174.19-.324.4-.45.624-.203.427-.345.88-.424 1.347v.357c.132-.247.28-.486.441-.715.64-.906 1.074-1.363 1.315-1.363.926-.012 1.85-.096 2.763-.25 1.59-.24 1.79-.449.607-.615-1.181-.166-2.122-.333-2.77-.466-.54-.063-1.022-.37-1.307-.831-.275-.466-.125-.898.44-1.297.917-.599 1.949-.998 3.03-1.172.963-.3 2.004-.222 2.913.216.179.139.34.298.482.474.14.285.252.583.333.89.102.362.133.74.092 1.113-.05.753-.315 1.474-.766 2.079-.485.593-1.044 1.121-1.664 1.571l-1.307.981c-.225.216-.333.4-.316.549-.01.142.075.273.208.324l.108.083c0 .225.3 1.838.89 4.822.592 2.985 1.124 5.546 1.615 7.716.491 2.17.94 4.082 1.365 5.77l-.55.432-2.912 2.494c1.698-1.067 3.302-2.277 4.794-3.617l-1.207-4.747c-.832-3.625-1.423-6.335-1.706-8.114-.125-.715-.325-1.663-.583-2.91-.207-.636-.31-1.301-.308-1.97.052-.08.117-.15.192-.208.233-.239.666-.646 1.298-1.222.703-.65 1.247-1.452 1.59-2.345.182-.568.285-1.158.307-1.754.012-.46-.042-.919-.158-1.364-.14-.39-.313-.768-.516-1.13-.433-.792-1.206-1.34-2.097-1.488-.143-.952-.406-1.883-.782-2.769-.256-.679-.719-1.26-1.323-1.663-.202-.1-.418-.168-.641-.2-.492-.14-1.014-.14-1.507 0m1.573 1.123c.357.222.645.539.833.915.234.413.43.847.582 1.297.104.426.174.86.208 1.297-.208 0-.45 0-.707.066-.008-.598-.115-1.19-.316-1.754-.04-.132-.108-.254-.2-.358-.058 0-.117.358-.158 1.14 0 .39 0 .83-.059 1.205-.907.25-1.782.607-2.604 1.064-.152-.292-.282-.595-.392-.906-.201-.606-.241-1.253-.116-1.879.072-.35.193-.689.358-1.006.196-.526.599-.95 1.115-1.172.184-.056.374-.087.566-.092.326-.02.651.049.94.2m-4.044 1.04c.09.077.184.15.283.215-.104.255-.193.516-.267.782-.086.324-.141.655-.166.99.028.78.254 1.541.657 2.21 0 0-.208.2-.674.483-.075.088-.173.154-.283.191-.091.034-.191.034-.283 0-.094-.066-.194-.121-.3-.166-.38-.277-.69-.639-.906-1.056-.268-.661-.38-1.376-.325-2.087.01-.38.08-.756.208-1.114v-.058l.067-.05c.143-.344.462-.583.832-.624.39-.107.809 0 1.098.283M1.373 4.18c.18-.29.432-.529.732-.69.189-.068.384-.115.583-.142-.048.515-.048 1.032 0 1.547l.108.69c.244 1.034.887 1.93 1.79 2.494-.25.183-.533.316-.833.39-.383.13-.8.115-1.173-.041-.365-.107-.688-.325-.924-.624l-.425-.698c-.172-.363-.257-.762-.25-1.164-.029-.614.112-1.224.409-1.762h-.017z" transform="translate(-3.203692, 13.512617) translate(56.899593, 51.220961)"/>
                            </g>
                            <g fill-rule="nonzero">
                                <path fill="#F4C963" d="M11.693 16.81c-1.004.55-2.04 1.039-3.104 1.464l-2.18.923c-.047-.012-.096-.012-.142 0-.15.045-.303.078-.458.1-.155.193-.432.501-.832.922-1.2 1.426-2.028 3.125-2.413 4.947C1.014 31.362 1.6 37.9 4.228 43.722 5.48 46.58 7.186 49.215 9.28 51.53c.091.125 6.333 5.695 6.932 6.185l1.39 1.048c-.05.186-.134.361-.25.515-.35.215-.79.215-1.14 0-.715 1.33-1.215 2.764-1.481 4.249v.05c-.123.825-.181 1.66-.175 2.494-.025 2.153.435 4.284 1.348 6.235.207.428.438.845.69 1.247 1.346 2.089 3.088 3.894 5.127 5.313.75.557 1.598 1.13 2.555 1.737.901.48 1.675 1.166 2.256 2.004.2.344.354.713.457 1.097.146.37.27.748.375 1.131.487 1.371 1.208 2.648 2.13 3.775.417.532.883 1.072 1.399 1.613.257.274.473.585.64.922.184.338.141.755-.108 1.048-.075.08-.166.146-.266.191.136.013.272.013.408 0 .407-.2.524-.781.358-1.754-.318-1.863-.35-3.764-.092-5.637.326-1.65.74-3.282 1.24-4.888l.832-2.869c.6-2.078 1.09-3.624 1.457-4.63.51-1.527 1.144-3.01 1.897-4.432.328-.54.537-1.144.616-1.77.014-.175-.009-.35-.067-.516-.106.07-.23.107-.357.108-.157-.943-.47-1.853-.924-2.694l-1.323-1.987c-.15-.158-.616-.706-.716-.831-.344-.313-.717-.592-1.115-.831-.123-.064-.237-.142-.342-.233-.124.524-.274 1.097-.44 1.72l-.084-.066-.574-.515c.266-1.505.45-2.918.574-4.257.159-1.808.18-3.626.067-5.437-.14-1.995-.383-3.982-.724-5.953-.334-1.456-.878-2.857-1.615-4.157-.209-.435-.49-.831-.832-1.172-.037-.038-.07-.08-.1-.125-.25 1.43-.558 3.043-.924 4.839-.052.428-.197.84-.424 1.206-.135.17-.322.29-.533.34-.07.044-.152.061-.233.05.117-.557.217-1.13.283-1.737.241-1.489.383-2.603.441-3.326 0 0 .982-15.979.375-19.42-.233-1.373-.525-2.686-.833-3.95-.316-1.152-.743-2.271-1.273-3.342-.562-1.034-1.22-2.014-1.964-2.927-1.007-1.28-1.897-1.912-2.68-1.912-.306.043-.617.043-.923 0-.466.516-.94 1.064-1.424 1.663-.348.39-.726.75-1.131 1.08l-.833.782c-1.14 1.077-2.355 2.072-3.636 2.977-.525.257-1.14.615-1.898 1.03z" transform="translate(-3.203692, 13.512617) translate(57.548060, 77.124578)"/>
                                <path fill="#000" d="M4.22 18.365c-.016-.009-.035-.009-.05 0-.96.957-1.73 2.085-2.272 3.326-.44.966-.773 1.978-.99 3.018-.983 3.928-1.17 8.012-.55 12.013.55 3.97 1.919 7.784 4.02 11.199 2.627 4.159 6.136 7.692 10.278 10.35-2.85 5.42-2.503 11.964.907 17.052 2.012 2.756 4.56 5.077 7.49 6.826.736.427 1.383.992 1.906 1.663.286.61.534 1.237.74 1.878.813 2.004 1.958 3.856 3.388 5.48l.407.481.3.333c.16.164.35.296.558.39.23.138.511.157.757.05.1-.045.191-.11.266-.19.25-.294.293-.71.108-1.048-.167-.337-.383-.648-.64-.923-.516-.54-.982-1.08-1.398-1.613-.923-1.126-1.644-2.403-2.131-3.774-.104-.384-.23-.761-.374-1.131-.104-.384-.258-.753-.458-1.097-.563-.837-1.316-1.53-2.197-2.02-.957-.608-1.806-1.181-2.555-1.738-2.04-1.42-3.782-3.224-5.127-5.313-.253-.402-.484-.819-.69-1.247-.913-1.95-1.374-4.082-1.349-6.235-.006-.835.053-1.669.175-2.494v-.05c.253-1.504.745-2.958 1.456-4.307.35.215.79.215 1.14 0l.142-.216c.075-.08.114-.189.108-.3l-1.39-1.047c-.599-.49-1.181-.98-1.739-1.463l-.832-.831c-.616-.455-1.515-1.223-2.697-2.303-1.015-.931-1.572-1.455-1.664-1.58-2.104-2.295-3.824-4.915-5.093-7.757-2.627-5.822-3.214-12.36-1.665-18.556.386-1.822 1.215-3.521 2.414-4.947.372-.421.649-.729.832-.923.155-.021.308-.054.458-.1.046-.011.095-.011.141 0l2.222-.914c1.064-.428 2.1-.92 3.104-1.472.758-.415 1.39-.773 1.898-1.064 1.286-.902 2.507-1.893 3.653-2.968l.833-.781c.382-.338.738-.705 1.065-1.098.483-.565.957-1.114 1.423-1.662.306.042.617.042.924 0 .782 0 1.664.631 2.68 1.912.768.915 1.448 1.9 2.03 2.943.536 1.084.965 2.217 1.282 3.384.341 1.263.632 2.577.832 3.949.616 3.791.7 7.65.25 11.464-.078.787-.178 1.644-.3 2.57-.05.648-.108 1.355-.183 2.111l-.141 3.276c-.059.731-.2 1.845-.442 3.325-.066.607-.166 1.18-.283 1.738.082.011.164-.007.234-.05.21-.051.398-.171.532-.34.227-.367.372-.779.425-1.206.366-1.796.674-3.41.923-4.84.03.046.063.087.1.126.342.34.624.737.832 1.172.738 1.3 1.281 2.7 1.615 4.157.183.705.32 1.422.408 2.145.183 1.261.289 2.533.316 3.807.114 1.812.092 3.63-.067 5.438-.124 1.338-.308 2.752-.574 4.256l.574.516.084.066c.166-.623.316-1.197.44-1.72.105.09.22.168.342.232.398.24.772.518 1.115.832.103.112.198.231.283.357l.433.457 1.323 1.987c.455.841.767 1.751.924 2.694.127-.001.251-.039.358-.108h.05c.277-.204.426-.54.39-.881-.033-.343-.117-.68-.249-.998-.412-1.217-.916-2.4-1.506-3.542-.573-1.127-1.434-2.082-2.497-2.768-.183-.089-.35-.164-.5-.225.284-1.28.475-2.303.567-3.067.665-4.545.075-9.185-1.706-13.419-.413-1.074-1.02-2.063-1.79-2.918-.254-.27-.571-.473-.923-.59.083-.64.166-1.223.25-1.755.425-2.893.645-5.813.657-8.737-.072-6.685-1.61-12.197-4.61-16.537-1.61-2.3-3.274-3.339-4.994-3.117-.295.057-.577.167-.832.324l-.675-1.189C18.842 5.13 18.31 4 17.86 3.168c-.448-.832-.964-1.663-1.222-2.195l-.342-.566c-.067-.156-.17-.296-.3-.407h-.058l-.532.449c-1.418 1.338-2.93 2.572-4.527 3.691-.433.325-.783.607-1.066.832-1.283.983-2.616 1.898-3.994 2.743-2.22 1.264-3.39 1.951-3.512 2.062.333 1.569.97 4.426 1.914 8.572m0-7.707c0-.117 0-.233-.05-.333 1.115-.435 2.179-.993 3.17-1.663l.608-.374.832-.44c.071-.05.15-.086.233-.108l.208-.267c.574-.348 1.13-.726 1.665-1.13.24-.16.47-.331.69-.516.247-.274.527-.517.833-.723l.674-.515c.045-.05.099-.093.158-.125-.006-.03-.006-.061 0-.092l1.665-1.538.532-.515c.283.474.666 1.164 1.157 2.07l1.348 2.735.6 1.289c-.109.166-.234.382-.392.657-.337.62-.773 1.181-1.29 1.663-.06.04-.116.087-.166.14-.333.436-.725.822-1.165 1.148-1.083.947-2.244 1.801-3.47 2.552-.208.15-.428.28-.658.391-.832.48-1.704.89-2.605 1.222-.942.382-1.907.706-2.888.973-.06.013-.117.038-.166.075l-.999-3.791c-.294-1.253-.48-2.176-.558-2.769l.034-.016z" transform="translate(-3.203692, 13.512617) translate(57.548060, 77.124578)"/>
                                <path fill="#3F2010" d="M8.997 7.732c-.084.022-.162.059-.233.108l-.833.44c-.005.067-.005.134 0 .2.25.831.508 2.045.783 3.509.324 1.762.566 2.926.707 3.491.006.124.043.244.108.35l-.59.266-.175.074c.912-.33 1.795-.74 2.638-1.222.2-.104.392-.223.574-.357-.075.052-.152.099-.233.141-.341.2-.682.39-1.032.574 0-.047-.017-.092-.05-.125-.268-.811-.457-1.647-.566-2.494l-.982-4.59c-.01-.134-.043-.267-.1-.39m4.161-3.276c-.06.032-.113.075-.158.125l-.674.515c-.306.206-.586.45-.832.724.225-.191.441-.391.658-.599l2.338 4.78c.117.25.316.624.583 1.115.158.299.29.573.39.831l-.082.091c.44-.326.832-.712 1.165-1.147-.08.064-.15.14-.208.225L13.14 4.539c.015-.03.034-.059.058-.083l-.025-.025z" transform="translate(-3.203692, 13.512617) translate(57.548060, 77.124578)"/>
                                <path fill="#66371C" d="M12.234 5.221c-.216.208-.433.407-.657.599-.221.184-.452.356-.691.515-.536.405-1.091.782-1.665 1.13l-.208.267c.057.123.09.255.1.39l.982 4.59c.109.847.298 1.683.566 2.494.033.033.05.078.05.125.35-.183.69-.374 1.032-.574.08-.042.158-.09.233-.141 1.227-.752 2.388-1.606 3.47-2.553l.084-.091c-.1-.241-.233-.516-.391-.831-.267-.491-.467-.832-.583-1.115l-2.322-4.805m.924-.831c-.006.03-.006.061 0 .091-.005.03-.005.061 0 .092l3.237 6.526c.058-.085.128-.16.208-.225.05-.053.106-.1.167-.14.516-.482.952-1.044 1.29-1.664.158-.274.283-.49.39-.656l-.598-1.29-1.349-2.734c-.49-.907-.832-1.597-1.156-2.07l-.533.515-1.664 1.538m-9.03 5.961c0 .1 0 .216.05.333.077.587.26 1.51.55 2.768l.99 3.791c.049-.036.106-.062.166-.075.981-.266 1.945-.591 2.888-.972l.174-.075.591-.266c-.065-.105-.102-.226-.108-.35-.141-.565-.383-1.729-.707-3.491-.275-1.463-.533-2.636-.783-3.509-.005-.066-.005-.133 0-.2l-.607.375c-.997.671-2.066 1.229-3.187 1.663l-.017.008z" transform="translate(-3.203692, 13.512617) translate(57.548060, 77.124578)"/>
                            </g>
                            <g fill-rule="nonzero">
                                <path fill="#876D5A" d="M15.67 1.033c-1.397.886-2.644 1.989-3.694 3.267-3.944 4.687-6.861 10.147-8.564 16.03-.514 1.626-.881 3.295-1.098 4.987-.075.873-.109 2.029-.084 3.459-.01.453.018.907.084 1.355.026.194.067.386.124.574l.367-.05.59-.067c4.025-.297 8.07-.065 12.034.69.45.072 3.62.743 9.513 2.012l2.405.524c-.068.04-.146.057-.225.05h-2.23c.153.097.312.185.474.266.37.196.781.296 1.199.291.48-.016.942-.182 1.323-.474.392-.281.712-.652.932-1.08.392-.869.637-1.796.724-2.744.535-3.457.846-6.945.932-10.442.07-3.485-.462-6.955-1.573-10.26-.381-1.122-.886-2.198-1.506-3.209-.533-.838-1.129-1.636-1.781-2.386-.694-.846-1.469-1.623-2.314-2.32C22.466.83 21.487.354 20.44.11c-1.649-.303-3.352.026-4.768.923z" transform="translate(-3.203692, 13.512617) translate(75.216573, 179.640357)"/>
                                <path fill="#000" d="M27.347 33.814l-2.405-.524c-5.892-1.263-9.063-1.934-9.513-2.012-3.963-.755-8.01-.987-12.034-.69l-.59.067-.367.05c-.39.06-.775.14-1.156.24-.833.234-1.224.591-1.282 1.082 5.29-.39 10.607-.072 15.812.947 1.926.383 3.007.59 3.246.624 1.335.189 2.68.292 4.028.308h4.077c.07-.013.133-.045.184-.092z" transform="translate(-3.203692, 13.512617) translate(75.216573, 179.640357)"/>
                            </g>
                            <g fill-rule="nonzero">
                                <path fill="#FCCEB7" d="M11.991 6.42v.69c-.046.572-.046 1.148 0 1.72.032.499 0 .999-.091 1.489l.482.125c.193-.095.372-.215.533-.358.281-.285.515-.613.69-.973.185-.374.343-.76.475-1.155.134-.426.212-.868.233-1.314.026-.5-.048-1-.216-1.471-.337-1.044-1.135-1.874-2.164-2.253.058 1.172.091 2.336.091 3.5m-.091-4.648h-.158c.094.129.148.282.158.44.017.192.017.384 0 .575v.1c1.03.378 1.827 1.21 2.164 2.252.168.472.242.972.216 1.472-.02.446-.099.888-.233 1.313-.132.396-.29.782-.474 1.156-.176.36-.41.688-.691.973-.16.142-.34.263-.533.357l-.482-.124v.108c-.053.163-.12.322-.2.474l-.083.14c-.091.086-.189.164-.292.234-.247.197-.505.38-.774.548-.613.378-1.173.837-1.664 1.364-.2.241-.383.482-.566.748-.183.266-.341.524-.5.832-.181.36-.34.732-.474 1.114-.025.09-.056.179-.091.266.008.088.008.177 0 .266-.288 3.321-.24 6.664.141 9.976.1.748.225 1.472.375 2.178.002.025.002.05 0 .075.318 1.661.789 3.29 1.406 4.864.133.34.275.673.425.99.224.481.449.939.69 1.388.338.66.77 1.267 1.282 1.804.088.09.182.173.283.25.146.105.31.184.483.232.42.052.846-.042 1.206-.266.412-.212.802-.463 1.165-.748.099-.169.213-.328.342-.474.424-.482 1.24-1.38 2.446-2.719l4.162-4.514c.69-.749 1.34-1.472 1.955-2.17 1.806-2.012 3.33-3.75 4.47-5.23 1.062-1.262 2.03-2.602 2.895-4.007.635-1.24 1.089-2.564 1.349-3.932.177-1.228.26-2.468.25-3.708l.05-9.062h-.192c-1.065-.216-2.022-.383-2.88-.516-5.897-.743-11.88-.41-17.66.981h.034z" transform="translate(-3.203692, 13.512617) translate(82.241844, 138.080023)"/>
                                <path fill="#000" d="M34.145 1.323v-.05c.066-.381-.03-.773-.266-1.08-.137-.135-.325-.204-.516-.192-.184 0-.358.083-.475.225-.182.271-.264.597-.233.923v.124l-.05 9.063c.011 1.24-.072 2.48-.25 3.707-.264 1.381-.726 2.717-1.373 3.966-.858 1.416-1.82 2.767-2.879 4.04-1.173 1.48-2.663 3.218-4.47 5.23-.615.698-1.264 1.422-1.955 2.17l-4.16 4.514c-1.208 1.339-2.023 2.237-2.448 2.719-.128.147-.243.305-.34.474-.365.285-.755.536-1.166.748-.36.224-.786.318-1.207.266-.173-.048-.337-.127-.482-.233-.101-.075-.196-.159-.283-.249-.512-.536-.944-1.144-1.282-1.804-.241-.45-.466-.906-.69-1.389-.15-.315-.292-.648-.425-.989-.631-1.554-1.119-3.162-1.457-4.805.003-.025.003-.05 0-.075-.15-.707-.274-1.43-.374-2.178-.382-3.313-.43-6.655-.142-9.977.009-.088.009-.177 0-.266.036-.087.066-.176.092-.266.134-.381.292-.753.474-1.114.161-.277.328-.554.5-.831.183-.266.366-.508.566-.749.49-.527 1.05-.985 1.664-1.363.268-.168.527-.351.774-.549.103-.07.2-.148.291-.233l.084-.141c.08-.152.146-.31.2-.474v-.108l-1.349-.565v.208c-.22.1-.425.231-.607.39-.969.733-1.853 1.569-2.639 2.494-.674.876-1.169 1.877-1.456 2.944-.25.407-.474.83-.69 1.272-.425.831-.833 1.812-1.266 2.893-1.182 3.01-2.139 7.477-2.87 13.402-.637 4.963-.965 9.96-.983 14.965-.08 8.18.516 16.352 1.781 24.434.832 5.188 1.265 7.482 2.272 8.896 1.872 2.743 5.61 5.088 8.905 6.044 2.43.698 6.336 1.047 11.718 1.047 3.245.113 6.487-.294 9.603-1.205 1.774-.384 3.392-1.29 4.644-2.602 1.173-1.13 1.994-2.573 2.364-4.157.436-2.328.733-4.68.89-7.042.4-4.767.6-10.31.6-16.628 0-6.135-.278-14.155-.833-24.06-.16-3.076-.31-6.172-.45-9.286-.06-4.748-2.187-9.233-5.825-12.288-.408-.245-.851-.424-1.315-.532-.028-.116-.076-.225-.141-.325.009-.094.009-.188 0-.282V7.609 6.586l-.05-.574V5.93v-.623c.05-1.297.066-2.154.066-2.553.011-.367-.011-.734-.066-1.097-.014-.105-.04-.208-.075-.308m.233 11.548c.004-.066.004-.133 0-.2.33.171.65.363.957.574l.358.241c2.114 1.996 3.49 4.648 3.903 7.524.617 3.994.909 8.031.874 12.072.322 6.352.533 10.786.632 13.302.156 4.124.233 8.538.233 13.244 0 2.943-.2 6.892-.599 11.847-.216 2.494-.424 4.922-.624 7.375-.119 1.307-.603 2.554-1.398 3.6-.505.881-1.181 1.653-1.99 2.27-1.854 1.066-3.897 1.769-6.016 2.07-2.61.292-5.238.411-7.865.357-5.36 0-9.659-.832-12.9-2.494-2.072-.91-3.78-2.488-4.851-4.482-.577-1.268-1.018-2.595-1.315-3.957-.178-.712-.314-1.434-.408-2.161-.432-2.944-.804-6.158-1.115-9.645-.51-5.509-.766-10.727-.766-15.654-.06-7.626.707-15.236 2.29-22.697.45-2.031 1.005-4.038 1.664-6.011 0-.083.05-.166.066-.25 0 .283 0 .583.058.89 0 .773.084 1.505.142 2.212.034 1.503.164 3.003.391 4.49.491 3.341 1.585 6.566 3.229 9.518.335.667.77 1.278 1.29 1.813.191.178.4.337.624.474.413.263.892.405 1.382.407.547-.019 1.082-.164 1.564-.424.582-.298 1.124-.667 1.615-1.097.654-.56 1.256-1.177 1.797-1.846.131-.164.232-.35.3-.549l8.322-9.295c1.232-1.388 2.114-2.402 2.647-3.026.865-1.047 1.611-2.028 2.238-2.943l.084-.058c.241-.18.433-.417.557-.69.183-.35.375-.748.583-1.206 1.004-1.75 1.689-3.664 2.022-5.653m-22.47-9.977l-1.415-.365v7.2l1.348.565c.093-.49.123-.99.092-1.488-.046-.573-.046-1.149 0-1.721v-.69c0-1.164 0-2.328-.092-3.5m-1.348-.973c-.055.16-.077.33-.066.498v.109l1.414.365v-.1c.018-.19.018-.382 0-.573-.009-.159-.064-.312-.158-.44l-.05-.067c-.15-.184-.392-.267-.624-.216-.205.08-.35.264-.383.482l-.133-.058z" transform="translate(-3.203692, 13.512617) translate(82.241844, 138.080023)"/>
                                <path fill="#F6711F" d="M34.37 12.672c.004.066.004.133 0 .2-.334 1.989-1.018 3.903-2.023 5.653-.208.457-4.877 6.534-6.108 7.923 0 0-8.506 9.635-8.655 9.843-.542.669-1.144 1.287-1.798 1.846-.49.43-1.033.8-1.614 1.097-.482.26-1.018.406-1.565.424-.49-.002-.969-.143-1.382-.407-.223-.136-.432-.295-.624-.474-.52-.535-.955-1.146-1.29-1.812-1.643-2.952-2.738-6.178-3.229-9.52-.226-1.486-.357-2.986-.39-4.49-.06-.706-.184-2.818-.2-3.1 0 .083 0 .166-.067.25-.659 1.973-1.214 3.979-1.665 6.01-1.582 7.46-2.35 15.07-2.288 22.697 0 4.927.255 10.145.765 15.655.311 3.48.683 6.695 1.116 9.644.297 1.999.756 3.97 1.373 5.894 1.197 2.074 3.017 3.72 5.201 4.706 3.24 1.663 7.54 2.494 12.9 2.494 4.993.141 9.595 0 13.881-2.428 2.156-1.405 3.387-4.888 3.387-5.87.2-2.493.641-5.403.833-7.872.407-4.989.3-20.469.141-24.593-.1-2.494-.89-21.424-1.506-25.407-.475-2.993-4.161-7.682-4.261-7.765-.298-.219-.61-.418-.932-.598z" transform="translate(-3.203692, 13.512617) translate(82.241844, 138.080023)"/>
                            </g>
                            <g fill-rule="nonzero">
                                <path fill="#F6711F" d="M21.305 20.5c-.208 0-.832.323-1.848 1.105-1.015.781-1.664 1.13-1.972 1.056-.308-.075-.624-.457-.94-1.114-.317-.657-.791-1.572-1.398-2.744-.109-.274-.783 0-2.006.832-.645.516-1.352.949-2.106 1.288-.158 0-.291-.091-.39-.324l-.226-.474-.449-.831-8.58 14.291 11.168 2.303c.916.125 8.514 1.862 11.252 2.12 0-1.812-.283-14.2-.316-14.707-.67-.98-1.4-1.915-2.189-2.802z" transform="translate(-3.203692, 13.512617) translate(88.365741, 42.383777)"/>
                                <path fill="#000" d="M22.628.554c-1.04-.956-2.155-.673-3.329.832L16.703 4.86c-2.275 3.536-5.49 8.968-9.646 16.295-2.319 4.09-4.671 8.14-7.057 12.147l1.44.257 8.563-14.225.45.832.224.474c.1.232.233.34.392.324.753-.34 1.46-.773 2.105-1.289 1.224-.831 1.898-1.13 2.006-.831.605 1.175 1.07 2.09 1.398 2.743.316.657.632 1.023.94 1.114.308.092.966-.274 1.973-1.055 1.007-.782 1.664-1.148 1.847-1.106.183.041.591.465 1.14 1.305.441.665.833 1.164 1.066 1.497 0 .507.058 1.022.066 1.538v.074c.042 1.38.075 2.777.1 4.157.042 2.004.1 4.016.167 6.02v2.901c.52.241 1.104.305 1.664.183l-.416-13.71v-.415-2.361-1.663l-.308-8.314c-.075-1.97-.142-3.375-.2-4.223 0-.222-.016-.438-.05-.649-.283-3.267-.907-5.37-1.939-6.327z" transform="translate(-3.203692, 13.512617) translate(88.365741, 42.383777)"/>
                            </g>
                            <g>
                                <path fill="#F6711F" fill-rule="nonzero" d="M17.335 1.568c-1.181.723-2.089 1.289-2.721 1.663-.403.338-.914.521-1.44.515-.333-.083-.766-.707-1.29-1.879C11.36.695 10.977.08 10.761.013c-.217-.066-.79.117-1.74.582-.948.466-1.664.757-2.055.906-.44.229-.814.563-1.09.973-.206.294-.406.571-.6.831L0 11.777l21.372 5.454c.06-1.33.144-3.395.25-6.194l.207-6.493c-.643.366-1.068.624-1.273.773-.216.158-.4.183-.533.092-.508-.659-.936-1.376-1.273-2.137-.699-1.313-1.173-1.887-1.415-1.704z" transform="translate(-3.203692, 13.512617) translate(116.819543, 67.359250)"/>
                            </g>
                            <g fill-rule="nonzero">
                                <path fill="#F6711F" d="M81.61 30.035c-7.247-1.496-12.24-2.488-14.98-2.976l-9.572-1.264h-.94c-.373.034-.74.107-1.098.216-.81.252-1.531.728-2.081 1.372-.488.575-.946 1.174-1.373 1.796-.275.432-11.718 19.512-14.148 23.553-1.115 1.862-2.18 3.417-2.18 3.417-.195.072-6.597 1.735-19.208 4.988.125 1.938.144 3.88.058 5.82l-.117 4.09c-.06 2.156-.155 4.149-.282 5.978.02.047.02.102 0 .15l.432.166c1.404.52 5.462 1.906 12.176 4.157 6.541 2.178 10.203 3.375 10.985 3.591h.067c2.655.707 6.658 2.037 11.884 3.326 0 0 22.736 10.625 38.906 9.045 3.43-1.372 11.543-7.2 12.883-11.465 1.305-4.768 2.141-9.652 2.497-14.582.042-.648.092-1.289.158-1.92 0 0 2.688-33.713 2.705-34.436L87.01 29.669l-.74 1.206c-1.332-.225-4.37-.773-4.66-.84z" transform="translate(-3.203692, 13.512617) translate(29.784279, 49.500425)"/>
                                <path fill="#000" d="M85.679 29.013s-6.317-1.33-8.406-1.746c-7.49-1.48-18.95-2.902-18.95-2.902h-2.197c-.901.043-1.79.234-2.63.565-.732.3-1.373.787-1.855 1.414-.267.332-.55.665-.833.997-.102.114-.194.236-.274.366-.491.832-.982 1.597-1.465 2.411L36.311 51.51l-1.922 3.483c.091 0 0 .067-.042.083-3.246.776-6.538 1.572-9.878 2.386-6.658 1.613-10.628 2.639-11.91 3.077-1.872.573-3.37 1.047-4.477 1.43-2.168.644-4.199 1.681-5.992 3.059-.76.579-1.366 1.335-1.764 2.203-.164.365-.273.751-.326 1.147-.014.702.137 1.397.442 2.029.28.673.716 1.268 1.273 1.738.723.59 1.498 1.117 2.314 1.57l3.063 1.572c2.463 1.109 4.913 2.112 7.348 3.01.441.166.882.357 1.34.557.458.2 4.161 1.463 11.06 3.766 6.9 2.303 11.16 3.691 12.725 4.107 1.565.416 11.651 3.658 14.348 4.332 2.696.673 14.24 5.437 20.805 6.767 0 0 11.036 2.328 15.937 2.145 1.856-.067 8.789-.582 12.684-10.251.424-1.048.832-2.12 1.156-3.217 1.548-4.62 2.467-9.427 2.73-14.292 0-.74.092-1.488.142-2.228 0 0 2.546-34.028 2.563-34.477l-1.523-.416c0 .723-.067 1.563-.067 1.588 0 .266-.041.524-.066.773l-2.53 32.091c-.067.632-.117 1.272-.158 1.92-.356 4.931-1.192 9.815-2.497 14.583-1.34 4.265-3.554 8.314-5.934 9.869-2.313.948-3.678 1.937-15.912 1.106-12.026-2.004-32.523-9.536-35.178-10.243 0 0-11.16-3.11-17.702-5.288-6.718-2.217-10.777-3.602-12.175-4.157l-.433-.166c.021-.047.021-.102 0-.15.133-1.829.458-14.524.341-15.854 12.617-3.276 19.341-4.988 19.341-4.988.25-.438.932-1.59 2.048-3.459 2.407-4.04 6.846-11.453 13.315-22.24.258-.448.533-.88.832-1.313.427-.621.886-1.22 1.374-1.796.55-.644 1.27-1.12 2.08-1.371.358-.11.726-.182 1.099-.217h.94l9.57 1.264c2.775.493 7.768 1.486 14.98 2.977.284.058 3.33.615 4.678.89l.74-1.206 5.277-8.472c.188-.288.388-.566.599-.832.277-.41.651-.744 1.09-.972.416-.15 1.099-.45 2.056-.906.957-.458 1.531-.657 1.74-.582.207.074.59.681 1.123 1.854.532 1.172.957 1.795 1.29 1.878.526.006 1.037-.176 1.44-.515.632-.416 1.539-.981 2.72-1.663.242-.183.716.391 1.416 1.721.337.76.764 1.478 1.273 2.137.133.091.316.066.532-.092.217-.158.633-.407 1.274-.773l-.208 6.493c-.106 2.805-.189 4.87-.25 6.194l1.59.4c0-.666.058-1.198.066-1.58l.225-8.148c.066-2.577.133-4.614.191-6.094l-.632-18.058c-.192-.357-.333-.615-.433-.773-.266-.416-.416-.64-.433-.657-.137-.102-.292-.178-.457-.224-.138-.022-.279-.022-.417 0-.366-.079-.748-.038-1.09.116-.66.193-1.277.506-1.822.923-.505.54-.975 1.113-1.407 1.713l-3.703 5.18c-8.456 12.038-14.464 21.042-14.464 21.042z" transform="translate(-3.203692, 13.512617) translate(29.784279, 49.500425)"/>
                            </g>
                            <g>
                                <path fill="#FFF" fill-rule="nonzero" d="M22.285 10.544c.02-.724-.001-1.449-.066-2.17-.192-2.868-.94-4.988-2.23-6.452-.092-.105-.193-.202-.3-.29C18.793.858 17.707.34 16.543.126c-1.794-.333-3.648-.005-5.218.922-1.647.956-3.107 2.2-4.311 3.675-1.09 1.314-2.03 2.744-2.805 4.265-.555 1.164-1.11 2.33-1.664 3.5-.706 1.651-1.29 3.352-1.748 5.088-.39 1.408-.644 2.85-.757 4.307-.137 1.795.078 3.6.632 5.312.349 1.046.956 1.987 1.765 2.736 1.18 1.021 2.62 1.695 4.16 1.945 1.972.397 4.02.05 5.751-.973.866-.51 1.673-1.116 2.406-1.804.61-.56 1.167-1.175 1.664-1.837 1.002-1.416 1.895-2.906 2.671-4.456.785-1.58 1.468-3.207 2.048-4.872.183-.524.366-1.048.54-1.572.471-1.902.678-3.86.617-5.82m27.08-.64c-2.71-2.837-6.523-4.355-10.444-4.156-.047-.009-.095-.009-.142 0-.892.036-1.78.147-2.655.332-2.174.46-4.186 1.493-5.825 2.993l-.466.45c-.283.29-.558.598-.832.922-.41.497-.788 1.019-1.132 1.563-.68 1.069-1.292 2.18-1.831 3.326-.2.407-.383.83-.558 1.23l-.05.133v.141c-.65 1.504-1.169 3.062-1.548 4.656v-.133c-.108.449-.208.898-.3 1.355-.09.457-.157.873-.224 1.305-.066.433-.133 1.04-.183 1.572-.033.233-.058.474-.075.723-.198 1.798-.14 3.615.175 5.396.492 1.991 1.553 3.796 3.054 5.196 1.408 1.442 3.136 2.533 5.043 3.184 1.779.62 3.631 1.002 5.51 1.139h.707c.506-.008 1.012-.041 1.515-.1 3.92-.511 7.375-2.82 9.346-6.243.607-1.04 1.165-2.112 1.664-3.193.341-.69.658-1.38.94-2.087.619-1.556 1.117-3.157 1.49-4.788.341-1.505.574-2.794.708-3.875.116-1.256.026-2.522-.267-3.75-.01-.08-.026-.162-.05-.24l-.091-.408c-.386-1.5-.968-2.942-1.731-4.29-.41-.722-.886-1.404-1.423-2.036l-.325-.316z" transform="translate(-3.203692, 13.512617) translate(71.481698, 82.360451)"/>
                            </g>
                            <g fill-rule="nonzero">
                                <path fill="#5A5A5A" d="M11.292 19.339c.434-.719.812-1.47 1.132-2.245-1.3-.602-2.659-1.073-4.053-1.405-1.26-.29-2.535-.504-3.82-.64-1.498-.058-2.996-.058-4.494 0-.038.558.006 1.118.133 1.663.27 1.281.781 2.5 1.507 3.591.263.391.573.749.923 1.064 1.33 1.008 3.012 1.431 4.66 1.172.244-.023.481-.09.7-.199 1.364-.67 2.512-1.71 3.312-3.001z" transform="translate(-3.203692, 13.512617) translate(77.464798, 87.092101)"/>
                                <path fill="#000" d="M13.88 5.72c-.185-1.416-.742-2.758-1.614-3.89-.52-.663-1.207-1.176-1.99-1.488-1.426-.588-3.054-.41-4.318.473-1.31.817-2.418 1.917-3.246 3.218C1.92 5.28 1.322 6.639.939 8.065c-.208.782-.433 1.862-.682 3.243-.252 1.235-.319 2.502-.2 3.757 1.498-.074 2.996-.074 4.494 0 1.285.137 2.56.35 3.82.64 1.394.333 2.752.803 4.053 1.406.3-.948.574-1.896.832-2.835.357-1.482.605-2.988.74-4.507.126-1.349.087-2.708-.116-4.048z" transform="translate(-3.203692, 13.512617) translate(77.464798, 87.092101)"/>
                            </g>
                            <g fill-rule="nonzero">
                                <path fill="#5A5A5A" d="M14.796 21.374c.49-.794.911-1.628 1.257-2.495-1.701-.677-3.458-1.206-5.251-1.58-1.573-.315-3.213-.556-4.902-.722-1.903-.084-3.8-.084-5.693 0-.004.607.095 1.212.292 1.787.465 1.455 1.214 2.803 2.205 3.966.369.446.79.845 1.257 1.189.258.158.532.315.832.457 1.599.81 3.412 1.102 5.185.831.303-.02.601-.09.882-.208 1.597-.672 2.964-1.792 3.936-3.225z" transform="translate(-3.203692, 13.512617) translate(103.429617, 93.429180)"/>
                                <path fill="#000" d="M16.985 6.359c-.374-1.624-1.192-3.112-2.363-4.298-.736-.756-1.64-1.325-2.639-1.663-1.795-.668-3.796-.488-5.442.49-1.55.858-2.875 2.072-3.862 3.542C1.785 5.784 1.134 7.284.757 8.861c-.2.832-.408 2.054-.608 3.575-.217 1.38-.197 2.785.058 4.157 1.892-.077 3.79-.077 5.693 0 1.664.166 3.329.408 4.902.723 1.793.374 3.55.902 5.251 1.58.308-1.047.574-2.087.832-3.134.334-1.644.526-3.312.575-4.989.042-1.486-.118-2.97-.475-4.414z" transform="translate(-3.203692, 13.512617) translate(103.429617, 93.429180)"/>
                            </g>
                            <path fill="#913F07" fill-rule="nonzero" d="M116.878 86.253c-1.18-.433-2.232-1.153-3.063-2.095-.389-.438-.638-.982-.716-1.563 0-.297.09-.587.258-.831.15-.249.392-.426.675-.49.424 0 .841.106 1.215.307l1.664.831c1.248.657 2.18 1.123 2.821 1.405l1.665.715c.547.226 1.071.505 1.564.832.33.162.564.47.633.83.012.283-.12.552-.35.716-.255.147-.539.24-.832.274-.643.073-1.293.054-1.93-.058-1.233-.145-2.443-.438-3.604-.873zM88.923 81.265c1.053-.197 2.025-.697 2.797-1.438.407-.369.696-.849.832-1.38.03-.284-.013-.57-.125-.832-.083-.263-.265-.484-.508-.615-.344-.086-.707-.066-1.04.058l-1.49.516c-1.115.39-1.955.656-2.496.83l-1.473.367c-.49.12-.965.296-1.415.523-.303.119-.533.37-.624.682-.044.276.032.557.208.773.178.187.398.329.64.416.515.206 1.061.319 1.615.333 1.032.066 2.069-.013 3.08-.233z" transform="translate(-3.203692, 13.512617)"/>
                            <g fill-rule="nonzero">
                                <path fill="#000" d="M21.366.881c-.418-.085-.825-.216-1.215-.39-.266-.117-.607-.283-1.015-.491-.627.553-1.186 1.178-1.664 1.862-1.247 1.977-2.248 4.1-2.98 6.319-.532 1.41-.939 2.866-1.215 4.348-.2 1.014-.466 2.918-.507 3.325-.042.408-.1 1.297-.217 2.71-.24 1.95-.684 3.87-1.323 5.729-.907 3.525-3.088 8.796-6.957 19.388-.375.914-2.198 4.689-2.264 4.905-.832 1.987-2.33 4.498-1.948 9.619.118 1.183.399 2.344.833 3.45.333.924.768 1.808 1.298 2.636-.081.973-.229 1.94-.441 2.893-.341 1.397-.541 2.336-.608 2.827-.072.362-.072.735 0 1.097.085.36.228.702.425 1.014.646 1.203 1.461 2.306 2.422 3.276.241.218.524.384.832.49.286.08.592.025.832-.15.205-.204.346-.464.408-.747l.657-2.129v-.066l1.423-4.68c.062-.209.096-.424.1-.641.358-.417.66-.878.899-1.372 5.221-12.56 8.64-25.793 10.153-39.308 0-.357.067-1.263.05-1.604.167-4.889 1.432-14.774 1.44-14.849.27-1.065.462-2.149.574-3.242.005-.016.005-.034 0-.05.058-2.161.05-4.157 0-5.92 0-.074-.042-.157-.066-.232M20.143.59c-.046.212-.08.425-.1.64-.12 1.016-.19 2.037-.208 3.06v1.713c-.033.36-.05.551-.05.573-.004.072-.004.144 0 .216l-.408 2.727c-.012.06-.012.123 0 .183-.416 2.178-.715 4.196-.898 6.053-.267 2.522-.486 5.46-.658 8.812-.23-.17-.439-.364-.624-.582-1.025-1.286-1.775-2.769-2.205-4.356-.459-1.587-.606-3.246-.433-4.889.066-.722.183-1.439.35-2.145.232-1.13.465-2.103.715-2.926.289-1.117.673-2.208 1.149-3.259l.2-.39c.873-1.928 1.965-3.75 3.253-5.43M17.48 26.455c.078.028.16.05.241.066v.042c-1.375 13.119-4.647 25.97-9.712 38.152-.147.48-.385.929-.699 1.322-.173-.101-.354-.187-.54-.258-.298-.186-.577-.4-.833-.64-.728-.58-1.39-1.237-1.972-1.962-.868-1.147-1.548-2.423-2.014-3.783 0-.191-.059-.4-.092-.615-.26-1.69-.184-3.413.225-5.072.413-1.676.967-3.314 1.656-4.897.113-.21.2-.433.258-.665.666-1.435 1.173-2.544 1.523-3.325.555-1.28 1.331-3.248 2.33-5.903l1.714-4.722c1.399-3.833 2.397-6.801 2.98-8.88.439-1.54.794-3.102 1.065-4.68.565 1.763 1.48 3.394 2.688 4.797.313.412.71.752 1.165.998M3.432 67.267l.233-1.18c.668.67 1.437 1.231 2.28 1.662.2.083.391.167.566.225l-1.714 5.778c-.673-.67-1.235-1.441-1.665-2.286-.14-.27-.265-.548-.374-.832 0-.125 0-.399.1-.831.258-1.14.45-1.979.574-2.536z" transform="translate(-3.203692, 13.512617) translate(72.700059, 141.016234)"/>
                                <path fill="#66371C" d="M3.665 66.087l-.233 1.18c-.125.557-.316 1.397-.566 2.494-.058.416-.091.69-.1.832.11.283.235.56.375.831.43.845.992 1.617 1.664 2.286l1.715-5.778c-.175-.058-.367-.141-.566-.224-.843-.431-1.613-.992-2.28-1.663M20.125 1.197c.021-.215.054-.429.1-.64-1.288 1.68-2.38 3.501-3.254 5.429l-.2.39c-.475 1.052-.86 2.143-1.148 3.26-.25.831-.483 1.795-.716 2.926-.166.706-.283 1.423-.35 2.145-.172 1.642-.025 3.302.434 4.889.43 1.587 1.18 3.07 2.205 4.356.185.217.395.413.624.582.172-3.359.391-6.296.658-8.813.183-1.856.482-3.874.898-6.052-.012-.06-.012-.123 0-.183l.408-2.727c-.004-.072-.004-.144 0-.216 0 0 0-.216.05-.574v-.357-1.355c.043-1.019.138-2.034.283-3.043l.008-.017z" transform="translate(-3.203692, 13.512617) translate(72.700059, 141.016234)"/>
                                <path fill="#F4C963" d="M17.713 26.504c-.082-.015-.163-.037-.241-.066-.455-.246-.853-.586-1.166-.998-1.208-1.403-2.122-3.034-2.688-4.797-.27 1.578-.626 3.14-1.065 4.68-.582 2.08-1.581 5.047-2.98 8.88L7.902 38.9c-.976 2.65-1.753 4.617-2.33 5.903-.35.793-.857 1.901-1.523 3.326-.058.231-.145.455-.258.665-.709 1.58-1.282 3.219-1.715 4.897-.408 1.659-.485 3.382-.224 5.071 0 .216.066.424.091.615.467 1.36 1.146 2.637 2.014 3.783.583.725 1.245 1.383 1.973 1.962.256.24.534.454.832.64.187.071.368.157.54.258.315-.393.552-.841.7-1.322 5.065-12.182 8.336-25.033 9.712-38.152v-.042z" transform="translate(-3.203692, 13.512617) translate(72.700059, 141.016234)"/>
                            </g>
                            <g>
                                <path fill="#F6711F" fill-rule="nonzero" d="M10.04.876C-2.826 4.767.336 5.914.36 6.172c.558.831 3.246 1.721 3.828 1.78 3.82.301 7.66-.157 11.302-1.348 1.822-.432 6.267-2.552 6.1-4.206C21.175-.745 14.592-.28 10.04.876z" transform="translate(-3.203692, 13.512617) translate(103.850343, 118.956473)"/>
                            </g>
                            <g>
                                <path fill="#913F07" fill-rule="nonzero" d="M18.71.34c-1.58-.343-3.205-.427-4.811-.249-2.33.118-4.626.609-6.8 1.455-1.98.808-3.885 1.79-5.692 2.935-.266.14-.524.296-.774.465-.312.134-.545.404-.632.732-.007.178.03.355.108.515.183.183.616.092 1.315-.266 1.922-.831 3.82-1.604 5.692-2.253 1.864-.686 3.79-1.19 5.751-1.504 2.222-.347 4.48-.397 6.716-.15.474-.141.7-.35.666-.64-.083-.574-.6-.915-1.54-1.04z" transform="translate(-3.203692, 13.512617) translate(103.777722, 117.954063)"/>
                            </g>
                            <g>
                                <path fill="#FCCEB7" fill-rule="nonzero" d="M30.65 1.758c-1.303.416-6.804 2.796-16.502 7.142L0 15.26s17.16 5.903 28.72 8.63c3.995.648 13.024 1.879 15.704 1.03 4.353-.548 7.29-4.09 7.682-6.46.268-2.08.214-4.188-.158-6.251-.6-2.646-1.635-5.175-3.063-7.483C47.22 2.15 45.29.57 43.059.18c-4.203-.497-8.464.046-12.408 1.58z" transform="translate(-3.203692, 13.512617) translate(79.161323, 122.089924)"/>
                            </g>
                            <g>
                                <path fill="#76241F" fill-rule="nonzero" d="M21.806.066C21.38.141 20.3.282 18.568.49L8.44 1.58c-.386-.002-.762.12-1.073.349-.115.121-.19.275-.217.44h-.457c-1.67-.02-3.338-.14-4.994-.357-.372-.087-.76-.087-1.132 0-.185.058-.343.178-.449.34-.119.151-.15.353-.083.533C.098 4.61.377 6.324.867 7.98c1.315 1.08 3.545 1.663 5.351 2.22 3.479 1.006 13.873 1.505 13.973 1.43 1.914-.208 2.747-2.195 2.863-2.57 0 0 3.33-7.182 1.606-8.222 0 0-.907-.831-1.065-.831-.597-.02-1.195-.001-1.79.058z" transform="translate(-3.203692, 13.512617) translate(97.502053, 131.846391)"/>
                            </g>
                            <g fill-rule="nonzero">
                                <path fill="#000" d="M13.357 3.83c-.64 0-1.59-.058-2.854-.133-2.442-.127-4.564-.321-6.367-.582-.366-.058-1.664-.274-3.77-.657H0c.135.223.289.434.458.632.15.064.298.136.44.216l.941.2.516.133h.067c2.611.477 5.248.805 7.898.98 1.733.146 3.476.146 5.21 0 1.38-.085 2.747-.336 4.069-.747 1.029-.256 2.002-.698 2.871-1.306l.2-.116c.087-.05.166-.115.233-.191.036-.063.053-.135.05-.208l.64-1.172c-1.023.765-1.572 1.155-1.664 1.197-.89.525-1.855.909-2.863 1.139-1.4.442-2.869.631-4.336.557-.416.05-.873.07-1.373.058z" transform="translate(-3.203692, 13.512617) translate(99.925358, 131.699059)"/>
                                <path fill="#FFF" d="M16.936.53C11.466 1.68 5.875 2.137.29 1.892c-.04.164-.04.335 0 .499l.059.066c2.147.383 3.403.599 3.77.657 1.803.266 3.925.46 6.366.582 1.265.075 2.214.125 2.855.133 1.925-.01 3.845-.204 5.734-.582 1.007-.23 1.973-.614 2.862-1.139.067 0 .616-.432 1.665-1.197-2.068-1.065-4.49-1.204-6.666-.383z" transform="translate(-3.203692, 13.512617) translate(99.925358, 131.699059)"/>
                            </g>
                            <g>
                                <path fill="#D65839" fill-rule="nonzero" d="M12.209 4.977c.49-.075.774-.208.832-.407.09-.233.09-.491 0-.724-.198-.727-.579-1.39-1.107-1.928C10.961.898 9.657.259 8.256.113 6.399-.184 4.496.107 2.813.945c-.433.224-.832.449-1.232.682C.948 1.919.403 2.372 0 2.94v.241c0 .033.058.058.108.158 1.11.362 2.248.623 3.404.782 1.865.392 3.752.67 5.65.831 1.014.09 2.032.099 3.047.025z" transform="translate(-3.203692, 13.512617) translate(105.234959, 138.882534)"/>
                            </g>
                            <g>
                                <path fill="#000" fill-rule="nonzero" d="M11.327 2.36c-.724.083-1.465.158-2.214.225-1.223.106-2.453.126-3.679.058l-2.73-.05H1.499c-.277-.046-.56-.031-.832.041C.24 2.676.016 3.341 0 4.63c.068 1.467.296 2.922.682 4.34.11.565.358 1.093.724 1.538.346.378.78.664 1.265.831 0 0 2.622 1.106 8.955 2.037 3.477.41 6.986.485 10.478.224.212-.05.416-.128.607-.232.566-.365 1.045-.847 1.407-1.414.277-.373.533-.762.766-1.164 1.496-2.208 2.293-4.815 2.288-7.482-.029-.499-.101-.994-.216-1.48-.127-.202-.266-.396-.416-.582l-.25-.25-.283-.249C24.841.026 23.43-.184 22.104.165c-3.55.977-7.166 1.702-10.819 2.17m.183 1.613c.94-.083 2.047-.241 3.329-.482s2.097-.358 2.497-.4c.4-.04 1.082-.166 2.089-.382s2.014-.457 3.029-.74c.666-.24 1.38-.31 2.08-.207.389.132.728.379.974.706l.117.266c.087.399.12.807.1 1.214-.215 2.641-1.228 5.155-2.905 7.208-.228.424-.595.756-1.04.94-.1-.014-.2-.014-.3 0h-.1c-2.642.148-5.293.073-7.923-.225-2.91-.193-5.791-.692-8.596-1.488-.558-.191-1.082-.382-1.573-.582-.176-.067-.343-.153-.5-.258-.322-.24-.547-.588-.632-.98-.44-1.515-.642-3.089-.6-4.665 5.715.133 9.047.153 9.996.058l-.042.017z" transform="translate(-3.203692, 13.512617) translate(96.779544, 130.450427)"/>
                            </g>
                            <g fill-rule="nonzero">
                                <path fill="#F4C963" d="M21 1.56l-.25.357c-.283.333-.575.682-.833 1.064-1.193 1.53-2.607 3.39-4.244 5.579l-5.035 6.76c-.988 1.319-2.073 2.564-3.246 3.724-1.204 1.147-2.64 2.022-4.21 2.569-.273.077-.551.13-.833.158 0 0-.391 1.554-.433 1.662-.258 2.26-.333 4.537-.224 6.81.259 4.134.792 8.248 1.597 12.312 1.103 6.715 2.862 13.306 5.252 19.679.882 2.361 1.789 3.916 2.713 4.647.405.297.84.55 1.298.757.266.14.545.253.832.34.89.275 1.81.442 2.738.5 1.23.08 2.464.044 3.687-.108l1.174-.142c.307-.1 1.081-.282 2.33-.548.94-.209 1.864-.487 2.763-.832 2.546-.998 5.695-3.01 9.445-6.036 2.167-1.665 3.938-3.788 5.185-6.218.28-.568.506-1.161.674-1.771.117-.604.117-1.225 0-1.83-.124-.706-.266-1.404-.449-2.094s-.35-1.048-.408-1.24c-.396-1.18-.852-2.34-1.365-3.474l-.973-2.22c-2.214-4.747-4.186-9.603-5.91-14.55-.132-.348-.249-.681-.34-1.014-.983-3.492-1.655-7.064-2.006-10.675-.058-.557-.108-1.089-.142-1.612-.038-.203-.011-.412.075-.599.096-.19.296-.304.508-.291-1.326-1.962-2.977-4.13-4.952-6.501-.3-.382-.625-.743-.973-1.081-.374-.356-.73-.73-1.066-1.123-.166-.232-.383-.565-.657-.989-.275-.424-.533-.831-.674-1.014-.205-.341-.491-.627-.832-.832-.066-.052-.139-.094-.217-.124z" transform="translate(-3.203692, 13.512617) translate(98.949566, 145.450750)"/>
                                <path fill="#000" d="M13.825 2.092c-.21-.011-.422.014-.624.075-1.073.307-2.18 1.247-3.329 2.835-1.148 1.588-6.3 9.569-6.3 9.569-.8 1.237-1.511 2.529-2.13 3.866-.436 1.13-.803 2.284-1.099 3.458-.481 4.109-.456 8.26.075 12.363.139 1.347.358 2.877.658 4.59.208 1.113.4 2.227.566 3.325.616 4.282 1.542 8.513 2.77 12.662.795 3.038 1.81 6.013 3.039 8.904.533 1.25 1.188 2.444 1.955 3.566l.425.474c.163.203.353.382.566.532.212.132.431.251.657.358l.092.058c.2.1.682.291 1.44.565.733.298 1.494.524 2.271.674.019.091.046.18.084.266.05.191.399.948 1.048 2.286.36.784.762 1.548 1.207 2.286.316.408.723.736 1.19.957l.424.157c2.673.15 5.348-.267 7.848-1.222 2.773-.917 5.453-2.092 8.006-3.508 1.987-1.068 3.741-2.52 5.16-4.273.75-.89 1.386-1.866 1.898-2.91.108-.309.175-.63.2-.956 0-.341-.109-1.422-.359-3.243-.25-1.82-.35-2.619-.374-2.643-.008.01-.02.016-.033.016-.013 0-.026-.006-.034-.016l.691-1.131c.396-.797.705-1.633.924-2.494l.216-1.206c.03-.554.03-1.109 0-1.663-.075-.82-.223-1.633-.44-2.427-.508-1.74-1.143-3.44-1.898-5.088l-.483-1.098c-.555-1.313-1.146-2.616-1.773-3.907-1.944-4.296-3.612-8.711-4.993-13.22-.913-3.285-1.51-6.651-1.78-10.05-.012-.467-.138-.924-.367-1.33-.167-.19-.405-.3-.658-.308h-.058c-.212-.013-.412.101-.507.29-.087.188-.113.397-.075.6 0 .523.083 1.055.141 1.612.34 3.615 1 7.193 1.972 10.692.092.332.209.665.342 1.014 1.722 4.946 3.695 9.802 5.908 14.55l.974 2.219c.513 1.135.969 2.295 1.365 3.475.058.191.2.607.408 1.239.208.632.324 1.388.45 2.095.116.604.116 1.225 0 1.829-.17.61-.395 1.203-.675 1.77-1.247 2.43-3.018 4.555-5.185 6.22-3.75 3.026-6.899 5.038-9.445 6.035-.9.345-1.823.623-2.763.832-1.249.266-2.023.449-2.33.548l-1.174.142c-1.223.152-2.457.189-3.687.108-.929-.058-1.848-.225-2.738-.499-.287-.087-.566-.201-.832-.34-.458-.207-.893-.46-1.298-.757-.924-.732-1.831-2.287-2.713-4.648-.883-2.36-1.731-4.813-2.497-7.324-.25-.832-.474-1.663-.69-2.494-1.136-4.465-2.039-8.986-2.706-13.544-.108-.532-1.206-6.277-1.131-8.663.055-2.831.274-5.657.657-8.463.282-.028.56-.08.832-.158 1.571-.546 3.007-1.422 4.211-2.569 1.173-1.16 2.258-2.405 3.246-3.725l5.035-6.759c1.664-2.183 3.08-4.043 4.244-5.578.3-.383.591-.732.833-1.064l.25-.358c.139-.197.235-.42.282-.657.035-.179.015-.364-.058-.532-.065-.167-.203-.296-.375-.349-.324-.108-.707.075-1.131.565-.2.225-.425.483-.674.782h-.783c-.627-.02-1.256-.001-1.88.058-.468.072-.93.178-1.382.316-.4.098-.791.223-1.174.374m3.729.873h.233c-1.199 1.546-2.702 3.572-4.51 6.077-2.072 2.887-4.295 5.662-6.659 8.314-.887 1.178-2.12 2.05-3.528 2.494l-.358.067c.332-.923.724-1.822 1.173-2.694.4-.731 1.016-1.77 1.848-3.1l1.19-1.938c1.598-2.494 2.746-4.223 3.454-5.121.848-1.116 1.838-2.117 2.946-2.977.1-.014.197-.039.291-.074l.757-.35c.228-.107.469-.185.716-.232.788-.251 1.605-.4 2.43-.441m0 69.354c-.349-.71-.647-1.443-.89-2.195 1.842.066 3.684-.101 5.484-.499l.832-.174.724-.2.658-.158.175-.05c1.035-.3 2.045-.68 3.02-1.139 1.074-.507 2.006-.956 2.788-1.363l1.099-.582c.016-.006.034-.006.05 0 .391-.225.732-.433 1.015-.607.516-.333 1.19-.765 2.006-1.314.788-.582 1.54-1.21 2.255-1.879l.125-.108c.01-.022.028-.04.05-.05l.832-.831.175-.183c.612-.573 1.17-1.202 1.664-1.879.08-.112.142-.235.184-.366.366 2.644.554 4.196.565 4.656-.407.894-.927 1.732-1.547 2.494l-.192.233-.6.657c-.053.048-.103.101-.149.158-.827.815-1.73 1.55-2.696 2.195-.633.424-1.282.831-1.931 1.205l-1.223.69c-1.489.77-3.033 1.43-4.62 1.97-.282.084-.557.175-.831.267l-1.099.34c-1.356.43-2.749.73-4.161.898-.829.099-1.665.113-2.497.042-.333-.083-.832-.831-1.44-2.17" transform="translate(-3.203692, 13.512617) translate(98.949566, 145.450750)"/>
                                <path fill="#66371C" d="M24.578 69.043c.166.34.374.723.624 1.156l.5.773c.171.31.313.587.424.831.167.377.315.763.44 1.156l.126.282c.258-.091.532-.182.832-.266 1.586-.541 3.13-1.2 4.619-1.97-.075-.175-.125-.308-.167-.407l-.241-.532c-.208-.59-.366-1.023-.483-1.306-.199-.384-.371-.78-.516-1.189l-.175-.64c-.058-.133-.116-.25-.158-.357-.782.407-1.714.831-2.788 1.363-.975.459-1.985.84-3.02 1.14M36.97 62.89l-.109-.482c-.012-.083-.012-.167 0-.25-.714.67-1.467 1.297-2.255 1.88-.832.548-1.49.98-2.006 1.313-.283.174-.624.382-1.015.607l.674 1.488c.125.253.233.514.325.781.11.338.186.554.224.649.08.176.169.348.267.515l.183.607c0 .083.083.191.141.316.65-.374 1.299-.782 1.931-1.206.966-.644 1.87-1.38 2.696-2.194-.04-.09-.068-.185-.083-.283l-.482-1.846c-.117-.415-.267-1.047-.458-1.895m2.946-4.157c-.042.13-.104.254-.183.366-.495.677-1.052 1.306-1.665 1.879l-.174.182c.07.188.118.383.141.582.083.466.241 1.24.491 2.32l.425 1.796c.62-.762 1.14-1.6 1.547-2.494 0-.455-.188-2.007-.565-4.656m-23.22 11.415c.244.752.542 1.485.891 2.195.624 1.363 1.107 2.086 1.44 2.17.831.07 1.668.056 2.496-.042 1.413-.168 2.806-.469 4.162-.898l-.5-.906c-.732-1.364-1.281-2.494-1.664-3.326l.3-.091-.725.2-.832.174c-1.8.398-3.642.565-5.484.499m1.107-67.16h-.233c-.826.043-1.643.19-2.43.441-.248.048-.488.126-.716.233l-.758.35c-.094.035-.191.06-.29.074-1.108.86-2.099 1.86-2.947 2.977-.707.897-1.856 2.61-3.454 5.12l-1.323 1.963c-.832 1.33-1.448 2.37-1.847 3.101-.45.871-.842 1.771-1.174 2.694l.358-.067c1.407-.444 2.64-1.316 3.529-2.494 2.364-2.652 4.586-5.428 6.657-8.314 1.787-2.483 3.28-4.5 4.478-6.052l.15-.025z" transform="translate(-3.203692, 13.512617) translate(98.949566, 145.450750)"/>
                                <path fill="#3F2010" d="M31.535 65.925c-.016-.005-.034-.005-.05 0l-1.098.582c.041.108.1.225.158.358l.175.64c.144.408.316.805.516 1.189.116.282.274.715.482 1.305l.242.532c.041.1.091.233.166.408l1.223-.69c-.058-.125-.108-.233-.141-.316l-.183-.607c-.098-.167-.187-.34-.267-.516-.038-.094-.113-.31-.224-.648-.092-.267-.2-.528-.325-.782l-.674-1.488m-7.132 3.168l-.658.158-.3.091c.367.831.916 1.937 1.665 3.326l.5.906 1.098-.341-.125-.283c-.126-.393-.273-.778-.44-1.155-.106-.222-.248-.5-.425-.832l-.5-.773c-.25-.432-.457-.831-.624-1.156l-.174.05m12.441-6.717l.109.482c.191.831.34 1.48.457 1.895l.483 1.846c.014.098.042.193.083.283.046-.057.096-.11.15-.158l.6-.657.19-.233-.424-1.796c-.25-1.08-.408-1.853-.49-2.32-.024-.198-.072-.393-.142-.581l-.833.831c-.022.01-.04.028-.05.05l-.124.108c-.026.095-.034.194-.025.291l.016-.041z" transform="translate(-3.203692, 13.512617) translate(98.949566, 145.450750)"/>
                            </g>
                            <g fill-rule="nonzero">
                                <path fill="#000" d="M14.62 9.635c-.966-.831-1.665-1.496-2.198-1.978L7.753 3.15C5.997 1.538 4.957.58 4.633.299c-.258-.308-.7-.389-1.05-.191-.355.273-.664.601-.915.972-.499.59-.907 1.065-1.223 1.414-.316.349-.716.773-1.123 1.222-.305.274-.405.71-.25 1.089.133.421 1.323 1.937 3.57 4.548 1.699 2.095 3.656 3.966 5.826 5.57.867.67 1.814 1.229 2.821 1.663.233 0 .965-.765 2.18-2.287 1.154-1.662 1.562-2.826 1.224-3.491-.283-.446-.644-.838-1.065-1.156M4.025 1.712c.366.333 2.17 2.034 5.41 5.105 3.17 3.051 4.76 4.59 4.768 4.63.1.22.1.472 0 .69l-1.29 1.913c-.235.376-.544.7-.907.956-.133.058-1.215-.757-3.262-2.444-3.396-3.01-5.726-5.781-6.991-8.314 0 0 .732-.873 2.264-2.552l.008.016z" transform="translate(-3.203692, 13.512617) translate(110.763917, 190.201166)"/>
                                <path fill="#66371C" d="M9.426 6.8C6.18 3.735 4.377 2.034 4.016 1.696c-1.53 1.662-2.28 2.535-2.255 2.552C3.026 6.77 5.357 9.54 8.752 12.562c2.047 1.663 3.13 2.494 3.262 2.444.364-.255.672-.58.907-.956l1.29-1.912c.1-.22.1-.471 0-.69 0 0-1.614-1.597-4.785-4.648z" transform="translate(-3.203692, 13.512617) translate(110.763917, 190.201166)"/>
                            </g>
                            <g fill-rule="nonzero">
                                <path fill="#F6711F" d="M29.32 5.568c-.145-.258-.379-.453-.658-.549-.931-.212-1.908.018-2.647.624-.719.47-1.247 1.18-1.49 2.004-.062.194-.062.404 0 .598.077.233.275.406.517.45.377.098.776.075 1.14-.067.586-.28 1.144-.618 1.664-1.006.05-.05.05 0 0 .19-.07.245-.165.482-.283.707-.358.656-.984 1.123-1.714 1.28-.274.06-.558.06-.832 0-.204-.082-.402-.18-.591-.29-.387-.205-.683-.546-.832-.956-.064-.231-.153-.454-.267-.665-.286-.087-.565-.198-.832-.333-.076-.065-.168-.111-.266-.133-.21.092-.412.198-.608.316l-.166.1c-.234.113-.484.192-.74.233-.3.058-.609.058-.908 0-.736-.16-1.41-.53-1.94-1.065-.141-.254-.219-.54-.224-.831-.04-.276-.04-.556 0-.831v-.1c.089.306.242.59.45.831.317.46.78.8 1.315.965.51.2 1.081.167 1.564-.092.3-.237.416-.637.291-.997-.114-.478-.363-.914-.715-1.256-.15-.148-.308-.287-.475-.416-.368-.402-.872-.654-1.414-.706-.556.024-1.066.31-1.374.773-.094.14-.172.291-.233.449-.168.37-.264.767-.283 1.172-.023.277-.023.555 0 .832l.1.615c.173.998.173 2.019 0 3.018l-.308.582c-.083.133-1.065 1.388-2.97 3.757-1.715 2.145-2.8 3.495-3.255 4.05-1.01 1.246-2.091 2.56-3.245 3.94-2.453 2.893-3.793 4.517-4.02 4.872-.155.25-.855 1.08-2.097 2.494 0 0 .241.291.665.831.425.54.9 1.065 1.332 1.53.56.579 1.163 1.113 1.806 1.596-.036-.04-.067-.085-.092-.133l.442.325c1.742-2.295 4.091-5.21 7.048-8.746 2.958-3.537 5.249-6.28 6.875-8.231 1.227-1.559 2.623-2.978 4.16-4.232.667-.49 1.582-1.13 2.755-1.929 1.903-1.38 3.052-2.843 3.446-4.39.11-.411.037-.85-.2-1.205m-5.318-4.415c-.924-.281-1.926.052-2.496.832l-.658 1.272s.375.374 1.124 1.089c.166-.663.554-1.25 1.098-1.663.486-.477 1.084-.826 1.74-1.014-.247-.201-.53-.354-.833-.449m3.063 2.02c-.287-.29-.651-.491-1.049-.582-.783-.071-1.55.257-2.039.873-.487.383-.868.884-1.107 1.455-.274 1.064 0 1.663.733 1.88.141 0 .224.082.258.14.194-.656.586-1.237 1.123-1.662.658-.654 1.506-1.084 2.422-1.23.09-.321.012-.665-.208-.915l-.133.041z" transform="translate(-3.203692, 13.512617) translate(155.501401, 78.573366)"/>
                                <path fill="#000" d="M30.093 8.511c.37-.776.514-1.64.416-2.494-.038-.67-.337-1.3-.832-1.754-.311-.203-.664-.333-1.032-.383-.005-.193-.06-.382-.158-.548-.142-.3-.324-.58-.54-.832-.292-.304-.656-.53-1.058-.657l-.74-.207s-.233-.241-.658-.724c-.338-.414-.803-.706-1.323-.831-.712-.163-1.458-.078-2.114.241-.683.293-1.28.757-1.731 1.347-.172.219-.31.463-.408.723-.072.189-.155.288-.25.3-.274-.067-.552-.117-.832-.15-.499.04-.984.184-1.423.424-.336.211-.62.495-.832.831-.26.427-.447.893-.558 1.38-.195.884-.248 1.793-.158 2.694 0 .557.058 1.08.1 1.588-.216.706-.588 1.354-1.09 1.895L0 28.954l1.049 1.198c1.242-1.43 1.941-2.261 2.097-2.494.222-.36 1.562-1.984 4.02-4.872 1.159-1.38 2.24-2.694 3.245-3.94.46-.555 1.545-1.905 3.254-4.05 1.906-2.369 2.888-3.624 2.971-3.757l.308-.582c.173-.999.173-2.02 0-3.018l-.1-.616c-.024-.276-.024-.554 0-.83.02-.406.115-.804.283-1.173.061-.158.14-.308.233-.45.308-.461.818-.748 1.373-.772.543.052 1.047.304 1.415.706.166.13.325.268.475.416.352.342.6.778.715 1.255.125.361.008.761-.291.998-.483.259-1.055.292-1.565.092-.534-.166-.997-.505-1.315-.965-.207-.242-.36-.525-.449-.831v.1c-.04.275-.04.555 0 .83.005.292.083.578.225.832.529.536 1.203.905 1.939 1.064.3.06.607.06.907 0 .257-.04.507-.119.74-.232l.167-.1c.196-.118.399-.224.608-.316.098.022.19.068.266.133.267.135.546.246.832.333.114.21.203.434.267.665.149.41.445.751.832.956.19.11.387.208.59.29.275.06.559.06.833 0 .73-.157 1.356-.624 1.714-1.28.118-.225.213-.462.283-.706.042-.175.042-.241 0-.191-.52.388-1.078.725-1.664 1.005-.364.143-.763.166-1.14.067-.242-.043-.44-.216-.516-.449-.063-.195-.063-.404 0-.599.242-.823.77-1.534 1.49-2.003.737-.606 1.715-.836 2.646-.624.28.096.513.291.657.549.238.354.31.794.2 1.206-.394 1.546-1.542 3.01-3.445 4.39-1.174.83-2.09 1.437-2.755 1.928-1.538 1.254-2.933 2.673-4.161 4.232-1.665 1.945-3.956 4.689-6.874 8.23-2.919 3.542-5.299 6.444-7.14 8.705l-.442-.324c.025.048.055.093.092.133.29.407.649.881 1.073 1.413 3.113-3.88 6.164-7.668 9.155-11.365 4.888-5.958 7.662-9.137 8.322-9.536.607-.366 1.34-.831 2.18-1.463.483-.34 1.182-.831 2.09-1.521 1.072-.803 1.904-1.884 2.404-3.126m-4.078-5.92c.398.09.762.292 1.049.582.242.206.369.516.341.831-.916.147-1.763.577-2.422 1.23-.536.426-.929 1.007-1.123 1.664 0-.059-.117-.1-.258-.142-.757-.19-1.007-.831-.732-1.879.238-.571.62-1.072 1.106-1.455.489-.616 1.256-.944 2.04-.872m-4.52-.632c.57-.78 1.573-1.113 2.497-.832.304.096.586.248.832.45-.655.187-1.253.536-1.74 1.014-.544.413-.931 1-1.098 1.662-.749-.715-1.123-1.08-1.123-1.089l.632-1.205z" transform="translate(-3.203692, 13.512617) translate(155.501401, 78.573366)"/>
                            </g>
                            <g fill-rule="nonzero">
                                <path fill="#000" d="M28.644 31.652c-.291-.08-.59-.127-.89-.142-.317.009-.6.196-.733.482-.017.047-.03.094-.042.142.084.081.176.154.275.216.835.466 1.716.845 2.63 1.13.646.185 1.302.334 1.964.45.083 0 .165.017.241.05.574.066 1.148.116 1.706.14-.03.078-.03.164 0 .242.064.53.222 1.046.466 1.521.167.647.093 1.333-.208 1.93-.274.628-.707 1.176-1.257 1.587-1.13.734-2.409 1.208-3.745 1.388-1.057.183-2.371.333-3.944.466-.4.104-.806.185-1.215.241-.6.117-1.665.258-3.18.416l-2.18.208c-.999.041-1.83.058-2.497.05-.057.124-.077.263-.058.399 0 .183.175.365.458.557.212.16.46.266.724.307h.266c.007.044.007.09 0 .133-.24 2.027-.881 3.986-1.889 5.762-.974 1.8-2.295 3.391-3.886 4.68-.901.703-1.85 1.342-2.838 1.913l-.283.166-.833.457-.615.333-.267.091c-.724.383-1.04.782-.948 1.18.006.05.026.096.058.134.098-.009.196.012.283.058.378.035.76-.016 1.115-.15.824-.274 1.617-.636 2.363-1.08l2.131-1.347c1.483-1.019 2.788-2.274 3.861-3.717 1.09-1.424 1.933-3.02 2.497-4.722.266-.831.574-2.186.932-3.982.491 0 .94-.067 1.348-.083.666-.05 1.44-.125 2.33-.233 2.301-.116 4.593-.36 6.867-.732 2.219-.438 3.822-1.153 4.81-2.145.597-.56 1.03-1.273 1.248-2.061.23-.785.285-1.612.158-2.42-.083-.39-.183-.831-.291-1.239-.033-.116-.058-.216-.075-.299.978-.091 1.947-.264 2.896-.515.833-.167 1.64-.447 2.397-.832 1.795-.95 3.25-2.435 4.161-4.248 1.017-1.81 1.654-3.806 1.873-5.87.136-1.477.119-2.965-.05-4.44-.1-.997-.308-2.452-.633-4.339v-.1c-.046-.24-.113-.477-.2-.706-.213.136-.436.258-.665.365l-.832.35c.3 1.32.52 2.659.657 4.007.15 1.663.225 2.735.233 3.325-.002 2.852-.917 5.629-2.613 7.923-.46.587-.972 1.13-1.531 1.622-.573.415-1.2.748-1.865.989-.505.181-1.018.337-1.54.465-1.392.29-2.815.405-4.235.341-1.645-.104-3.274-.383-4.86-.831m-22.246-.956c.871-1.539 1.83-3.027 2.871-4.456 1.28-1.802 2.788-3.432 4.486-4.847 1.666-1.368 3.73-2.164 5.884-2.27-.35 1.189-.65 2.403-.916 3.633-.1.482-.066.832.109.973.048.065.115.114.191.141.02-.076.045-.151.075-.224.507-1.777 1.153-3.512 1.93-5.188.3-.665.75-1.596 1.349-2.785.308-.906.582-1.663.832-2.162.353-.793.754-1.565 1.198-2.311l1.965-3.5c.624-1.114 1.123-1.954 1.498-2.494.543-.796 1.183-1.522 1.905-2.162.75-.629 1.636-1.073 2.589-1.297.935-.23 1.92-.148 2.804.233l.416.175c0-.582-.05-1.173 0-1.771-.653-.227-1.339-.35-2.03-.366-.831-.014-1.658.124-2.439.407-1.157.461-2.196 1.177-3.037 2.095-.846.933-1.599 1.947-2.247 3.027-2.384 3.748-4.29 7.778-5.676 11.996-.091-.013-.184-.013-.275 0-2.418.036-4.758.866-6.658 2.362-1.9 1.45-3.583 3.166-4.993 5.096-1.276 1.698-2.443 3.476-3.495 5.32-1.815 3.161-3.288 6.505-4.395 9.977-.153.487-.28.98-.382 1.48-.01.027-.01.056 0 .083.135-.207.288-.402.457-.582.267-.318.498-.663.691-1.03.266-.516.774-1.397 1.515-2.653 1.354-2.643 2.613-4.944 3.778-6.9z" transform="translate(-3.203692, 13.512617) translate(115.972326, 110.445420)"/>
                                <path fill="#F4C963" d="M9.32 26.181c-1.042 1.43-2 2.917-2.872 4.456-1.165 1.979-2.405 4.26-3.72 6.843-.74 1.255-1.248 2.136-1.515 2.652-.192.367-.424.713-.69 1.03-.17.18-.323.375-.458.583.033.288.083.629.15 1.022.133 0 .2 0 .2.058.307 4.036 1.711 7.91 4.06 11.207.31.484.692.919 1.133 1.289.382.308.599.474.649.507.17.236.336.475.499.715.08.132.188.246.316.333l.616-.333.832-.457.283-.166c.99-.571 1.938-1.21 2.838-1.913 1.592-1.289 2.913-2.88 3.887-4.68 1.007-1.776 1.65-3.735 1.889-5.762.007-.044.007-.089 0-.133h-.266c-.264-.04-.512-.146-.725-.307-.282-.192-.44-.374-.457-.557-.02-.136 0-.275.058-.4.682 0 1.515 0 2.497-.05l2.18-.207c1.515-.158 2.58-.3 3.18-.416.409-.056.814-.137 1.214-.24 1.573-.134 2.888-.284 3.945-.467 1.336-.18 2.615-.654 3.745-1.388.55-.411.983-.959 1.257-1.588.301-.596.375-1.282.208-1.929-.244-.475-.402-.99-.466-1.521-.03-.078-.03-.164 0-.241-.558 0-1.132-.075-1.706-.142-.077-.032-.159-.049-.242-.05-.662-.115-1.317-.264-1.964-.448-.913-.286-1.794-.665-2.63-1.131-.098-.062-.19-.135-.274-.216.01-.048.025-.095.041-.142.133-.286.417-.473.733-.482.3.015.6.062.89.142 1.586.448 3.215.726 4.86.831 1.421.063 2.844-.051 4.236-.34.521-.13 1.035-.285 1.54-.466.665-.242 1.292-.575 1.864-.99.56-.492 1.072-1.035 1.532-1.621 1.695-2.294 2.611-5.071 2.613-7.923 0-.59-.083-1.663-.233-3.326-.137-1.348-.357-2.686-.658-4.007-.008-.058-.008-.117 0-.174l-.258-.084s-.041-.058-.058-.058c-1.236-.932-2.384-1.976-3.429-3.117-2.188-2.362-3.848-5.162-4.868-8.214l-.108-.059-.417-.174c-.884-.382-1.869-.463-2.804-.233-.953.224-1.84.668-2.588 1.297-.722.64-1.362 1.365-1.906 2.161-.375.574-3.462 6.028-3.462 6.028-.558.964-3.071 6.593-3.33 7.258-.777 1.676-1.423 3.41-1.93 5.188-.03.073-.055.148-.075.224-.076-.027-.143-.076-.191-.141-.175-.166-.208-.49-.108-.973.266-1.23.565-2.444.915-3.633-2.154.106-4.217.902-5.884 2.27-1.725 1.397-3.26 3.012-4.569 4.805z" transform="translate(-3.203692, 13.512617) translate(115.972326, 110.445420)"/>
                            </g>
                            <g fill-rule="nonzero">
                                <path fill="#000" d="M7.697 1.347C7.464 1.048 6.68-.025 6.548 0c-.306.06-.583.217-.79.45L.248 5.495s-.665.457.183 2.552c1.646 3.102 3.536 6.068 5.651 8.871.158.191.433.532.633.748 0 0 2.213 2.079 2.721 2.428.208.15.658.382.682.399v.042c.4.026.8-.004 1.19-.092.24-.116.489-.25.75-.399-.002-.028-.002-.055 0-.083.832-1.663 1.58-3.218 2.155-4.648.574-1.43 1.714-3.707 1.731-3.757.07-.273.07-.56 0-.832-.068-.112-.146-.217-.233-.316-.216-.255-.455-.489-.716-.698-.34-.208-4.569-4.772-7.298-8.364zm1.315 4.465c.174.191.357.415.574.673.483.574.94 1.13 1.373 1.663.093.074.174.16.241.258.059.075.15.19.258.349l.392.399.083.091v.042l.1.075.141.183c.65.673 1.257 1.247 1.814 1.72-.316.724-.774 1.78-1.356 3.168-.583 1.389-1.174 2.627-1.548 3.392l-.45.832c-1.144-.654-2.152-1.52-2.97-2.553l-.833-1.039c-.009.015-.009.035 0 .05-1.16-1.42-2.206-2.93-3.129-4.514l-.141-.158c-.193-.273-.35-.57-.466-.882-.017-.038-.03-.076-.042-.116-.012-.032-.012-.068 0-.1-.443-.825-.826-1.681-1.149-2.56-.058-.1-.108-.2-.158-.3.722-.85 1.519-1.635 2.38-2.344l.691-.599c.414-.397.862-.756 1.34-1.072.147-.1.284-.214.408-.341.524.923.999 1.663 1.423 2.336l.125.133.366.449c.216.226.396.484.533.765z" transform="translate(-3.203692, 13.512617) translate(150.001760, 103.803177)"/>
                                <path fill="#66371C" d="M6.174 2.47c-.478.316-.927.675-1.34 1.072l-.69.599c-.863.709-1.66 1.493-2.381 2.344.05.1.1.2.158.3.322.879.706 1.735 1.149 2.56-.013.032-.013.068 0 .1.082-.048.16-.104.233-.166.23-.153.44-.335.624-.54l4.16-4.158-.074-.108c-.424-.64-.899-1.413-1.423-2.336-.124.127-.26.242-.408.34m7.84 8.814c-.558-.474-1.165-1.048-1.815-1.721l-.141-.183-.1-.075V9.27l-.083-.091-2.846 4.548c-.683 1.114-1.082 1.804-1.215 2.061 0 .042-.05.142-.092.283.818 1.032 1.827 1.899 2.971 2.552l.45-.831c.371-.765.887-1.896 1.547-3.392.583-1.388 1.04-2.444 1.357-3.168m-4.993-5.47c-.03-.049-.067-.094-.109-.133l-.091-.117c-.377.273-.73.576-1.057.907-.318.395-.662.767-1.032 1.114-.125.166-.682.715-1.665 1.663l-1.14 1.172-.174.191c.922 1.585 1.968 3.094 3.129 4.514-.01-.015-.01-.034 0-.05.316-.598.715-1.28 1.206-2.045l2.056-3.375c.252-.4.482-.814.69-1.239.035-.083.074-.163.117-.241-.432-.549-.89-1.106-1.373-1.663-.25-.233-.433-.457-.607-.648l.05-.05z" transform="translate(-3.203692, 13.512617) translate(150.001760, 103.803177)"/>
                                <path fill="#3F2010" d="M10.843 8.406c-.209.424-.44.838-.691 1.238L8.096 13.02c-.49.765-.89 1.446-1.207 2.045l.833 1.04c.041-.142.075-.242.091-.283.133-.258.533-.948 1.215-2.062l2.846-4.548-.39-.399c-.109-.158-.2-.274-.259-.35-.067-.096-.148-.183-.241-.257-.044.078-.083.159-.117.241M8.928 5.72c.042.04.078.085.109.133-.132-.28-.306-.538-.516-.765l-.367-.448-.124-.133.075.108-4.162 4.157c-.184.205-.394.387-.624.54-.072.063-.15.118-.233.166.012.04.026.079.042.117.117.312.273.608.466.88l.141.159.175-.191L5.05 9.27c.99-.94 1.548-1.488 1.665-1.662.37-.347.714-.72 1.032-1.114.334-.34.695-.652 1.082-.932l.1.158z" transform="translate(-3.203692, 13.512617) translate(150.001760, 103.803177)"/>
                            </g>
                        </g>
                    </g>
                    <path fill="#FFF" fill-rule="nonzero" d="M50.134 181.158c-.407-.432-.407-1.106 0-1.538 1.423-1.488 2.355-2.719 2.18-2.893-.175-.175-1.398.765-2.896 2.178-.433.406-1.107.406-1.54 0-1.498-1.413-2.73-2.353-2.896-2.178-.166.174.758 1.405 2.18 2.893.408.432.408 1.106 0 1.538-1.422 1.496-2.355 2.727-2.18 2.902.175.174 1.398-.765 2.896-2.187.433-.407 1.107-.407 1.54 0 1.498 1.422 2.73 2.361 2.896 2.187.167-.175-.716-1.406-2.18-2.902zM154.794 188.931c-.78-.829-.78-2.122 0-2.951 2.722-2.86 4.52-5.213 4.162-5.545-.358-.333-2.689 1.463-5.56 4.157-.825.783-2.12.783-2.946 0-2.863-2.71-5.218-4.506-5.55-4.157-.334.349 1.456 2.685 4.16 5.545.781.83.781 2.122 0 2.951-2.721 2.86-4.519 5.213-4.16 5.546.357.332 2.687-1.464 5.55-4.157.822-.792 2.124-.792 2.946 0 2.871 2.71 5.227 4.506 5.56 4.157.332-.35-1.415-2.686-4.162-5.546zM34.954 95.65c-1.355-.055-2.442-1.14-2.497-2.494-.125-4.788-.607-8.355-1.182-8.355-.574 0-1.048 3.567-1.173 8.355-.063 1.35-1.145 2.432-2.497 2.494-4.793.125-8.322.607-8.322 1.173 0 .565 3.562 1.056 8.322 1.18 1.354.06 2.438 1.142 2.497 2.494.125 4.79.6 8.314 1.173 8.314.575 0 1.057-3.566 1.182-8.314.055-1.354 1.142-2.439 2.497-2.494 4.793-.124 8.322-.607 8.322-1.18 0-.574-3.57-1.048-8.322-1.173zM166.529 44.37c-1.985-.056-3.58-1.65-3.637-3.632-.183-6.876-.832-11.989-1.665-11.989-.832 0-1.506 5.113-1.664 11.989-.057 1.982-1.652 3.576-3.637 3.633-6.874.174-12 .831-12 1.663 0 .831 5.126 1.513 12 1.662 1.985.057 3.58 1.65 3.637 3.633.183 6.876.874 11.989 1.664 11.989.791 0 1.515-5.113 1.665-11.989.056-1.982 1.652-3.576 3.637-3.633 6.874-.174 11.992-.831 11.992-1.662 0-.832-5.118-1.489-11.992-1.663zM181.076 125.198c-.95-.026-1.713-.79-1.74-1.738-.09-3.284-.415-5.728-.832-5.728-.416 0-.715 2.444-.832 5.728-.026.949-.79 1.712-1.74 1.738-3.286.083-5.733.415-5.733.831s2.447.723 5.734.831c.95.027 1.713.79 1.74 1.738.09 3.284.415 5.728.832 5.728.416 0 .724-2.444.832-5.728.026-.949.79-1.711 1.74-1.738 3.286-.083 5.733-.415 5.733-.83 0-.417-2.447-.75-5.734-.832zM80.593 39.047c-.541-.568-.541-1.46 0-2.028 1.873-1.97 3.113-3.592 2.888-3.825-.225-.233-1.856 1.006-3.828 2.877-.572.541-1.468.541-2.04 0-1.972-1.87-3.594-3.11-3.827-2.877-.234.233 1.007 1.854 2.879 3.825.541.568.541 1.46 0 2.028-1.872 1.979-3.104 3.6-2.88 3.824.225.225 1.856-1.006 3.829-2.876.571-.542 1.467-.542 2.039 0 1.972 1.87 3.595 3.11 3.828 2.876.233-.232-1.015-1.845-2.888-3.824zM158.415 84.294c-.566-.018-1.02-.474-1.032-1.04-.059-1.945-.25-3.4-.483-3.4-.233 0-.433 1.455-.483 3.4-.017.564-.468 1.018-1.032 1.04-1.955.05-3.412.24-3.412.474 0 .232 1.457.432 3.412.482.561.021 1.01.47 1.032 1.03.05 1.955.25 3.41.483 3.41.233 0 .424-1.455.483-3.41.013-.563.467-1.017 1.032-1.03 1.955-.05 3.403-.25 3.403-.482 0-.233-1.448-.424-3.403-.474z" mask="url(#36c91mdofb)"/>
                    <path fill="#231F20" fill-rule="nonzero" d="M103.48 239.912c-10.104 0-32.241-16.57-62.418-41.445-7.024-5.82-14.405-12.18-21.945-18.98-4.42-3.99-7.058-13.16-7.058-19.72V27.727c-.016-2.146 1.26-4.091 3.238-4.93 9.379-4 33.289-10.7 88.15-10.7 54.86 0 78.81 6.7 88.19 10.7 1.97.844 3.24 2.788 3.221 4.93v132.04c0 6.567-2.638 15.738-7.066 19.72-7.49 6.742-14.838 13.127-21.92 18.98-30.144 24.875-52.29 41.445-62.393 41.445zm0-226.967c-54.711 0-78.505 6.65-87.825 10.633-1.664.712-2.74 2.35-2.73 4.157v132.032c0 6.376 2.497 15.264 6.782 19.121 7.532 6.776 14.906 13.161 21.905 18.98 25.957 21.425 51.415 41.254 61.85 41.254 10.437 0 35.903-19.829 61.86-41.253 7.074-5.82 14.447-12.23 21.896-18.956 4.253-3.824 6.791-12.72 6.791-19.122V27.727c.014-1.805-1.055-3.442-2.713-4.157-9.304-3.983-33.106-10.642-87.817-10.642v.017z" mask="url(#36c91mdofb)"/>
                </g>
            </g>
        </g>
    </g>
</svg>
