<svg width="147" height="89" viewBox="0 0 147 89" xmlns="http://www.w3.org/2000/svg">
    <g fill-rule="nonzero" fill="none">
        <path d="m2.517 65.988 29.621-7.46c.336-.069.684.032.933.27.248.237.366.582.315.924l-3.019 17.8c-.052.349.072.7.33.938s.616.33.956.247L47.06 74.97c.322-.078.663 0 .918.214.255.213.395.535.378.869l-1.425 11.834c-.017.334.124.657.38.87.255.213.596.292.918.213l63.392-16.326a4.216 4.216 0 0 0 2.41-1.62l32.565-44.36c.522-.72.54-1.694.043-2.433a2.09 2.09 0 0 0-2.257-.864l-19.84 5.797a1.043 1.043 0 0 1-.968-.245 1.061 1.061 0 0 1-.326-.95l3.758-25.504a2.125 2.125 0 0 0-.656-1.913A2.087 2.087 0 0 0 124.4.07L59.671 17.74a.895.895 0 0 1-.833-.195.911.911 0 0 1-.295-.809l.196-1.388a2.595 2.595 0 0 0-.827-2.293 2.549 2.549 0 0 0-2.352-.576l-19.227 4.73a8.382 8.382 0 0 0-4.433 2.916L.456 62.597a2.13 2.13 0 0 0-.147 2.422 2.094 2.094 0 0 0 2.208.97z" fill="#00918D"/>
        <path d="M86.627 64.78a2.397 2.397 0 0 1-2.087-1.245 2.407 2.407 0 0 1 .055-2.443l5.46-8.931 6.226-10.495c.194-.327.507-.565.873-.663l11.534-3.083-1.722 11.336-1.205 9.04a1.684 1.684 0 0 1-1.224 1.407l-6.44 1.77a1.68 1.68 0 0 1-1.945-.877 1.758 1.758 0 0 1-.147-1.077l.188-1.131-2.448 4.09c-.167.278-.432.481-.742.57l-5.705 1.637a2.437 2.437 0 0 1-.671.096zM75.136 43.967a1.677 1.677 0 0 1-1.28-.6 1.704 1.704 0 0 1-.376-1.37l3.689-22.37a1.66 1.66 0 0 1 1.215-1.352l6.003-1.62a1.67 1.67 0 0 1 1.711.538 1.7 1.7 0 0 1 .38 1.365l-.24 1.5 4.114-4.328a1.68 1.68 0 0 1 .706-.442l8.884-2.797a1.678 1.678 0 0 1 2.038.932c.275.61.16 1.327-.29 1.82l-6.156 6.85-4.616 5.109 7.816 7.694a1.7 1.7 0 0 1 .461 1.599 1.686 1.686 0 0 1-1.12 1.222l-6.886 2.237a1.68 1.68 0 0 1-1.746-.456l-.172-.174-4.543-5.061-1.054 1.275-.836 5.368a1.7 1.7 0 0 1-1.3 1.4l-6.034 1.62c-.12.027-.244.04-.368.04z" fill="#05325A"/>
        <path d="M54.442 84.117a1.729 1.729 0 0 1-1.305-.605 1.734 1.734 0 0 1-.417-1.388l1.422-10.207 1.698-9.286 1.318-9.856a1.618 1.618 0 0 1 1.08-1.364l18.15-4.915 8.696-2.446c.18-.04.365-.058.55-.052.508.002.99.23 1.318.62.332.387.477.902.396 1.406l-1.523 9.543-1.612 10.014a.77.77 0 0 1-.012.085l-1.539 9.448a1.608 1.608 0 0 1-1.108 1.286l-7.508 2.144c-.159.05-.324.075-.49.075a1.731 1.731 0 0 1-1.307-.606 1.806 1.806 0 0 1-.394-1.417l2.592-18.823-6.727 1.942a.774.774 0 0 0-.551.638l-1.357 9.392L64.556 80.1a1.624 1.624 0 0 1-1.135 1.369l-8.499 2.583a1.665 1.665 0 0 1-.48.064zM54.562 49.512c-3.94 1.006-3.644-3.123-3.468-4.156l1.432-8.437 1.954-9.974c.251-1.286.375-2.205 2.41-2.708l8.637-2.688 9.886-2.488c.134-.034.273-.052.411-.052.491-.006.958.215 1.267.599.319.386.45.895.357 1.388l-.94 5.031a1.676 1.676 0 0 1-1.186 1.313l-11.51 3.335-.047.297 6.678-1.909a1.67 1.67 0 0 1 1.594.38c.43.396.625.988.517 1.565l-.84 4.445a1.676 1.676 0 0 1-1.205 1.315l-8.13 2.256-.097.742 10.108-2.854a1.665 1.665 0 0 1 1.76.557c.32.397.443.917.337 1.416l-.86 4.3c-.129.61-.578 1.1-1.171 1.276 0 0-15.614 4.506-17.894 5.05zM104.009 36.052a6.385 6.385 0 0 1-4.833-2.22 6.49 6.49 0 0 1-1.51-5.131l.64-4.607 1.294-6.481a7.106 7.106 0 0 1 1.468-3.104l1.235-1.498a6.977 6.977 0 0 1 3.443-2.28l7.023-2.012 6.12-1.485c.263-.063.532-.095.802-.095.99.002 1.931.431 2.587 1.179a3.51 3.51 0 0 1 .844 2.731l-.389 3.269a1.68 1.68 0 0 1-1.251 1.436l-10.278 2.653a1.58 1.58 0 0 0-1.155 1.26l-.663 3.862c-.08.458.046.929.345 1.284.294.358.731.566 1.193.569.137-.001.273-.02.406-.054l7.33-1.931a1.673 1.673 0 0 1 1.715.553c.319.386.451.894.361 1.388l-.809 4.468a3.472 3.472 0 0 1-2.358 2.696l-6.332 2.035-5.791 1.348c-.471.11-.954.166-1.437.167zM102.862 70.874c-.997.318-1.362-.777-1.627-1.428-.24-.595-.072-1.239.31-1.756l8.66-11.705-2.371-1.454a3.26 3.26 0 0 1-1.57-3.385l2.153-12.162a1.695 1.695 0 0 1 1.205-1.334l7.649-2.13a1.673 1.673 0 0 1 1.714.522c.318.37.462.86.395 1.346l-.982 7.078 7.788-11.036 10.785-3.47c.215-.058.436-.086.658-.085a1.68 1.68 0 0 1 1.517.951c.283.584.21 1.28-.188 1.79l-6.431 8.429-12.794 17.145-6.726 9.52a1.681 1.681 0 0 1-1.016.673l-8.78 2.453a1.652 1.652 0 0 1-.349.038z" fill="#05325A"/>
        <path d="M10.632 61.53a1.672 1.672 0 0 1-1.53-1.007c-.253-.569-.264-1.445.105-1.946l4.527-6.085 7.187-9.736c.017-.023 5.883-6.98 5.883-6.98l6.601-8.597.06-.078 3.118-3.714a7.583 7.583 0 0 1 3.875-2.459l13.474-3.541a1.674 1.674 0 0 1 1.828.77c.223.383.294.837.199 1.27l-2.202 10.74-1.5 9.788L50.8 50.018a1.683 1.683 0 0 1-1.279 1.404l-8.676 2.052a1.674 1.674 0 0 1-1.82-.77 1.747 1.747 0 0 1-.198-1.27l2.459-11.994.759-4.443-1.188 1.303-5.843 7.124-5.508 7.46-.057.071-5.953 7.217c-.233.283-.551.481-.906.566l-11.566 2.745c-.128.03-.26.047-.391.047z" fill="#05325A"/>
        <path d="M9.582 60.471a1.668 1.668 0 0 1-1.529-1.006c-.255-.57-.265-1.445.103-1.947l4.528-6.084 7.187-9.737c.017-.022 5.882-6.978 5.882-6.978l6.602-8.598c.016-.023.038-.05.06-.078l3.118-3.715a7.583 7.583 0 0 1 3.88-2.458l13.474-3.54c.71-.172 1.45.14 1.829.769.223.383.294.837.198 1.27l-2.066 10.74-1.632 9.79-1.458 10.063a1.678 1.678 0 0 1-1.278 1.403l-8.676 2.053a1.672 1.672 0 0 1-1.821-.77 1.747 1.747 0 0 1-.198-1.27l2.458-11.994.76-4.444-1.188 1.303-5.843 7.124-5.509 7.46-.055.071-5.955 7.218c-.233.282-.55.48-.905.565L9.976 60.424c-.129.032-.261.047-.394.047z" fill="#FF6502"/>
        <path d="m13.851 49.777 6.025-8.08.016-.017 6.132-7.368.013-.02 6.24-8.418.016-.02 3.225-3.842a7.212 7.212 0 0 1 3.835-2.38l12.74-3.074a.42.42 0 0 1 .394.105c.105.1.15.25.122.393l-2.22 10.82-1.504 9.822-1.46 10.063a.419.419 0 0 1-.318.347l-8.677 2.054a.418.418 0 0 1-.389-.108.425.425 0 0 1-.118-.39L40.396 37.6l1.245-7.295a.424.424 0 0 0-.23-.45.418.418 0 0 0-.493.092l-3.131 3.434-.016.017-5.875 7.166-5.545 7.495-.016.017-5.954 7.217a.413.413 0 0 1-.226.143L8.6 58.183a.419.419 0 0 1-.45-.178.426.426 0 0 1 .014-.487l5.688-7.741z" fill="#FFD64C"/>
        <path d="M37.756 33.402s2.48-2.704 2.799-3.057c.13-.17.28-.323.446-.458.09-.058.2-.08.306-.062-.262-.212-.988-.15-1.539.477l-4.095 4.459-5.891 7.183-5.543 7.502-4.304 5.225a3.047 3.047 0 0 1-.8.694l-.929.549 1.95-.478a.421.421 0 0 0 .226-.142l5.969-7.236 5.53-7.483 5.875-7.173z" fill="#FCEED0"/>
        <path d="m52.085 16.532-12.739 3.072a7.214 7.214 0 0 0-3.322 1.836 7.23 7.23 0 0 1 1.537-.566L50.3 17.802c.14-.037.29.002.395.103.105.101.151.25.121.393l-2.084 10.82-1.637 9.824-1.166 8.154c-.07.496-.319.949-.699 1.272l-.32.273 2.19-.552a.42.42 0 0 0 .318-.347l1.462-10.063 1.637-9.822 2.085-10.82a.425.425 0 0 0-.117-.4.418.418 0 0 0-.4-.105z" fill="#FCEED0"/>
        <path d="M37.453 72.923a1.674 1.674 0 0 1-1.245-.609 1.701 1.701 0 0 1-.368-1.344l2.024-11.635a1.685 1.685 0 0 1 1.241-1.364l2.868-.718c.15-.038 1.999 2.306 1.999 2.306l2.723-3.387a1.68 1.68 0 0 1 .91-.58l3.124-.79a1.675 1.675 0 0 1 1.69.567c.31.376.442.87.363 1.351l-1.924 11.845a1.686 1.686 0 0 1-1.276 1.376l-2.305.543a7.75 7.75 0 0 1-.9.185 1.678 1.678 0 0 1-1.28-.654 1.705 1.705 0 0 1-.313-1.41l.155-.694-3.24 3.655a1.673 1.673 0 0 1-.809.505l-2.532.694c-.297.077-.6.13-.905.158z" fill="#05325A"/>
        <path d="M85.578 63.723a2.393 2.393 0 0 1-2.086-1.246 2.403 2.403 0 0 1 .053-2.443l5.46-8.932L95.23 40.61c.194-.327.508-.566.874-.664l11.534-3.083-1.721 11.336-1.205 9.04a1.686 1.686 0 0 1-1.224 1.408l-6.44 1.768a1.68 1.68 0 0 1-1.946-.876 1.756 1.756 0 0 1-.146-1.078l.188-1.13-2.52 4.201a.946.946 0 0 1-.55.424l-5.829 1.672a2.384 2.384 0 0 1-.668.096zM74.086 42.908c-.492 0-.96-.219-1.278-.597a1.701 1.701 0 0 1-.377-1.367l3.69-22.38c.1-.652.572-1.182 1.205-1.352l6.002-1.63a1.673 1.673 0 0 1 1.713.538 1.7 1.7 0 0 1 .379 1.366l-.24 1.508 4.115-4.326c.198-.206.445-.358.718-.442l8.881-2.802a1.67 1.67 0 0 1 2.038.933c.273.61.158 1.327-.292 1.819l-6.158 6.854-4.617 5.11 7.815 7.691c.421.415.596 1.021.461 1.599a1.688 1.688 0 0 1-1.12 1.224l-6.886 2.236a1.67 1.67 0 0 1-1.744-.458l-.162-.173-4.544-5.063-1.054 1.275-.836 5.368a1.695 1.695 0 0 1-1.3 1.4l-6.025 1.622c-.126.03-.255.046-.384.047z" fill="#FF6502"/>
        <path d="M53.357 83.059a1.738 1.738 0 0 1-1.306-.604 1.744 1.744 0 0 1-.415-1.388l1.422-9.67 1.697-9.827 1.319-9.857a1.618 1.618 0 0 1 1.08-1.363l18.09-5.068 7.931-2.22c.746-.206 1.1-.206 1.415-.173.494.05.95.287 1.276.665.332.386.477.9.396 1.405l-1.524 9.542-3.27 19.545a1.608 1.608 0 0 1-1.11 1.283l-7.402 2.145c-.158.05-.324.077-.49.078a1.735 1.735 0 0 1-1.305-.604 1.81 1.81 0 0 1-.394-1.419l2.594-18.817-6.728 1.941a.772.772 0 0 0-.55.637l-1.364 9.391-1.257 10.354a1.622 1.622 0 0 1-1.134 1.37l-8.499 2.583a1.605 1.605 0 0 1-.472.07zM53.505 48.453c-3.942 1.006-3.644-3.123-3.468-4.155l1.427-8.437 1.952-9.974c.251-1.284.377-2.206 2.419-2.709l8.636-2.687 9.888-2.488c.135-.035.273-.052.412-.052.49-.006.957.214 1.267.598.318.386.45.895.358 1.388l-.942 5.44a1.678 1.678 0 0 1-1.186 1.315l-11.51 3.332-.046-.105 6.678-1.909a1.67 1.67 0 0 1 1.593.38c.43.395.626.988.517 1.565l-.97 5.129c-.12.638-.581 1.277-1.204 1.448l-8.129 2.256.031-.075 10.109-2.854a1.667 1.667 0 0 1 1.76.559c.318.396.442.915.336 1.414l-.86 4.3c-.127.61-.577 1.101-1.171 1.276 0 0-15.61 4.5-17.897 5.045zM102.96 34.993a6.385 6.385 0 0 1-4.833-2.219 6.49 6.49 0 0 1-1.51-5.132l.638-4.604 1.295-6.484a7.106 7.106 0 0 1 1.468-3.104l1.234-1.502a6.954 6.954 0 0 1 3.443-2.28l7.024-2.014 6.12-1.485a3.45 3.45 0 0 1 3.39 1.084c.655.746.962 1.74.843 2.73l-.392 3.277a1.68 1.68 0 0 1-1.252 1.436l-10.262 2.653a1.58 1.58 0 0 0-1.155 1.261l-.663 3.862c-.08.458.046.928.345 1.282.294.358.731.567 1.193.57.137-.002.273-.02.406-.054l7.33-1.931c.139-.037.282-.056.425-.056.498.003.97.228 1.287.616.317.387.446.896.354 1.39l-.811 4.459a3.477 3.477 0 0 1-2.353 2.697l-6.334 2.039-5.789 1.346c-.473.11-.956.165-1.44.163zM101.814 69.658c-.637 0-1.235-.635-1.472-1.338-.207-.609-.23-1.17.153-1.688l8.659-11.704-2.37-1.454a3.262 3.262 0 0 1-1.569-3.386l2.152-12.163a1.695 1.695 0 0 1 1.205-1.334l7.649-2.129a1.675 1.675 0 0 1 1.714.522c.319.37.463.86.396 1.345l-.983 7.079 7.795-11.036 10.785-3.47c.214-.06.436-.088.658-.087a1.68 1.68 0 0 1 1.504.947 1.704 1.704 0 0 1-.177 1.779l-6.431 8.428-12.794 17.156-6.731 9.526a1.672 1.672 0 0 1-1.016.673l-8.78 2.296c-.114.025-.23.038-.347.038zM36.432 71.839a1.677 1.677 0 0 1-1.246-.61 1.705 1.705 0 0 1-.369-1.346l2.014-11.636a1.688 1.688 0 0 1 1.243-1.364l2.87-.721a1.675 1.675 0 0 1 1.71.551c.31.373.447.862.375 1.343l-.01.049-.068.362 2.725-3.386a1.68 1.68 0 0 1 .91-.58l3.124-.79a1.675 1.675 0 0 1 1.69.566c.31.377.441.87.363 1.352l-1.926 11.845a1.68 1.68 0 0 1-1.274 1.375l-2.307.549c-.296.08-.597.141-.9.185a1.676 1.676 0 0 1-1.279-.653 1.704 1.704 0 0 1-.313-1.41l.153-.694-3.24 3.656a1.668 1.668 0 0 1-.807.505l-2.534.703c-.297.072-.6.122-.904.149z" fill="#FF6502"/>
        <path d="m88.992 50.762 6.275-10.215c.177-.288.457-.497.783-.583l8.317-2.205a.438.438 0 0 1 .407.1c.11.1.163.25.14.398l-1.341 8.76-1.205 9.051a.424.424 0 0 1-.305.347l-6.443 1.768a.418.418 0 0 1-.387-.1.425.425 0 0 1-.13-.379l1.272-7.738-5.692 9.513a.819.819 0 0 1-.474.364l-5.4 1.551a1.135 1.135 0 0 1-1.221-.411 1.156 1.156 0 0 1-.062-1.296l5.466-8.925zM72.581 40.141l3.672-22.362a.422.422 0 0 1 .308-.347l6.01-1.63a.418.418 0 0 1 .385.098.425.425 0 0 1 .131.377l-.66 4.195a.424.424 0 0 0 .226.444.418.418 0 0 0 .49-.083l5.976-6.284a.433.433 0 0 1 .173-.111l8.879-2.8a.418.418 0 0 1 .488.174.426.426 0 0 1-.05.52l-6.158 6.854-5.165 5.71a.426.426 0 0 0 .016.588l8.404 8.257a.426.426 0 0 1-.172.704l-6.886 2.237a.418.418 0 0 1-.436-.115l-.163-.173-5.17-5.773a.42.42 0 0 0-.635.012l-1.821 2.207a.418.418 0 0 0-.093.207l-.872 5.602a.418.418 0 0 1-.325.347l-6.047 1.626a.418.418 0 0 1-.379-.106.425.425 0 0 1-.126-.375zM53.173 70.636l2.834-19.003a1.488 1.488 0 0 1 1.086-1.263l26.046-7.148a.433.433 0 0 1 .406.095.44.44 0 0 1 .141.395l-1.32 9.571-3.223 19.258a.405.405 0 0 1-.277.321l-7.44 2.396a.435.435 0 0 1-.405-.089.442.442 0 0 1-.15-.39l1.47-10.454 1.292-9.73a.44.44 0 0 0-.149-.382.433.433 0 0 0-.397-.092l-8.941 2.585a.402.402 0 0 0-.286.332l-1.506 10.427-1.26 10.373a.405.405 0 0 1-.283.347l-8.5 2.584a.433.433 0 0 1-.404-.09.44.44 0 0 1-.147-.39l1.413-9.653zM51.612 35.101l1.952-9.974a2.28 2.28 0 0 1 1.55-1.735l8.607-2.677 9.833-2.499a.418.418 0 0 1 .391.102c.105.1.152.245.125.388l-.941 5.031a.417.417 0 0 1-.296.328L60.808 27.55a.417.417 0 0 0-.298.347l-.344 2.14a.425.425 0 0 0 .136.383c.107.096.256.13.394.09l7.945-2.28c.14-.04.29-.003.397.096a.425.425 0 0 1 .13.39l-.772 4.152a.892.892 0 0 1-.638.694l-8.396 2.327a.422.422 0 0 0-.305.347l-.332 2.573a.423.423 0 0 0 .141.375.416.416 0 0 0 .39.086l11.333-3.2c.14-.037.29.002.395.102.105.1.15.249.122.392l-.86 4.3a.42.42 0 0 1-.294.32l-9.745 2.679-8.132 2.52a1.614 1.614 0 0 1-1.551-.333 1.643 1.643 0 0 1-.529-1.507l1.617-9.442z" fill="#FFD64C"/>
        <path d="m96.739 26.813.635-4.568L98.66 15.8a5.809 5.809 0 0 1 1.205-2.546l1.234-1.504a5.724 5.724 0 0 1 2.825-1.861l6.993-2.034 6.09-1.45c.701-.167 1.439.023 1.975.507a2.23 2.23 0 0 1 .718 1.922l-.393 3.267a.422.422 0 0 1-.311.359l-10.277 2.652a2.842 2.842 0 0 0-2.085 2.275l-.665 3.862a2.864 2.864 0 0 0 .876 2.587c.71.656 1.701.903 2.633.656l7.323-1.938a.418.418 0 0 1 .39.1.425.425 0 0 1 .126.386l-.81 4.467a2.213 2.213 0 0 1-1.498 1.716l-6.284 2.018-5.739 1.336a5.103 5.103 0 0 1-3.596-.486 5.197 5.197 0 0 1-2.651-5.278zM110.134 53.587l-3.817-2.22a1.983 1.983 0 0 1-.955-2.062l2.153-12.162a.422.422 0 0 1 .301-.335l7.649-2.127a.416.416 0 0 1 .389.09.423.423 0 0 1 .138.377l-1.694 12.216 10.454-14.862 10.598-3.39c.175-.06.37.002.477.154a.426.426 0 0 1-.009.505l-6.431 8.43-12.812 17.176-6.736 9.532a.425.425 0 0 1-.253.174l-8.454 2.014c-.55.186-.787-.395-.365-.867l9.367-12.643zM37.3 57.08l2.87-.722a.418.418 0 0 1 .385.097.425.425 0 0 1 .132.376l-1.008 5.325 5.88-7.31a.416.416 0 0 1 .227-.145l3.125-.79a.418.418 0 0 1 .386.1c.104.096.153.239.13.38l-1.923 11.842c-.027.174-.625.448-.79.486l-2.308.543a.418.418 0 0 1-.392-.111.426.426 0 0 1-.114-.394l1.22-5.463-6.474 7.306a.426.426 0 0 1-.202.126l-2.947.791a.418.418 0 0 1-.391-.092.425.425 0 0 1-.136-.381l2.02-11.625a.424.424 0 0 1 .31-.34z" fill="#FFD64C"/>
        <path d="m96.739 48.073-6.32 10.523c-.3.499-.684.94-1.136 1.304l-.542.368 1.365-.392c.297-.085.551-.28.71-.546l5.611-9.37.312-1.887z" fill="#FCEED0"/>
        <path d="m95.238 40.575-.952 1.55s.845-.952 1.904-1.32l6.872-1.861a.264.264 0 0 1 .245.059c.067.06.099.15.085.24l-1.377 9.021-.993 7.448c-.039.293-.158.57-.345.798l-.311.38 1.706-.468a.431.431 0 0 0 .31-.36l1.205-9.066 1.312-8.626a.523.523 0 0 0-.163-.48.513.513 0 0 0-.49-.112l-8.196 2.188c-.338.091-.628.31-.812.609zM81.218 17.047a.418.418 0 0 1 .384.098.425.425 0 0 1 .132.377l-.66 4.185a.424.424 0 0 0 .226.447.418.418 0 0 0 .491-.086l1.085-1.14a.418.418 0 0 1-.336-.14.426.426 0 0 1-.102-.35l.667-4.184a.425.425 0 0 0-.131-.378.418.418 0 0 0-.386-.099l-6.011 1.633a.422.422 0 0 0-.308.347l-.31 1.847.382-.985c.07-.17.214-.3.39-.347l4.487-1.225zM92.466 19.145l6.166-6.855a.424.424 0 0 0 .056-.521.417.417 0 0 0-.491-.173l-8.89 2.803a.452.452 0 0 0-.172.111l-1.525 1.604.66-.436c.189-.124.393-.22.607-.288l6.898-2.18a.418.418 0 0 1 .488.174.426.426 0 0 1-.051.52l-6.16 6.854-4.25 4.466a.424.424 0 0 0 .017.588l8.069 8.003c.18.177.237.444.148.68l-.195.51 1.722-.588a.426.426 0 0 0 .172-.704l-8.394-8.265a.427.427 0 0 1-.017-.59l5.142-5.713zM81.686 30.633l-2.398 2.787a.414.414 0 0 0-.091.208l-.677 4.233c-.07.45-.299.86-.644 1.156l-.652.487 1.894-.51a.486.486 0 0 0 .353-.376l.87-5.6a.44.44 0 0 1 .094-.209l1.671-2.014c.068-.097.152-.182.248-.25a.602.602 0 0 1 .272-.07c-.155-.04-.67-.133-.94.158zM63.49 56.743c-.426.12-.741.483-.804.925l-1.618 10.907-1.083 8.868c-.028.25-.135.485-.306.67l-.364.388 1.53-.48a.402.402 0 0 0 .285-.348L62.388 67.3s1.465-9.834 1.48-10.097c.03-.457.517-.724.517-.724l-.895.264z" fill="#FCEED0"/>
        <path d="m83.175 43.063-26.03 7.127a1.54 1.54 0 0 0-1.164 1.41l-.172 1.366s.375-1.03.592-1.357c.217-.326.55-.423.899-.52l24.557-6.767a.433.433 0 0 1 .405.095.44.44 0 0 1 .142.395l-1.319 9.57L78.123 72a1.708 1.708 0 0 1-.405.857l-.296.307 1.479-.456a.398.398 0 0 0 .279-.326l3.224-19.258 1.317-9.577a.44.44 0 0 0-.143-.391.431.431 0 0 0-.403-.093zM60.76 27.542l-.465.154a.94.94 0 0 0-.63.755l-.312 2.143a.784.784 0 0 0 .254.702.77.77 0 0 0 .724.165l7.292-2.127a.207.207 0 0 1 .197.047.21.21 0 0 1 .065.192l-.606 3.307a.991.991 0 0 1-.425.647l-.658.438 1.577-.434a.898.898 0 0 0 .64-.694l.775-4.143a.425.425 0 0 0-.13-.392.418.418 0 0 0-.398-.094l-7.945 2.28a.418.418 0 0 1-.394-.09.425.425 0 0 1-.136-.384l.335-2.15a.384.384 0 0 1 .142-.242l.098-.08zM70.6 36.052 59.27 39.26a.418.418 0 0 1-.387-.088.425.425 0 0 1-.143-.374l.345-2.602a.366.366 0 0 1 .187-.273l.105-.048-.47.097a.886.886 0 0 0-.688.753l-.355 2.738a.747.747 0 0 0 .247.662.734.734 0 0 0 .685.155l10.437-2.95c.14-.037.29.001.395.102.105.101.151.25.121.393l-.6 3.027a.628.628 0 0 1-.267.401l-.59.384 1.676-.462a.426.426 0 0 0 .293-.32l.86-4.3a.425.425 0 0 0-.118-.401.418.418 0 0 0-.403-.102zM73.564 18.178l-9.83 2.493-8.607 2.68a2.268 2.268 0 0 0-1.412 1.286l.047-.017 8.607-2.679 9.828-2.495a.418.418 0 0 1 .392.102c.104.1.152.245.125.388l-.689 3.735a.679.679 0 0 1-.293.442l-.951.52 2.014-.572a.57.57 0 0 0 .402-.449l.887-4.955a.424.424 0 0 0-.13-.383.416.416 0 0 0-.39-.096zM116.803 22.535l-7.325 1.927a2.811 2.811 0 0 1-2.629-.66 2.862 2.862 0 0 1-.871-2.584l.735-4.043c.29-1.455 1.357-1.64 1.496-1.908-2.65.265-2.773 2.413-2.937 3.367l-.527 3.113c-.344 2.044 1.947 4.44 3.937 3.916l7.043-1.924a.22.22 0 0 1 .204.051c.054.051.08.126.068.2l-.754 4.25c-.065.431-.279.825-.604 1.111-.009 0 1.626-.237 1.862-1.804l.82-4.523a.424.424 0 0 0-.125-.39.416.416 0 0 0-.393-.1zM116.932 6.358l-6.013 1.464-6.993 2.034a5.822 5.822 0 0 0-3.126 2.255c.743-.609 1.205-.817 1.76-.982l6.993-2.039 6.091-1.448a2.191 2.191 0 0 1 1.976.506 2.23 2.23 0 0 1 .718 1.923l-.253 2.153a.641.641 0 0 1-.272.45l-.262.164 1.446-.378a.422.422 0 0 0 .312-.36l.394-3.296c.183-1.537-1.274-2.802-2.771-2.446zM113.892 35.923a.42.42 0 0 1 .388.09.427.427 0 0 1 .14.377l-1.844 13.403 1.739-2.46 1.672-12.216a.423.423 0 0 0-.139-.377.416.416 0 0 0-.388-.088l-7.642 2.128a.426.426 0 0 0-.301.334l-.305 1.712.413-.878a.783.783 0 0 1 .496-.42l5.77-1.605zM135.352 29.124 124.75 32.5l-.95 1.34.435-.358a.943.943 0 0 1 .284-.161l8.836-2.927c.176-.06.37.002.478.154a.426.426 0 0 1-.01.505l-6.43 8.429-12.814 17.176-5.433 7.708a4.132 4.132 0 0 1-1.108 1.041l1.549-.32a.418.418 0 0 0 .253-.174l6.736-9.532 12.813-17.176 6.426-8.422a.426.426 0 0 0 .009-.502.418.418 0 0 0-.473-.157zM38.999 57.175a.42.42 0 0 1 .382.099.427.427 0 0 1 .134.374l-1.128 6.121 1.338-1.662.966-5.274a.425.425 0 0 0-.133-.376.418.418 0 0 0-.384-.098l-2.87.72a.42.42 0 0 0-.31.347l-.122.668.142-.211a.799.799 0 0 1 .468-.333l1.517-.375zM48.918 53.913l-3.125.79a.416.416 0 0 0-.227.145l-.671.82.292-.209c.107-.08.228-.14.357-.174l2.198-.565a.418.418 0 0 1 .386.099c.104.096.153.24.13.38l-1.743 10.729c-.05.3-.178.58-.37.813l-.092.11 1.135-.267a.42.42 0 0 0 .318-.347l1.925-11.845a.424.424 0 0 0-.129-.379.416.416 0 0 0-.384-.1zM45.311 60.431l-7.023 7.882a3.038 3.038 0 0 1-.643.549l-.25.157 1.054-.29a.426.426 0 0 0 .202-.126l6.473-7.306.187-.866z" fill="#FCEED0"/>
    </g>
</svg>
